{"glyphs":{"0":{"ha":1105,"x_min":94,"x_max":1096,"o":"m 94 460 q 126 677 94 576 q 225 853 159 778 q 388 970 290 928 q 617 1013 486 1013 q 767 994 699 1013 q 888 940 835 975 q 980 859 941 906 q 1045 755 1019 811 q 1083 637 1071 699 q 1096 510 1096 574 q 1059 280 1096 382 q 954 109 1021 179 q 791 2 886 39 q 581 -35 696 -35 q 384 0 473 -35 q 230 99 294 35 q 130 255 165 164 q 94 460 94 347 m 387 486 q 395 376 387 432 q 426 275 404 321 q 487 201 448 230 q 587 173 526 173 q 663 188 630 173 q 721 228 696 203 q 762 287 745 254 q 789 359 779 321 q 804 437 800 397 q 808 514 808 477 q 804 578 808 545 q 790 646 800 612 q 765 710 781 680 q 728 763 749 740 q 677 800 706 787 q 610 814 648 814 q 533 800 566 814 q 474 762 499 786 q 432 707 449 739 q 406 638 416 675 q 391 563 395 602 q 387 486 387 524 z "},"1":{"ha":468,"x_min":112,"x_max":441,"o":"m 153 876 q 156 910 154 900 q 172 922 159 920 l 407 979 q 425 981 417 981 q 438 975 434 981 q 441 952 441 969 l 401 113 q 399 87 401 98 q 393 71 397 77 q 383 61 389 64 q 369 54 377 57 l 157 -8 q 141 -10 149 -10 q 121 -4 130 -10 q 112 20 112 3 q 112 22 112 20 q 113 35 112 24 q 114 67 113 45 q 117 130 115 90 q 122 232 119 170 q 129 384 125 294 q 139 595 134 474 q 153 876 145 717 z "},"2":{"ha":768,"x_min":67,"x_max":758,"o":"m 682 613 q 663 579 676 602 q 633 528 650 557 q 595 466 615 499 q 554 400 574 433 q 514 336 533 367 q 480 282 494 306 q 456 245 465 259 q 448 231 448 231 q 453 231 448 231 q 480 232 461 231 q 523 236 498 234 q 575 241 547 238 q 631 246 604 244 q 683 250 659 248 q 723 252 707 252 q 758 237 758 252 q 752 218 758 227 q 747 207 747 208 l 650 24 q 648 21 648 24 q 646 18 648 18 q 621 3 633 5 q 602 1 610 2 q 500 -1 544 0 q 420 -2 456 -1 q 356 -2 385 -2 q 299 -3 327 -3 q 244 -3 272 -3 q 183 -3 216 -3 q 93 7 118 -3 q 67 37 67 17 q 76 67 67 50 q 100 106 85 84 q 188 231 143 168 q 273 353 233 294 q 348 461 314 411 q 404 545 382 511 q 430 598 422 574 q 438 645 438 623 q 427 693 438 672 q 396 729 416 714 q 349 751 376 743 q 292 758 323 758 q 214 746 254 758 q 135 709 174 734 q 113 701 121 701 q 103 707 106 701 q 101 718 101 713 q 108 780 101 745 q 123 848 115 815 q 138 904 132 880 q 145 931 145 928 q 163 944 146 931 q 216 971 180 956 q 310 1000 252 987 q 450 1013 367 1013 q 548 992 498 1013 q 636 937 597 972 q 699 854 675 902 q 724 751 724 806 q 713 684 724 718 q 682 613 703 650 z "},"3":{"ha":752,"x_min":65,"x_max":730,"o":"m 441 -33 q 413 -35 427 -34 q 387 -35 399 -35 q 315 -31 349 -35 q 249 -17 281 -26 q 183 6 216 -7 q 111 35 149 19 q 97 44 102 37 q 91 58 93 50 q 89 75 90 66 q 88 90 89 83 q 84 120 87 98 q 78 167 81 142 q 71 213 75 191 q 66 243 68 235 q 65 249 65 245 q 72 264 65 258 q 87 270 79 270 q 93 269 90 270 q 142 237 117 254 q 195 208 167 221 q 256 186 224 195 q 329 177 289 177 q 406 198 380 177 q 431 271 431 220 q 428 308 431 288 q 414 345 425 328 q 383 374 404 362 q 330 386 363 386 l 208 386 q 210 405 208 389 q 215 443 212 420 q 221 489 218 465 q 228 535 224 514 q 233 572 231 557 q 236 588 235 587 q 244 617 240 610 q 253 625 249 625 q 278 620 265 621 q 304 618 291 618 q 377 644 351 618 q 404 717 404 669 q 399 749 404 733 q 384 776 394 764 q 357 795 373 788 q 319 803 341 803 q 269 800 294 803 q 219 792 243 797 q 171 781 194 787 q 129 768 148 774 q 131 802 131 781 q 131 823 131 812 q 130 845 130 833 q 132 888 130 866 q 138 928 133 909 q 151 960 142 946 q 176 978 160 973 q 241 997 214 990 q 292 1007 269 1004 q 340 1011 316 1010 q 394 1013 363 1013 q 507 998 450 1013 q 611 951 564 983 q 687 872 657 920 q 716 759 716 825 q 704 681 716 716 q 674 618 692 646 q 635 569 656 590 q 595 534 614 549 q 640 504 616 523 q 683 456 663 486 q 716 386 703 427 q 730 290 730 345 q 708 177 730 233 q 647 77 686 121 q 555 2 608 32 q 441 -33 503 -27 z "},"4":{"ha":917,"x_min":16,"x_max":914,"o":"m 913 387 q 910 372 912 382 q 905 348 907 361 q 900 319 903 335 q 894 289 897 304 l 878 212 q 873 196 876 201 q 858 189 869 191 q 823 187 846 187 q 758 187 800 187 l 746 63 q 743 51 745 57 q 734 42 741 45 q 712 33 730 40 q 671 18 695 26 q 621 -1 648 9 q 569 -19 593 -11 q 526 -33 545 -27 q 500 -38 507 -38 q 483 -33 490 -38 q 476 -14 476 -28 q 479 69 476 19 q 488 184 482 119 q 374 183 430 184 q 269 182 317 182 q 184 182 220 182 q 129 182 147 182 q 43 186 69 182 q 16 205 16 190 q 23 224 16 213 q 45 261 29 234 q 84 326 62 288 q 134 408 107 363 q 188 497 161 452 l 329 730 q 375 813 355 772 q 419 888 395 854 q 476 947 443 922 q 564 983 510 972 l 779 1040 q 797 1042 789 1042 q 809 1038 804 1042 q 813 1021 813 1034 l 813 1013 q 808 899 810 950 q 802 803 805 848 q 797 715 800 758 q 791 627 793 673 q 785 531 788 582 q 780 416 783 479 q 855 418 825 418 q 890 419 884 419 q 906 413 898 418 q 914 395 914 409 q 913 387 914 389 m 507 408 q 521 506 515 454 q 531 612 527 558 q 538 718 535 665 q 543 821 541 771 l 296 408 l 507 408 z "},"5":{"ha":732,"x_min":41,"x_max":715,"o":"m 96 188 q 103 195 98 191 q 116 199 108 199 l 120 199 q 169 194 146 195 q 223 193 192 193 q 291 198 258 193 q 349 216 323 203 q 391 255 375 230 q 406 320 406 280 q 388 394 406 367 q 340 433 370 420 q 276 449 311 446 q 206 452 241 452 q 182 452 193 452 q 163 452 172 452 q 134 455 142 452 q 126 471 126 458 q 127 482 126 476 q 129 496 127 488 q 139 619 131 557 q 157 742 146 680 q 178 864 167 803 q 198 986 189 925 q 452 1015 327 1001 q 707 1046 576 1029 q 715 1031 715 1046 q 713 1019 715 1024 q 709 1005 713 1017 q 701 976 706 994 q 690 937 696 958 q 679 893 684 915 q 667 853 673 872 q 658 821 662 833 q 635 785 651 798 q 596 766 618 772 q 549 757 574 759 q 496 755 523 755 q 452 755 475 755 q 409 755 429 755 q 382 753 393 755 q 363 744 371 751 q 353 722 356 736 q 349 684 349 708 q 493 660 427 680 q 609 601 559 640 q 687 503 659 562 q 715 360 715 444 q 693 223 715 283 q 634 120 671 164 q 548 46 597 76 q 441 -2 498 16 q 324 -27 385 -20 q 206 -35 264 -35 q 123 -31 163 -35 q 52 -10 83 -26 q 45 -5 49 -9 q 41 1 41 -1 l 96 188 z "},"6":{"ha":873,"x_min":79,"x_max":875,"o":"m 450 -35 q 287 -3 356 -35 q 171 82 217 28 q 101 208 124 136 q 79 361 79 280 q 95 484 79 425 q 139 596 111 542 q 202 702 166 650 q 278 802 239 753 q 357 899 317 851 q 432 994 397 946 q 443 1008 437 1000 q 456 1022 449 1016 q 470 1033 463 1029 q 487 1038 477 1038 l 657 1038 q 686 1033 674 1038 q 699 1018 699 1028 q 688 996 699 1008 q 579 848 628 926 q 487 685 530 770 q 534 694 511 692 q 581 697 556 697 q 711 668 656 697 q 803 592 766 639 q 857 488 839 546 q 875 372 875 430 q 848 206 875 281 q 767 78 821 131 q 634 -5 713 24 q 450 -35 554 -35 m 387 325 q 391 280 387 305 q 404 231 394 254 q 430 192 414 208 q 473 176 447 176 q 518 187 499 176 q 549 216 536 198 q 570 256 562 233 q 581 303 577 279 q 586 351 585 327 q 587 393 587 374 q 585 441 587 416 q 575 486 583 466 q 550 518 566 505 q 504 531 533 531 q 442 510 465 531 q 407 458 419 489 q 391 391 395 427 q 387 325 387 355 z "},"7":{"ha":723,"x_min":69,"x_max":791,"o":"m 770 897 l 621 517 q 561 366 591 441 q 505 222 531 290 q 457 102 478 155 q 425 21 436 50 q 410 -17 414 -3 q 401 -36 405 -30 q 393 -45 397 -43 q 380 -49 389 -47 q 326 -61 354 -55 q 271 -71 298 -66 q 219 -80 244 -76 q 174 -87 194 -84 q 167 -87 172 -87 q 150 -81 155 -87 q 144 -64 144 -74 q 151 -40 144 -54 q 174 16 157 -24 q 214 111 191 56 q 264 231 237 166 q 319 362 292 296 l 458 701 l 321 700 q 263 700 293 700 q 206 699 234 699 q 154 699 178 699 q 111 699 129 699 q 80 702 90 699 q 69 714 69 705 q 73 732 69 723 q 77 742 77 741 q 103 798 90 771 q 129 850 116 825 q 154 903 141 876 q 179 958 166 929 q 181 961 180 960 q 182 964 181 963 q 205 980 194 977 q 225 982 216 982 q 357 983 300 983 q 460 984 414 984 q 544 985 507 985 q 617 986 582 985 q 688 986 652 986 q 766 986 724 986 q 791 964 791 986 q 786 937 791 954 q 770 897 781 921 z "},"8":{"ha":868,"x_min":76,"x_max":848,"o":"m 425 -35 q 341 -28 383 -35 q 261 -6 300 -21 q 189 32 222 9 q 130 87 155 55 q 90 159 104 119 q 76 251 76 200 q 89 339 76 300 q 123 411 101 378 q 173 475 144 445 q 234 536 202 505 q 160 619 183 571 q 137 726 137 667 q 152 817 137 777 q 195 890 168 858 q 259 945 222 922 q 339 983 296 968 q 429 1006 382 998 q 526 1013 477 1013 q 626 997 575 1013 q 716 948 676 980 q 782 870 757 916 q 808 765 808 824 q 799 702 808 732 q 777 647 791 673 q 746 598 764 621 q 710 557 728 576 q 764 512 739 537 q 808 455 789 487 q 838 382 827 422 q 848 290 848 341 q 830 190 848 235 q 781 109 812 145 q 707 46 749 73 q 618 1 665 19 q 522 -26 572 -17 q 425 -35 472 -35 m 381 269 q 385 213 381 243 q 398 156 388 182 q 428 111 409 129 q 478 93 447 93 q 510 104 496 93 q 532 133 523 115 q 548 173 542 151 q 557 216 554 195 q 562 257 561 238 q 564 288 564 276 q 558 339 564 311 q 541 393 553 368 q 511 435 530 418 q 468 452 493 452 q 434 442 448 452 q 411 417 420 433 q 396 382 401 402 q 387 342 390 363 q 382 303 383 322 q 381 269 381 283 m 391 742 q 396 699 391 722 q 413 656 401 676 q 441 623 424 636 q 484 610 458 610 q 522 626 508 610 q 543 666 536 643 q 552 715 550 690 q 553 756 553 740 q 549 796 553 775 q 536 834 545 817 q 511 863 527 851 q 473 874 496 874 q 433 861 449 874 q 408 828 417 848 q 395 785 399 808 q 391 742 391 762 z "},"9":{"ha":899,"x_min":74,"x_max":905,"o":"m 417 -14 q 399 2 399 -9 q 406 18 399 9 q 444 80 426 47 q 478 149 463 113 q 506 218 493 184 q 527 283 518 253 q 456 267 492 273 q 384 261 419 261 q 261 289 318 261 q 163 362 205 316 q 98 468 121 408 q 74 592 74 528 q 93 714 74 657 q 147 817 113 770 q 228 900 181 863 q 328 961 274 937 q 439 999 381 986 q 557 1013 498 1013 q 700 977 636 1013 q 810 884 764 941 q 880 756 855 827 q 905 614 905 685 q 889 484 905 547 q 847 360 873 420 q 786 244 821 300 q 713 135 751 188 q 634 33 674 82 q 558 -62 595 -16 q 553 -66 556 -64 q 545 -68 550 -68 q 536 -66 541 -68 q 504 -49 518 -56 q 476 -35 490 -41 q 448 -24 463 -29 q 417 -14 434 -18 m 371 642 q 379 573 371 606 q 405 515 387 541 q 450 475 422 490 q 517 460 477 460 q 543 462 532 460 q 571 471 553 465 q 583 523 578 501 q 590 564 588 545 q 594 602 593 583 q 595 646 595 621 q 594 681 595 661 q 589 722 593 701 q 580 764 586 743 q 563 800 574 784 q 537 825 553 815 q 500 835 522 835 q 437 816 463 835 q 397 769 412 798 q 377 706 382 741 q 371 642 371 672 z "}," ":{"ha":298,"x_min":0,"x_max":0,"o":""},"!":{"ha":373,"x_min":49,"x_max":416,"o":"m 362 793 q 320 582 340 688 q 281 369 299 477 q 277 338 280 347 q 262 327 274 329 q 210 317 235 322 q 155 304 184 311 q 149 306 150 304 q 148 311 148 307 l 141 981 q 146 1011 142 1002 q 161 1023 149 1020 q 277 1052 218 1036 q 402 1086 336 1069 q 408 1086 404 1086 q 416 1080 416 1086 q 413 1063 416 1079 q 406 1022 410 1047 q 396 965 401 997 q 385 902 391 934 q 373 842 378 871 q 362 793 367 813 m 338 232 q 335 187 336 203 q 334 164 334 172 q 333 154 333 156 q 333 151 333 152 q 332 147 332 150 q 331 134 332 144 q 329 105 330 124 q 325 53 328 86 q 320 22 323 31 q 305 11 317 14 q 184 -13 248 -1 q 62 -45 121 -26 q 56 -46 60 -46 l 50 -41 q 49 -39 49 -39 l 64 146 q 68 177 65 168 q 83 189 71 186 q 200 212 141 199 q 325 238 259 224 q 331 239 327 239 q 338 232 338 239 z "},"\"":{"ha":747,"x_min":118,"x_max":802,"o":"m 136 532 q 127 733 131 628 q 118 941 123 838 l 118 949 q 122 974 118 967 q 138 982 126 980 q 205 982 170 982 q 276 983 241 983 q 347 983 312 983 q 412 983 381 983 q 422 980 418 983 q 427 967 427 977 l 427 963 l 321 531 q 316 512 318 520 q 312 500 315 505 q 306 493 310 495 q 296 490 302 490 q 225 490 260 490 q 150 489 191 489 q 142 494 144 489 q 138 507 139 500 q 136 522 136 514 q 136 532 136 529 m 511 532 q 502 733 506 628 q 493 941 498 838 l 493 949 q 497 974 493 967 q 513 982 501 980 q 581 982 545 982 q 651 983 616 983 q 722 983 687 983 q 787 983 756 983 q 798 980 793 983 q 802 967 802 977 l 802 963 l 696 531 q 691 512 693 520 q 687 500 690 505 q 681 493 685 495 q 671 490 677 490 q 600 490 635 490 q 525 489 566 489 q 517 494 519 489 q 513 507 514 500 q 511 522 511 514 q 511 532 511 529 z "},"#":{"ha":1114,"x_min":69,"x_max":1147,"o":"m 275 474 l 296 561 l 202 561 q 141 564 161 561 q 121 578 121 568 q 128 601 121 583 q 144 640 134 618 q 165 684 153 661 q 186 724 176 707 q 200 737 194 731 q 221 744 206 743 l 341 742 q 371 871 357 807 q 399 1001 385 935 q 408 1028 404 1021 q 420 1036 411 1036 l 425 1036 q 478 1019 451 1028 q 531 1001 505 1009 q 584 985 558 992 q 635 973 610 977 q 643 969 640 972 q 647 962 647 967 l 591 739 l 709 736 q 739 868 724 802 q 769 1001 754 933 q 777 1028 774 1021 q 790 1036 781 1036 l 795 1036 q 847 1019 821 1028 q 901 1001 874 1009 q 954 985 928 992 q 1004 973 980 977 q 1013 969 1009 972 q 1017 962 1017 967 l 961 739 q 1017 746 990 743 q 1067 752 1044 750 q 1105 756 1089 755 q 1128 758 1121 758 q 1141 755 1134 758 q 1147 741 1147 751 q 1136 711 1147 735 q 1107 650 1125 687 l 1075 587 q 1061 572 1070 577 q 1034 566 1051 568 q 988 565 1016 565 q 918 566 960 566 l 896 473 q 980 485 943 481 q 1029 490 1017 490 q 1041 486 1034 490 q 1048 472 1048 483 q 1042 452 1048 468 q 1028 414 1037 437 q 1009 362 1020 391 q 989 305 999 334 q 978 290 984 295 q 951 285 971 285 l 924 285 q 891 285 910 285 q 850 286 873 285 l 780 3 q 777 -17 777 -7 q 766 -26 777 -26 q 748 -22 758 -26 l 619 14 q 601 19 614 16 q 576 28 589 23 q 553 42 563 34 q 543 60 543 50 q 545 68 543 62 q 560 126 553 99 q 574 181 567 154 q 587 234 581 208 q 601 288 594 260 q 541 289 570 288 q 481 290 511 289 l 410 3 q 407 -17 408 -7 q 397 -26 407 -26 q 378 -22 389 -26 l 250 14 q 232 19 244 16 q 206 28 219 23 q 183 42 193 34 q 174 60 174 50 q 175 68 174 62 q 205 182 191 130 q 232 292 218 235 q 156 292 187 292 q 106 294 125 292 q 78 298 87 295 q 69 309 69 302 q 77 332 69 315 q 96 371 84 349 q 122 415 108 393 q 148 456 136 438 q 161 469 155 463 q 182 475 168 475 l 275 474 m 644 468 q 655 516 649 492 q 667 564 661 540 q 607 563 636 564 q 549 563 578 563 l 526 470 l 644 468 z "},"$":{"ha":673,"x_min":83,"x_max":676,"o":"m 517 927 q 602 920 566 924 q 658 914 638 917 l 676 715 q 662 716 675 715 q 633 720 650 718 q 598 723 616 722 q 569 725 581 725 q 532 723 555 725 q 487 713 509 720 q 450 693 465 706 q 434 658 434 680 q 451 610 434 631 q 492 568 467 589 q 547 525 517 547 q 601 476 576 503 q 643 415 626 449 q 659 336 659 380 q 644 265 659 298 q 601 204 628 232 q 538 153 574 176 q 463 113 503 130 q 461 79 463 102 q 457 30 459 57 q 453 -27 455 2 q 450 -81 451 -56 l 396 -80 q 368 -81 387 -80 q 325 -84 349 -82 q 278 -86 302 -85 q 235 -87 254 -87 l 242 42 l 189 40 q 137 38 165 39 q 83 37 109 37 q 106 140 94 90 q 130 243 118 190 q 217 257 175 247 q 291 281 258 267 q 342 314 323 296 q 361 353 361 332 q 356 379 361 365 q 335 410 351 393 q 291 451 319 428 q 214 503 262 473 q 128 583 154 540 q 102 676 102 625 q 121 745 102 710 q 168 809 139 780 q 233 860 197 839 q 306 888 269 881 l 327 1017 q 329 1032 328 1026 q 330 1042 329 1038 q 332 1048 330 1046 q 340 1050 334 1050 q 438 1058 387 1054 q 538 1070 490 1063 q 544 1069 543 1070 q 545 1065 545 1067 q 542 1050 545 1064 q 535 1016 539 1036 q 526 972 530 996 q 517 927 521 948 z "},"%":{"ha":1487,"x_min":103,"x_max":1476,"o":"m 717 586 q 827 720 770 652 q 938 857 883 789 q 950 871 946 867 q 961 876 954 876 q 967 876 966 876 q 1032 825 1000 849 q 1096 782 1063 802 q 1110 775 1101 780 q 1118 766 1118 771 q 1116 761 1118 763 l 582 113 q 575 103 576 106 q 568 100 574 100 q 561 101 565 100 q 549 104 556 102 q 487 153 510 136 q 450 180 463 171 q 431 193 437 190 q 422 200 426 197 q 416 209 417 203 q 416 222 416 214 q 493 312 456 268 q 566 400 530 356 q 639 491 602 445 q 717 586 676 536 m 103 764 q 121 889 103 831 q 175 989 139 947 q 265 1056 211 1031 q 391 1080 319 1080 q 508 1056 458 1080 q 591 991 558 1031 q 639 899 623 951 q 654 791 654 846 q 634 661 654 718 q 576 564 614 604 q 487 503 539 524 q 372 482 435 482 q 263 502 313 482 q 178 559 214 522 q 123 648 142 595 q 103 764 103 700 m 277 778 q 281 724 277 751 q 296 675 285 697 q 326 639 307 653 q 375 625 345 625 q 428 641 407 625 q 461 682 449 657 q 479 735 474 706 q 484 793 484 765 q 479 842 484 816 q 463 890 474 868 q 433 927 452 913 q 387 942 414 942 q 334 927 355 942 q 300 888 313 912 q 282 836 287 865 q 277 778 277 806 m 924 247 q 942 372 924 314 q 996 472 960 429 q 1086 538 1032 514 q 1212 563 1140 563 q 1330 538 1280 563 q 1412 474 1379 514 q 1460 381 1444 433 q 1476 273 1476 329 q 1455 143 1476 201 q 1398 46 1435 86 q 1308 -14 1360 7 q 1193 -35 1256 -35 q 1084 -15 1134 -35 q 999 41 1035 5 q 944 130 964 78 q 924 247 924 182 m 1098 260 q 1102 207 1098 234 q 1117 158 1106 180 q 1147 122 1128 136 q 1196 108 1166 108 q 1249 124 1228 108 q 1283 164 1270 140 q 1300 218 1295 189 q 1305 275 1305 248 q 1300 325 1305 298 q 1284 373 1295 351 q 1254 410 1273 395 q 1208 425 1236 425 q 1155 410 1176 425 q 1121 371 1134 395 q 1103 318 1108 347 q 1098 260 1098 289 z "},"&":{"ha":1058,"x_min":54,"x_max":1080,"o":"m 54 201 q 56 242 54 222 q 65 281 58 261 q 89 324 73 302 q 132 373 104 346 q 202 433 160 400 q 306 509 245 467 q 243 623 263 566 q 222 736 222 681 q 247 831 222 787 q 317 910 271 876 q 432 963 364 943 q 589 982 500 982 q 631 978 608 982 q 679 964 654 973 q 726 939 703 954 q 767 900 749 923 q 796 848 785 878 q 807 779 807 818 q 795 714 807 743 q 759 656 783 686 q 698 593 735 627 q 611 515 661 559 l 772 385 q 787 372 780 378 q 802 367 794 366 q 809 373 806 372 q 817 374 813 374 l 971 517 q 1002 498 983 512 q 1038 466 1021 484 q 1067 430 1055 448 q 1080 398 1080 411 q 1077 385 1080 390 l 954 256 l 962 250 q 976 239 968 245 q 995 225 985 233 q 1018 209 1006 217 q 1042 192 1029 200 q 1050 182 1048 187 q 1051 175 1051 176 q 1043 151 1051 165 q 1022 121 1035 137 q 995 87 1010 104 q 964 55 979 70 q 937 27 949 39 q 917 8 924 14 q 903 1 910 1 q 893 5 897 1 l 757 89 q 636 28 688 52 q 539 -9 585 5 q 451 -29 494 -24 q 357 -35 408 -35 q 245 -20 300 -35 q 149 23 191 -6 q 80 97 106 53 q 54 201 54 141 m 349 245 q 353 215 349 230 q 367 187 357 199 q 395 166 377 174 q 440 158 412 158 q 465 159 449 158 q 500 167 480 161 q 544 185 519 173 q 594 220 568 198 l 433 377 q 403 359 418 369 q 376 333 388 349 q 356 297 363 318 q 349 245 349 275 m 536 823 q 499 817 515 823 q 473 799 483 810 q 457 773 463 787 q 452 742 452 758 q 464 691 452 717 q 496 645 475 665 q 572 714 549 680 q 595 773 595 747 q 579 810 595 796 q 536 823 564 823 z "},"'":{"ha":372,"x_min":118,"x_max":427,"o":"m 136 532 q 127 732 131 627 q 118 940 123 838 l 118 949 q 122 973 118 966 q 138 981 126 979 q 205 982 170 981 q 276 982 241 982 q 347 982 312 982 q 412 983 381 983 q 422 979 418 983 q 427 966 427 976 l 427 962 l 321 530 q 316 512 318 519 q 312 499 315 504 q 306 492 310 494 q 296 490 302 490 q 225 489 260 490 q 150 488 191 488 q 142 494 144 488 q 138 506 139 499 q 136 521 136 513 q 136 532 136 528 z "},"(":{"ha":568,"x_min":68,"x_max":616,"o":"m 524 63 q 516 13 520 35 q 507 -30 511 -9 q 497 -73 502 -51 q 487 -123 492 -94 q 473 -136 484 -136 q 471 -135 471 -136 q 469 -135 470 -135 q 287 -74 363 -119 q 162 37 211 -28 q 91 184 113 102 q 68 354 68 265 q 74 448 68 394 q 96 561 80 502 q 139 680 112 620 q 210 793 167 741 q 276 863 237 826 q 364 931 315 899 q 470 986 413 963 q 590 1015 528 1009 q 598 1011 593 1015 q 604 995 602 1008 q 606 974 604 995 q 610 923 608 952 q 614 861 612 893 q 616 808 616 829 q 612 792 616 796 q 596 785 607 788 q 498 729 543 770 q 421 633 454 689 q 370 510 389 577 q 351 373 351 442 q 360 283 351 327 q 388 201 369 239 q 438 137 408 164 q 511 96 469 109 q 521 90 517 95 q 525 74 525 85 q 525 69 525 71 q 524 63 525 66 z "},")":{"ha":569,"x_min":58,"x_max":574,"o":"m 58 63 q 64 88 58 81 q 76 96 69 94 q 171 150 131 113 q 238 237 212 187 q 277 345 264 287 q 290 459 290 402 q 277 570 290 517 q 241 667 264 623 q 183 741 217 710 q 107 785 149 772 q 94 790 98 787 q 90 800 90 793 q 91 808 90 806 q 102 861 95 829 q 116 923 109 893 q 129 973 123 952 q 135 995 135 994 q 144 1011 138 1008 q 153 1015 149 1015 q 268 986 214 1009 q 364 931 321 963 q 440 863 408 899 q 494 793 473 826 q 532 720 517 758 q 556 641 547 681 q 570 562 566 602 q 574 486 574 522 q 561 345 574 414 q 523 210 549 275 q 456 88 496 145 q 361 -14 416 31 q 236 -91 307 -60 q 80 -135 166 -122 q 78 -135 79 -135 q 76 -136 77 -136 q 64 -123 64 -136 q 63 -81 64 -100 q 61 -44 62 -62 q 59 -10 60 -27 q 58 26 58 7 l 58 63 l 58 63 z "},"*":{"ha":865,"x_min":79,"x_max":835,"o":"m 294 347 l 224 397 q 115 468 152 444 q 79 507 79 493 q 82 517 79 511 q 92 534 85 524 q 109 561 98 545 q 136 599 120 576 l 174 654 q 181 660 178 658 q 190 663 185 663 q 213 650 199 663 l 260 610 q 309 570 282 592 q 365 524 336 547 l 368 553 q 379 671 374 629 q 387 734 383 713 q 396 761 391 755 q 409 768 401 766 l 421 768 q 450 767 429 768 q 495 766 471 766 q 539 765 518 766 q 569 765 561 765 l 573 765 q 587 758 583 762 q 592 741 592 753 q 592 736 592 739 q 591 730 592 733 l 581 669 q 572 606 576 641 q 564 532 568 570 q 613 579 588 555 q 660 624 638 604 q 699 656 682 644 q 724 669 715 669 q 732 667 728 669 q 740 661 736 665 l 778 606 q 803 568 793 584 q 821 542 814 553 q 831 525 828 531 q 835 514 835 518 q 832 504 835 509 q 822 493 830 499 q 800 476 814 486 q 762 449 786 466 q 703 408 738 433 q 618 347 667 383 l 798 208 q 819 188 813 195 q 826 176 825 181 q 821 163 826 170 q 808 144 815 157 q 781 106 800 132 q 726 32 762 81 q 712 24 721 24 q 689 35 701 24 l 539 153 l 526 -13 q 523 -37 525 -28 q 519 -50 522 -45 q 513 -56 517 -54 q 503 -57 509 -57 l 490 -57 q 481 -57 486 -57 q 469 -58 476 -58 q 423 -55 454 -58 q 340 -50 393 -53 q 327 -42 332 -50 q 321 -22 321 -35 l 340 149 l 218 62 q 205 54 211 57 q 195 52 200 52 q 180 59 186 52 q 129 115 147 96 q 106 144 111 134 q 93 163 98 157 q 87 176 87 170 q 94 188 87 181 q 116 208 100 195 l 294 347 z "},"+":{"ha":652,"x_min":73,"x_max":654,"o":"m 256 357 q 196 357 222 357 q 154 357 170 357 q 93 360 113 357 q 73 376 73 364 q 77 401 73 382 q 86 445 81 420 q 96 493 91 469 q 104 535 101 518 q 115 550 106 543 q 139 557 124 557 l 275 559 l 277 574 q 281 653 280 620 q 286 707 283 686 q 296 738 289 728 q 317 748 302 748 q 320 748 318 748 q 323 747 321 747 q 336 748 328 747 q 355 748 345 748 q 379 749 366 749 q 404 749 392 749 l 469 751 q 483 744 478 749 q 488 728 488 740 q 488 726 488 726 q 487 721 488 725 q 486 708 487 717 q 484 682 486 699 q 480 635 483 664 q 475 563 478 606 l 486 564 q 535 565 511 564 q 579 566 559 566 q 614 567 600 566 q 635 567 629 567 q 647 563 640 567 q 654 547 654 559 q 650 521 653 546 q 643 452 648 496 l 635 387 q 628 373 631 377 q 616 366 624 368 q 595 364 609 364 q 557 363 581 363 l 458 361 l 450 262 q 445 219 448 236 q 437 193 441 203 q 428 180 433 184 q 414 176 422 176 q 383 177 403 176 q 341 178 363 177 q 298 179 319 178 q 261 179 276 179 q 248 187 253 180 q 243 208 243 194 l 243 212 l 256 357 z "},",":{"ha":398,"x_min":56,"x_max":361,"o":"m 176 -225 q 164 -219 169 -221 q 152 -214 160 -218 q 129 -202 144 -210 q 85 -178 114 -194 q 63 -159 63 -166 q 65 -153 63 -157 q 106 -89 85 -123 q 147 -21 127 -56 l 90 -20 l 77 -20 q 62 -19 68 -20 q 56 -14 56 -18 l 56 -12 q 60 34 58 17 q 62 59 62 50 q 63 73 63 68 q 64 80 64 77 q 65 88 64 83 q 66 104 65 93 q 68 136 66 116 q 73 189 70 156 q 77 220 74 212 q 92 231 80 229 q 156 231 123 231 q 222 232 189 231 q 287 232 255 232 q 349 232 319 232 q 361 216 361 232 l 349 50 q 345 24 347 35 q 341 6 343 14 q 337 -11 340 -3 q 332 -30 335 -19 q 318 -55 328 -39 q 296 -87 309 -70 q 271 -123 284 -105 q 246 -157 258 -141 q 226 -184 235 -173 q 214 -200 217 -196 q 209 -207 212 -203 q 202 -216 206 -212 q 193 -224 198 -220 q 184 -227 189 -227 q 176 -225 180 -227 z "},"-":{"ha":650,"x_min":65,"x_max":659,"o":"m 437 573 q 505 575 472 574 q 565 577 538 576 q 612 579 592 578 q 640 581 632 581 q 652 576 646 581 q 659 561 659 572 q 653 538 659 555 q 636 499 646 522 q 613 447 626 475 q 587 387 600 418 q 582 376 584 380 q 575 369 579 372 q 566 365 572 366 q 549 363 559 363 q 427 361 488 362 q 312 359 366 360 q 215 357 258 358 q 146 357 172 357 q 85 360 105 357 q 65 376 65 364 q 74 394 65 379 q 96 430 82 410 q 126 474 109 451 q 161 517 144 498 q 193 550 178 537 q 219 564 209 564 l 437 573 z "},".":{"ha":389,"x_min":61,"x_max":353,"o":"m 61 -26 q 63 25 62 6 q 64 54 64 43 q 64 68 64 64 q 64 76 64 72 q 65 85 64 79 q 66 103 65 90 q 68 137 66 115 q 71 196 69 159 q 76 227 73 218 q 91 237 79 235 q 216 238 151 237 q 338 239 281 238 q 349 235 345 239 q 353 222 353 232 l 334 9 q 329 -21 331 -13 q 313 -31 326 -30 q 195 -33 256 -32 q 68 -33 134 -33 q 63 -33 64 -33 q 61 -28 61 -32 l 61 -26 z "},"/":{"ha":591,"x_min":39,"x_max":646,"o":"m 301 640 q 380 819 342 729 q 459 1001 418 908 q 473 1028 468 1021 q 487 1036 477 1036 l 492 1036 q 564 1004 528 1021 q 635 980 600 987 q 643 977 640 979 q 646 971 646 975 l 646 969 l 211 10 q 207 -1 208 4 q 204 -11 205 -7 q 199 -17 202 -15 q 191 -20 197 -20 q 174 -15 183 -20 l 105 14 q 89 19 100 16 q 67 28 78 23 q 47 40 56 33 q 39 56 39 47 q 42 68 39 62 q 102 198 73 134 q 161 329 131 261 q 225 473 191 397 q 301 640 259 549 z "},":":{"ha":453,"x_min":108,"x_max":413,"o":"m 121 493 q 123 544 123 525 q 124 572 124 562 q 125 587 125 583 q 125 594 125 591 q 125 604 125 598 q 126 622 125 609 q 128 656 127 634 q 132 715 130 678 q 136 746 133 737 q 151 756 139 754 q 276 756 211 756 q 399 758 341 757 q 409 754 405 758 q 413 741 413 751 l 394 528 q 389 497 391 506 q 374 488 387 489 q 255 486 316 487 q 129 486 195 486 q 123 486 125 486 q 121 490 121 487 l 121 493 m 108 -26 q 110 25 109 6 q 111 54 111 43 q 111 68 111 64 q 111 76 111 72 q 112 85 111 79 q 113 103 112 90 q 115 137 113 115 q 118 196 116 159 q 122 227 119 218 q 138 237 125 235 q 262 238 197 237 q 385 239 328 238 q 395 235 391 239 q 399 222 399 232 l 380 9 q 375 -21 378 -13 q 360 -31 373 -30 q 242 -33 302 -32 q 115 -33 181 -33 q 110 -33 111 -33 q 108 -28 108 -32 l 108 -26 z "},";":{"ha":439,"x_min":95,"x_max":401,"o":"m 216 -224 q 204 -218 208 -220 q 192 -212 199 -216 q 169 -200 184 -208 q 124 -176 153 -193 q 102 -157 102 -165 q 104 -152 102 -155 q 145 -88 124 -121 q 186 -20 167 -54 l 129 -19 l 117 -19 q 101 -18 107 -19 q 95 -12 95 -17 l 95 -11 q 99 35 98 18 q 102 61 101 52 q 103 74 102 70 q 103 81 103 78 q 104 90 104 85 q 105 106 104 94 q 107 137 106 117 q 112 191 109 157 q 116 222 113 213 q 132 232 119 231 q 195 232 162 232 q 261 233 229 233 q 327 233 294 233 q 389 233 359 233 q 400 217 400 233 l 388 52 q 384 26 386 36 q 381 7 382 16 q 377 -9 379 -1 q 371 -28 374 -18 q 357 -53 367 -38 q 336 -86 348 -68 q 310 -122 323 -104 q 286 -156 297 -140 q 265 -183 274 -172 q 254 -199 256 -195 q 249 -206 252 -201 q 241 -215 245 -210 q 233 -222 237 -219 q 223 -226 228 -226 q 216 -224 220 -226 m 110 492 q 112 543 111 524 q 113 572 113 562 q 113 586 113 582 q 113 594 113 590 q 114 603 113 597 q 115 621 114 608 q 117 655 115 633 q 120 714 118 677 q 124 745 121 736 q 140 755 127 753 q 264 756 199 755 q 387 757 330 756 q 397 753 393 757 q 401 741 401 750 l 382 528 q 377 497 380 505 q 362 487 375 488 q 244 486 304 486 q 117 485 183 485 q 112 486 113 485 q 110 490 110 486 l 110 492 z "},"<":{"ha":730,"x_min":78,"x_max":703,"o":"m 697 220 q 703 212 703 216 q 701 204 703 208 q 654 100 673 153 q 616 -7 635 46 q 600 -20 612 -20 q 589 -18 594 -20 q 574 -12 583 -16 l 129 248 q 100 265 107 258 q 92 286 92 272 q 87 390 90 337 q 79 500 85 443 q 78 502 79 501 q 78 503 78 503 l 79 508 q 82 514 79 511 q 87 516 85 516 q 145 542 109 527 q 224 573 180 556 q 319 609 269 591 q 422 648 370 628 q 527 687 475 667 q 627 724 579 706 q 657 730 648 730 q 668 720 666 730 q 677 610 672 667 q 694 502 682 553 q 686 486 694 487 l 388 376 q 418 361 395 372 q 471 334 441 349 q 536 301 502 319 q 603 268 571 283 q 660 239 635 252 q 697 220 686 226 z "},"=":{"ha":720,"x_min":111,"x_max":671,"o":"m 389 602 q 478 603 435 602 q 556 605 521 604 q 616 607 591 606 q 652 608 642 608 q 665 604 658 608 q 671 588 671 600 q 666 563 672 583 q 649 508 659 543 l 633 454 q 622 437 628 443 q 595 431 615 431 q 473 429 534 430 q 358 427 412 428 q 261 425 304 426 q 192 425 218 425 q 131 428 151 425 q 111 444 111 432 q 115 464 111 448 q 124 499 119 479 q 136 539 130 519 q 149 576 143 560 q 163 590 157 583 q 184 598 169 597 l 389 602 m 389 283 q 478 284 435 283 q 556 287 521 286 q 616 289 591 288 q 652 290 642 290 q 665 286 658 290 q 671 270 671 281 q 666 245 672 265 q 649 190 659 224 l 633 136 q 622 119 628 125 q 595 113 615 113 q 473 111 534 112 q 358 109 412 110 q 261 107 304 108 q 192 106 218 106 q 131 110 151 106 q 111 125 111 114 q 115 146 111 130 q 124 181 119 161 q 136 221 130 201 q 149 258 143 242 q 163 272 157 264 q 184 280 169 279 l 389 283 z "},">":{"ha":713,"x_min":90,"x_max":714,"o":"m 95 220 q 132 239 106 226 q 189 268 157 252 q 256 301 221 283 q 321 334 290 319 q 374 361 351 349 q 404 376 397 372 l 106 486 q 98 502 98 487 q 115 610 110 553 q 124 720 120 667 q 135 730 126 730 q 165 724 144 730 q 265 687 213 706 q 370 648 317 667 q 473 609 422 628 q 568 573 524 591 q 647 542 612 556 q 705 516 683 527 q 710 514 707 516 q 713 508 713 511 l 714 503 q 714 502 714 503 q 713 500 713 501 q 705 390 707 443 q 700 286 702 337 q 692 265 700 272 q 663 248 685 258 l 218 -12 q 203 -18 209 -16 q 193 -20 198 -20 q 182 -17 185 -20 q 176 -7 178 -14 q 137 100 156 46 q 91 204 117 153 q 90 212 90 208 q 91 217 90 215 q 95 220 92 218 z "},"?":{"ha":791,"x_min":98,"x_max":800,"o":"m 294 406 q 383 469 340 431 q 457 549 425 507 q 508 634 489 591 q 526 711 526 676 q 505 773 526 749 q 436 797 484 797 q 391 790 409 797 q 363 774 374 784 q 349 751 353 764 q 345 728 345 739 q 349 699 345 712 q 354 682 354 686 q 345 675 354 677 q 314 669 335 673 q 257 660 292 666 q 170 639 222 653 q 140 631 151 633 q 123 629 129 629 q 110 640 115 629 q 102 664 105 650 q 99 692 100 677 q 98 717 98 707 q 129 828 98 779 q 209 911 159 878 q 320 963 258 945 q 445 981 382 981 q 591 957 526 981 q 703 893 656 932 q 774 805 749 854 q 800 710 800 757 q 786 634 800 671 q 750 560 773 596 q 697 490 728 524 q 634 425 667 456 q 567 366 601 394 q 500 312 532 337 q 495 308 499 310 q 488 306 492 306 q 483 307 486 306 q 478 309 479 307 q 432 330 452 321 q 391 348 411 340 q 351 362 372 356 q 305 374 330 369 q 291 381 296 376 q 287 390 287 385 q 293 398 292 393 q 294 406 294 404 m 296 -26 q 298 25 298 6 q 299 54 299 43 q 300 68 300 64 q 300 76 300 72 q 300 85 300 79 q 301 103 300 90 q 303 137 302 115 q 307 196 304 159 q 311 227 308 218 q 326 237 314 235 q 451 238 386 237 q 574 239 516 238 q 585 234 581 239 q 588 218 588 230 l 569 9 q 564 -21 566 -13 q 549 -31 562 -30 q 430 -33 491 -32 q 304 -33 370 -33 q 297 -32 298 -33 q 296 -26 296 -31 z "},"@":{"ha":1207,"x_min":82,"x_max":1213,"o":"m 710 330 q 723 413 718 378 q 731 471 728 447 q 735 510 734 494 q 738 536 737 526 q 711 556 728 546 q 676 567 695 567 q 645 558 658 567 q 622 534 631 549 q 606 503 612 520 q 596 468 600 485 q 591 435 593 450 q 590 410 590 420 q 606 329 590 355 q 650 304 621 304 q 677 311 662 304 q 710 330 693 318 m 732 236 q 665 181 699 199 q 598 164 631 164 q 520 180 557 164 q 454 227 483 197 q 407 300 425 257 q 390 397 390 343 q 412 521 390 465 q 472 618 435 578 q 558 681 510 659 q 659 703 607 703 q 715 691 690 703 q 763 659 741 678 q 767 679 766 671 q 769 690 768 686 q 775 696 771 694 q 789 698 780 697 q 861 692 825 692 q 937 691 897 691 l 892 364 q 892 356 892 361 q 892 347 892 351 q 896 313 892 328 q 906 285 899 297 q 921 267 912 273 q 939 260 930 260 q 969 272 953 260 q 999 312 985 284 q 1022 386 1013 340 q 1031 500 1031 432 q 1011 614 1031 559 q 950 710 991 669 q 845 776 909 751 q 696 801 782 801 q 567 780 624 801 q 467 724 510 759 q 394 645 424 690 q 345 555 363 601 q 317 465 326 509 q 308 386 308 420 q 334 243 308 302 q 413 147 361 184 q 543 92 465 109 q 723 75 621 75 q 741 69 734 75 q 747 43 747 63 q 744 14 747 31 q 736 -30 741 -4 q 725 -78 730 -60 q 714 -105 720 -96 q 701 -117 708 -115 q 684 -119 694 -119 q 432 -92 544 -119 q 243 -7 321 -64 q 124 136 165 50 q 82 338 82 222 q 107 525 82 437 q 176 687 132 613 q 282 819 220 760 q 419 918 345 878 q 580 981 494 959 q 756 1002 665 1002 q 950 962 865 1002 q 1094 853 1035 922 q 1183 693 1152 785 q 1213 500 1213 602 q 1191 361 1213 429 q 1129 241 1168 294 q 1040 157 1090 189 q 934 125 989 125 q 826 151 876 125 q 732 236 775 176 z "},"A":{"ha":940,"x_min":29,"x_max":965,"o":"m 45 50 q 64 89 54 67 q 81 137 73 111 l 100 182 q 75 221 87 200 q 52 265 62 243 q 36 310 42 288 q 29 353 29 332 q 40 356 29 355 q 66 357 50 357 q 101 358 82 358 q 135 359 119 359 q 162 360 151 359 q 172 360 172 360 q 203 437 188 401 q 233 511 218 474 q 262 588 248 549 q 292 671 277 627 q 348 819 321 755 q 399 938 375 883 q 408 950 401 945 q 422 960 414 956 q 436 967 429 964 q 448 971 444 970 q 468 977 450 972 q 509 989 486 983 q 555 1000 532 995 q 591 1004 578 1004 l 604 1004 q 624 999 614 1004 q 637 979 634 994 q 707 797 670 896 q 779 580 744 699 q 817 459 798 516 q 853 348 835 402 q 890 239 871 294 q 928 127 909 185 q 941 89 935 103 q 953 66 947 75 q 962 55 958 58 q 965 47 965 51 q 952 39 965 43 l 806 -9 q 773 -21 790 -15 q 741 -32 756 -27 q 715 -40 726 -37 q 699 -43 704 -43 l 695 -43 q 682 -37 686 -43 q 676 -26 677 -31 q 663 15 669 -3 q 649 51 656 33 q 636 89 643 68 q 624 137 630 109 q 616 143 623 140 q 602 146 610 145 q 584 148 593 148 q 566 149 574 149 q 525 148 541 149 q 496 148 509 148 q 473 147 484 147 q 446 146 462 146 q 405 147 426 146 q 368 148 385 147 l 329 149 q 294 58 311 100 q 256 -31 276 15 q 249 -39 254 -36 q 239 -43 244 -43 q 234 -42 235 -43 q 123 5 168 -18 q 45 50 79 28 m 503 659 q 470 550 486 599 q 441 463 454 500 q 418 398 428 425 q 405 358 409 372 l 405 352 q 404 347 405 348 l 567 347 q 551 414 559 380 q 534 485 543 448 q 518 565 526 522 q 503 659 510 608 z "},"B":{"ha":970,"x_min":85,"x_max":971,"o":"m 172 9 q 153 19 158 12 q 149 35 149 26 q 149 38 149 37 q 149 41 149 39 q 161 194 155 114 q 175 358 168 275 q 190 524 182 441 q 205 684 197 606 l 204 684 q 189 680 201 684 q 160 670 176 675 q 128 661 144 665 q 102 657 112 657 q 89 664 93 657 q 85 679 85 671 q 87 690 85 685 q 125 789 106 743 q 165 884 145 836 q 272 933 216 912 q 384 967 328 954 q 497 988 441 981 q 606 996 553 996 q 746 980 680 996 q 860 933 811 964 q 936 853 908 901 q 964 741 964 806 q 952 688 964 713 q 921 638 940 662 q 878 595 901 615 q 831 559 854 575 q 889 516 863 535 q 934 475 916 496 q 962 428 952 454 q 971 365 971 402 q 951 256 971 308 q 896 160 931 204 q 813 79 861 115 q 710 18 766 43 q 592 -21 654 -7 q 467 -35 530 -35 q 405 -31 444 -35 q 324 -19 366 -26 q 240 -5 281 -13 q 172 9 199 3 m 484 753 q 463 590 471 673 q 447 430 454 508 q 436 283 441 353 q 427 158 431 213 q 485 161 454 158 q 548 172 517 164 q 609 191 579 179 q 661 220 638 203 q 696 262 683 238 q 710 317 710 286 q 699 351 710 336 q 669 376 687 366 q 629 394 651 387 q 587 405 608 401 q 549 412 566 410 q 523 416 532 414 q 511 422 513 417 q 508 436 508 428 q 519 463 508 445 q 549 511 530 480 l 577 556 q 617 573 595 563 q 656 596 638 583 q 687 626 675 610 q 699 663 699 643 q 675 748 699 718 q 606 777 651 777 q 484 753 554 777 z "},"C":{"ha":878,"x_min":85,"x_max":899,"o":"m 85 458 q 103 602 85 533 q 155 730 121 671 q 235 839 188 790 q 340 923 282 888 q 467 977 399 958 q 610 996 535 996 q 715 988 670 996 q 794 968 760 980 q 850 942 827 956 q 888 915 873 928 q 887 910 887 915 q 889 873 887 900 q 893 812 890 846 q 897 745 895 779 q 899 686 899 711 q 896 676 899 682 q 882 671 893 671 q 867 673 876 671 q 831 692 853 677 q 781 723 810 707 q 716 751 752 739 q 639 764 681 764 q 538 742 583 764 q 460 681 492 720 q 411 589 429 642 q 393 473 393 536 q 406 367 393 417 q 443 278 418 316 q 504 217 467 240 q 590 195 541 195 q 659 197 629 195 q 714 206 688 200 q 765 222 740 212 q 818 248 789 233 q 825 249 819 249 q 831 245 829 249 q 833 230 833 241 l 833 149 q 832 105 833 126 q 832 66 832 83 q 831 39 831 50 q 830 28 831 28 q 763 -4 799 9 q 690 -23 728 -16 q 614 -33 652 -31 q 541 -35 576 -35 q 362 1 446 -35 q 217 102 279 37 q 121 258 156 168 q 85 458 85 349 z "},"D":{"ha":1047,"x_min":79,"x_max":1055,"o":"m 116 -35 q 105 -28 109 -34 q 102 -14 102 -22 q 104 -3 102 -8 l 188 156 q 190 177 189 159 q 194 223 192 195 q 198 284 196 250 q 203 351 201 318 q 209 415 206 385 q 213 465 211 445 q 215 490 214 473 q 218 528 216 507 q 221 575 219 550 q 225 625 223 600 l 235 767 q 197 759 216 763 q 158 751 177 754 q 123 745 140 747 q 94 743 106 743 q 83 749 87 743 q 79 764 79 756 q 83 777 79 772 l 256 937 q 297 968 277 956 q 347 987 318 980 q 419 996 376 994 q 526 998 461 998 q 724 975 637 998 q 869 909 810 952 q 948 846 913 879 q 1006 772 983 812 q 1042 683 1030 732 q 1055 574 1055 635 q 1020 368 1055 458 q 926 210 985 277 q 786 96 866 142 q 616 20 707 49 q 429 -22 526 -9 q 239 -35 332 -35 l 116 -35 m 510 781 l 502 699 q 493 608 498 656 q 485 510 489 559 q 477 411 481 460 q 469 321 473 363 q 463 245 466 279 q 458 193 460 212 l 456 172 q 595 199 538 172 q 687 272 652 225 q 738 380 722 318 q 754 515 754 443 q 740 614 754 566 q 699 705 726 662 q 632 770 671 749 q 543 792 593 792 q 526 788 535 792 q 510 781 516 785 z "},"E":{"ha":799,"x_min":92,"x_max":856,"o":"m 694 563 q 684 536 691 553 q 666 497 676 519 q 645 451 656 475 q 623 401 634 426 q 616 387 619 391 q 605 380 612 382 q 584 378 597 378 q 547 377 571 378 l 453 375 l 434 168 l 782 168 l 782 141 q 770 123 781 140 q 747 83 760 106 q 718 37 733 60 q 693 -1 703 14 q 677 -20 686 -13 q 658 -31 669 -27 q 635 -35 648 -34 q 608 -35 623 -35 q 480 -33 547 -35 q 349 -26 414 -30 q 220 -17 283 -22 q 104 -6 157 -12 q 95 -1 99 -5 q 92 10 92 4 q 95 22 89 10 q 113 52 102 33 q 139 93 125 70 q 165 140 153 117 l 176 293 q 181 351 179 332 q 182 371 182 370 q 122 375 142 372 q 102 390 102 378 q 112 410 102 395 q 136 445 121 425 q 166 485 150 464 q 194 524 182 506 l 211 754 l 209 754 q 182 753 194 753 q 159 753 170 753 q 113 756 127 753 q 99 770 99 760 q 107 790 99 775 q 127 824 115 805 q 153 865 140 844 q 178 905 167 886 l 218 974 l 502 974 l 836 998 q 840 998 837 998 q 846 996 843 998 q 853 990 850 994 q 856 979 856 986 l 846 943 q 834 912 841 928 q 819 878 827 895 l 789 799 q 779 781 785 787 q 753 774 772 775 q 638 770 701 773 q 492 764 574 767 q 490 749 490 755 q 488 727 490 743 l 485 696 q 481 649 484 674 q 474 587 478 624 q 542 590 509 589 q 602 592 574 591 q 649 594 629 593 q 677 595 669 595 q 689 591 682 595 q 696 575 696 587 q 694 563 696 570 z "},"F":{"ha":817,"x_min":90,"x_max":907,"o":"m 770 557 q 760 528 767 547 q 743 485 752 509 q 722 434 733 461 q 699 382 710 408 q 688 365 694 370 q 662 359 682 359 l 464 355 l 439 54 q 436 42 439 48 q 428 33 433 37 q 412 25 426 32 q 377 10 398 19 q 331 -9 356 1 q 281 -27 306 -19 q 237 -42 257 -36 q 205 -47 216 -47 q 180 -42 191 -47 q 169 -22 169 -37 q 171 53 168 12 q 176 137 173 94 q 184 220 180 179 q 191 295 188 261 l 195 352 q 114 355 138 352 q 90 371 90 358 q 100 394 90 380 q 132 441 114 414 q 166 496 150 469 q 196 543 183 522 q 212 568 208 563 l 224 754 q 202 754 212 754 q 185 753 193 753 q 170 752 177 753 q 156 752 163 752 q 110 756 123 752 q 96 770 96 760 q 104 789 96 774 q 124 824 112 804 q 150 864 136 843 q 174 904 163 886 l 215 973 l 524 984 q 642 988 583 986 q 751 993 701 991 q 837 997 801 995 q 887 999 873 998 q 891 999 888 999 q 897 997 894 998 q 904 991 901 995 q 907 979 907 987 q 897 952 907 975 q 870 884 888 929 l 840 805 q 829 787 836 793 q 804 781 823 781 q 757 779 781 780 q 708 776 733 777 l 502 766 q 496 726 498 739 q 494 705 494 713 q 494 688 494 696 q 493 661 494 680 q 491 640 492 648 q 489 622 490 631 q 487 604 488 614 q 486 581 486 595 q 573 583 530 582 q 653 586 616 585 q 715 588 689 587 q 753 589 742 589 q 765 585 758 589 q 772 570 772 581 q 770 557 772 564 z "},"G":{"ha":992,"x_min":85,"x_max":1027,"o":"m 85 438 q 103 588 85 516 q 154 721 121 659 q 234 834 187 783 q 340 921 281 884 q 466 977 398 957 q 610 996 534 996 q 714 988 669 996 q 793 969 760 981 q 849 943 827 957 q 887 916 872 928 q 886 911 886 916 q 888 873 886 901 q 892 813 890 846 q 896 746 895 780 q 898 686 898 711 q 895 677 898 682 q 882 672 892 672 q 867 674 876 672 q 831 693 852 678 q 780 723 809 707 q 716 752 751 739 q 638 764 680 764 q 537 741 583 764 q 460 676 492 718 q 410 577 428 634 q 393 452 393 519 q 404 342 393 393 q 436 253 414 290 q 491 193 458 215 q 568 172 524 172 q 665 190 610 172 l 680 286 l 551 286 q 576 414 566 368 q 597 485 587 461 q 616 515 606 509 q 640 521 627 521 l 997 521 q 1020 519 1013 521 q 1027 505 1027 517 q 1025 490 1027 498 q 1022 469 1024 481 l 988 355 q 978 322 982 334 q 968 304 974 310 q 951 297 962 298 q 921 296 941 296 q 908 288 910 296 q 905 269 906 279 q 897 210 901 239 q 889 155 892 180 q 881 110 885 130 q 873 82 877 91 q 789 31 827 53 q 714 -6 751 9 q 635 -28 677 -20 q 541 -35 594 -35 q 361 -1 445 -35 q 217 97 278 34 q 120 246 155 159 q 85 438 85 333 z "},"H":{"ha":1010,"x_min":55,"x_max":1013,"o":"m 722 893 q 727 927 722 918 q 745 939 731 936 l 978 996 q 996 998 987 998 q 1009 992 1006 998 q 1013 969 1013 987 l 1004 863 q 997 770 1001 816 q 985 689 993 724 l 972 593 q 962 500 967 550 q 952 389 958 450 l 920 54 q 918 42 920 48 q 909 33 916 36 q 887 24 904 31 q 846 9 869 18 q 795 -10 822 0 q 743 -28 768 -20 q 700 -41 719 -36 q 674 -47 681 -47 q 657 -42 665 -47 q 650 -22 650 -37 q 660 145 650 60 q 677 316 669 231 q 678 334 678 326 q 679 351 677 342 l 431 351 l 403 54 q 400 42 402 48 q 391 33 399 37 q 365 23 389 32 q 309 4 340 15 q 247 -19 277 -7 q 199 -36 216 -30 q 179 -43 191 -39 q 156 -47 168 -47 q 139 -41 146 -47 q 132 -22 132 -36 q 135 53 132 11 q 140 140 137 94 q 149 234 144 186 q 158 329 153 282 l 159 349 q 80 352 104 349 q 55 368 55 355 q 65 391 55 376 q 97 436 79 410 q 131 489 115 463 q 161 536 148 515 q 178 563 174 557 l 194 726 q 195 747 194 728 q 199 792 197 766 q 203 846 201 818 q 208 893 205 873 q 211 926 209 917 q 227 939 214 936 l 458 996 q 476 998 467 998 q 489 992 486 998 q 492 969 492 987 q 485 880 488 920 q 479 806 482 840 q 473 740 476 771 q 463 676 469 709 l 450 571 l 696 574 q 709 727 702 664 q 719 827 717 790 q 722 876 721 861 q 722 893 722 891 z "},"I":{"ha":453,"x_min":94,"x_max":450,"o":"m 94 -22 l 128 442 q 153 785 145 675 q 161 893 161 894 q 163 913 162 905 q 165 927 163 922 q 171 935 168 932 q 181 939 174 938 l 416 996 q 434 998 425 998 q 447 992 444 998 q 450 969 450 987 q 443 890 446 927 q 438 821 440 854 q 435 756 437 787 q 432 695 434 726 q 425 629 428 662 q 419 560 422 595 q 413 485 416 524 q 406 398 410 445 l 376 41 q 374 29 376 35 q 365 20 372 23 q 357 17 364 20 q 337 10 349 14 q 309 1 325 5 q 274 -8 292 -4 q 221 -22 243 -15 q 180 -34 198 -28 q 148 -43 163 -40 q 118 -47 133 -47 q 101 -41 108 -47 q 94 -22 94 -36 z "},"J":{"ha":517,"x_min":37,"x_max":517,"o":"m 228 893 q 229 913 229 905 q 232 927 230 922 q 237 935 233 932 q 248 939 240 938 l 482 996 q 500 998 491 998 q 513 992 509 998 q 517 969 517 986 l 496 751 l 484 621 q 476 533 480 576 q 468 454 472 490 q 462 390 465 418 q 458 345 459 361 l 456 325 q 427 177 451 248 q 363 53 403 106 q 269 -33 323 -1 q 148 -65 214 -65 q 97 -64 114 -65 q 74 -59 81 -62 q 65 -51 66 -56 q 59 -39 63 -46 l 37 126 q 41 132 37 127 q 48 138 45 136 q 96 159 73 147 q 139 188 120 172 q 169 228 157 205 q 182 281 181 250 l 228 893 z "},"K":{"ha":957,"x_min":96,"x_max":983,"o":"m 448 970 q 445 938 446 960 q 441 888 444 916 q 437 827 439 859 q 432 765 435 795 q 428 709 430 734 q 424 669 425 684 l 458 705 l 555 824 q 590 868 572 846 q 622 906 608 889 q 644 935 635 924 q 654 948 653 947 l 956 973 q 962 974 957 974 l 967 974 q 983 966 983 974 q 978 955 983 961 q 965 938 974 948 q 933 901 954 925 q 888 848 913 877 q 838 788 864 819 q 789 731 812 758 q 751 686 767 705 q 731 662 735 667 l 688 621 q 577 518 645 580 q 622 471 598 496 q 668 422 646 446 q 708 380 690 399 q 735 351 726 361 l 945 109 q 954 102 948 104 q 964 97 959 99 q 974 93 970 95 q 977 87 977 90 q 968 74 977 83 q 948 58 963 68 q 913 35 933 47 q 870 10 893 23 q 826 -13 847 -3 q 786 -31 804 -24 q 759 -37 768 -37 q 729 -25 745 -37 q 692 13 713 -12 q 640 78 670 39 q 568 170 610 117 q 521 230 544 201 q 477 286 498 260 q 440 333 457 312 q 413 366 424 353 q 401 356 408 361 q 390 345 395 351 l 366 54 q 364 42 366 48 q 355 33 362 36 l 163 -36 q 143 -43 155 -39 q 119 -47 131 -47 q 102 -41 109 -47 q 96 -22 96 -36 q 104 82 99 18 q 115 228 109 146 q 127 406 121 309 q 141 609 134 503 l 160 895 q 161 915 161 907 q 163 928 162 923 q 168 937 165 934 q 178 941 172 939 l 413 997 q 431 1000 422 1000 q 444 994 441 1000 q 448 970 448 988 z "},"L":{"ha":693,"x_min":57,"x_max":719,"o":"m 454 972 q 452 931 454 956 q 447 881 450 907 q 442 826 445 854 q 436 776 439 799 q 433 736 434 753 q 431 715 431 720 q 426 637 429 673 q 419 566 422 601 q 412 493 416 530 q 404 410 408 455 q 395 309 400 364 q 385 181 390 253 l 665 210 q 696 212 684 212 q 715 207 711 212 q 719 192 719 202 q 718 188 719 191 q 715 179 718 186 q 708 159 713 172 q 696 123 704 146 l 682 79 q 668 40 674 57 q 652 10 661 22 q 628 -10 642 -3 q 591 -20 614 -18 q 553 -22 577 -21 q 496 -24 528 -23 q 428 -26 465 -25 q 352 -30 391 -28 q 275 -32 314 -31 q 202 -33 237 -32 q 138 -34 168 -33 q 90 -35 109 -35 q 65 -33 73 -35 q 57 -24 57 -30 q 62 -2 57 -16 q 74 29 66 12 q 91 65 81 46 q 109 101 100 83 l 127 343 q 138 469 132 405 q 147 592 143 532 l 159 772 q 164 864 163 836 q 165 896 165 893 q 168 916 167 908 q 170 930 168 924 q 175 938 172 935 q 185 942 178 941 l 423 998 q 441 1001 431 1001 q 452 997 449 1001 q 455 980 455 992 q 455 976 455 979 q 454 972 454 974 z "},"M":{"ha":1173,"x_min":43,"x_max":1141,"o":"m 975 998 q 981 999 978 999 q 987 1000 984 1000 q 1006 992 999 1000 q 1017 964 1014 984 q 1021 930 1018 952 q 1028 881 1024 908 q 1036 826 1031 854 q 1044 773 1040 798 q 1050 732 1047 749 q 1053 710 1053 715 q 1080 517 1068 590 q 1096 410 1091 445 l 1141 43 l 1135 22 q 1117 11 1133 18 q 1078 -4 1101 4 q 1027 -19 1055 -12 q 977 -33 1000 -26 q 938 -42 954 -39 q 922 -46 922 -46 q 896 -22 905 -46 q 880 38 886 1 q 870 118 874 75 q 862 201 867 161 q 854 269 858 235 q 847 338 851 302 l 821 536 l 569 75 q 546 52 557 59 q 524 45 534 45 q 501 54 509 45 q 489 75 492 62 q 467 148 476 118 q 450 201 458 177 q 435 249 442 226 q 420 302 429 272 q 401 373 412 332 q 376 474 391 414 l 355 376 l 257 -38 q 240 -46 255 -46 q 201 -41 226 -46 q 150 -27 176 -35 q 97 -11 123 -20 q 57 4 72 -3 q 48 11 54 5 q 43 26 43 16 q 45 38 43 29 q 51 59 47 47 q 57 83 54 71 q 64 104 61 95 q 80 159 73 127 q 94 222 87 190 q 105 283 100 254 q 115 332 110 312 l 198 721 l 223 831 q 232 872 228 852 q 240 908 237 892 q 245 935 243 924 q 248 946 248 945 l 417 998 q 434 997 427 998 q 443 985 441 995 l 578 551 l 763 941 l 975 998 z "},"N":{"ha":935,"x_min":102,"x_max":909,"o":"m 672 909 q 682 941 677 931 q 699 955 686 951 l 875 996 q 892 999 883 999 q 905 993 901 999 q 909 970 909 987 q 903 920 905 954 q 899 846 900 886 q 897 766 897 806 q 896 696 896 726 l 896 659 q 895 567 896 616 q 893 467 895 517 q 891 366 892 416 q 888 273 890 317 l 884 157 q 884 151 884 154 q 884 146 884 149 l 884 136 q 884 116 884 124 q 884 102 884 109 q 883 90 884 96 q 878 80 882 85 q 867 69 874 75 q 848 56 860 64 q 825 42 841 51 q 791 21 810 33 q 751 -3 772 9 q 714 -25 731 -15 q 687 -41 697 -35 q 676 -47 676 -47 l 361 437 l 333 41 q 331 29 332 35 q 321 20 329 23 q 300 11 315 17 q 266 -2 286 5 q 223 -17 245 -9 q 182 -32 201 -25 q 147 -42 162 -38 q 126 -46 132 -46 q 109 -41 116 -46 q 102 -21 102 -35 q 118 164 109 64 q 135 369 127 264 q 150 579 143 474 q 162 778 157 684 q 154 796 162 781 q 135 829 145 811 q 116 863 124 847 q 107 883 107 879 q 112 892 107 888 q 129 903 117 896 l 310 1005 q 316 1006 312 1005 q 322 1006 319 1006 q 334 1005 330 1006 q 343 994 338 1003 l 672 401 l 672 909 z "},"O":{"ha":1096,"x_min":81,"x_max":1098,"o":"m 380 463 q 391 365 380 414 q 426 276 401 315 q 490 212 450 237 q 589 188 530 188 q 669 207 635 191 q 728 248 703 222 q 769 306 753 273 q 795 375 785 339 q 808 450 804 412 q 812 523 812 488 q 799 616 812 571 q 760 696 786 661 q 696 751 734 730 q 607 772 658 772 q 535 758 567 772 q 477 718 503 743 q 434 661 452 693 q 405 594 416 629 q 387 526 393 560 q 380 463 381 492 m 513 -35 q 331 3 411 -35 q 196 105 251 41 q 111 255 140 170 q 81 435 81 340 q 112 632 81 542 q 196 791 142 722 q 325 908 250 861 q 490 979 400 956 q 502 992 498 979 q 510 1021 507 1005 q 518 1049 513 1036 q 532 1062 523 1062 q 768 1016 663 1048 q 947 922 873 983 q 1059 767 1020 861 q 1098 540 1098 674 q 1077 378 1098 454 q 1018 238 1056 302 q 927 123 980 174 q 808 37 873 73 q 668 -17 743 2 q 513 -35 593 -35 z "},"P":{"ha":910,"x_min":92,"x_max":950,"o":"m 950 705 q 939 600 949 646 q 909 517 928 554 q 862 451 890 480 q 800 395 835 421 q 651 322 732 347 q 489 297 570 297 q 462 298 475 297 q 435 300 449 298 l 413 52 l 401 31 q 378 20 400 28 q 324 1 357 12 l 281 -13 q 245 -26 261 -20 q 216 -37 230 -33 q 190 -44 203 -42 q 163 -47 177 -47 q 148 -42 153 -47 q 142 -24 142 -37 l 150 92 q 155 162 152 127 q 161 241 158 197 l 174 404 q 181 503 178 453 q 188 597 184 552 q 194 681 191 642 q 199 749 197 720 q 140 737 162 741 q 106 733 118 733 q 92 745 92 733 q 110 810 102 779 q 125 866 117 838 q 138 915 133 895 q 146 933 142 927 q 158 944 151 940 q 176 950 165 947 q 203 959 187 954 q 240 968 216 963 q 293 978 263 973 q 359 988 323 983 q 430 997 394 993 q 502 1003 467 1000 q 568 1005 537 1005 q 715 991 646 1005 q 836 942 784 977 q 919 850 888 908 q 950 705 950 792 m 454 501 q 457 488 454 494 q 472 482 460 482 q 517 491 491 482 q 569 516 543 499 q 618 558 595 533 q 652 617 640 583 q 660 652 656 631 q 663 701 663 673 q 630 771 663 749 q 544 793 597 793 q 524 792 535 793 q 503 789 513 791 q 486 782 493 786 q 479 772 479 779 l 477 758 q 475 729 477 749 q 470 683 473 709 q 466 629 468 657 q 461 574 463 600 q 457 529 458 549 q 454 501 455 509 z "},"Q":{"ha":1096,"x_min":81,"x_max":1100,"o":"m 513 -35 q 331 3 411 -35 q 196 105 251 41 q 111 255 140 170 q 81 435 81 340 q 112 632 81 542 q 196 791 142 722 q 325 908 250 861 q 490 979 400 956 q 502 990 498 979 q 508 1014 505 1000 q 514 1041 511 1028 q 524 1059 517 1054 q 844 985 763 1027 q 918 943 886 964 q 975 897 949 922 q 1020 839 1000 871 q 1061 761 1040 806 q 1092 643 1082 713 l 1093 635 q 1098 580 1096 609 q 1100 518 1100 551 q 1062 306 1100 401 q 956 140 1023 212 q 989 102 974 120 q 1017 71 1005 85 q 1035 46 1028 56 q 1042 31 1042 35 q 1030 13 1042 23 q 1000 -10 1018 2 q 961 -35 982 -22 q 922 -56 940 -47 q 890 -72 903 -66 q 876 -78 878 -78 q 866 -75 871 -78 q 859 -68 862 -72 l 775 15 q 657 -22 718 -9 q 529 -35 597 -35 l 513 -35 m 384 463 q 393 369 384 416 q 422 282 401 323 q 423 281 423 281 q 488 214 448 239 q 589 188 528 188 l 603 189 l 595 199 q 569 230 579 216 q 559 250 559 243 q 578 273 559 263 l 736 353 q 743 355 740 355 q 755 345 748 355 q 777 321 763 336 q 804 420 795 366 q 812 523 812 474 q 786 653 812 596 q 695 749 760 711 q 649 768 673 762 q 594 773 624 773 q 540 763 564 773 q 495 736 515 752 q 459 700 475 720 q 431 664 443 681 q 409 621 418 646 q 394 567 400 595 q 386 511 389 539 q 384 463 384 484 z "},"R":{"ha":999,"x_min":83,"x_max":1026,"o":"m 446 54 q 444 42 446 48 q 435 33 442 37 q 408 23 432 32 q 352 4 384 15 q 290 -19 321 -7 q 243 -36 259 -30 q 223 -43 235 -39 q 199 -47 211 -47 q 183 -42 190 -47 q 176 -24 176 -37 q 177 30 176 5 q 182 82 179 55 q 188 142 184 109 q 193 220 191 175 q 201 335 197 280 q 209 450 205 391 l 218 566 q 222 624 220 595 q 227 685 224 654 l 234 768 q 230 769 234 769 q 212 767 224 769 q 181 761 199 764 q 142 754 163 758 q 98 747 121 750 q 88 749 93 747 q 83 755 83 751 q 84 759 83 758 l 194 951 q 274 967 231 959 q 367 983 317 976 q 472 994 416 989 q 590 998 528 998 q 727 984 661 997 q 846 942 794 972 q 929 862 898 913 q 961 734 961 812 q 946 656 961 692 q 909 591 932 620 q 859 540 886 562 q 807 503 832 518 q 764 478 783 487 q 738 466 745 469 q 739 463 738 465 q 743 455 740 460 q 753 438 747 449 q 770 410 760 428 q 795 366 781 393 q 831 302 810 339 q 879 220 852 265 q 941 122 906 174 q 968 110 953 112 q 996 107 983 107 q 1017 105 1008 106 q 1026 97 1026 104 q 1015 84 1026 92 q 989 70 1004 77 q 959 56 974 62 q 935 45 943 49 q 901 29 919 37 q 863 13 884 22 q 818 -9 843 3 q 762 -38 793 -21 q 747 -44 754 -43 q 734 -46 740 -46 q 713 -40 722 -46 q 698 -26 704 -35 q 688 -10 692 -18 q 682 4 684 -1 l 479 430 l 446 54 m 488 513 q 559 531 522 513 q 627 576 597 549 q 677 640 658 604 q 697 711 697 675 q 579 809 697 809 q 542 806 557 809 q 515 802 527 803 l 488 513 z "},"S":{"ha":745,"x_min":106,"x_max":732,"o":"m 107 252 q 107 254 107 253 q 106 255 106 254 q 119 267 106 267 q 132 260 125 267 q 214 205 169 226 q 311 185 258 185 q 344 188 326 185 q 378 198 362 191 q 406 217 395 205 q 417 246 417 229 q 408 281 417 266 q 382 308 398 297 q 364 321 376 312 q 336 343 352 331 q 304 369 321 355 q 272 396 287 383 q 244 418 256 408 q 226 434 232 429 q 162 494 186 464 q 127 558 139 525 q 111 627 115 591 q 108 703 108 663 q 136 816 108 762 q 217 909 165 869 q 341 972 269 949 q 503 996 414 996 q 535 993 513 996 q 583 985 557 991 q 636 970 609 980 q 686 946 663 961 q 697 935 693 941 q 703 918 702 930 q 709 810 707 863 q 714 697 711 757 q 709 682 714 686 q 697 678 705 678 q 686 682 690 678 q 645 721 666 702 q 601 754 624 740 q 552 778 578 769 q 495 787 526 787 q 458 784 477 787 q 425 772 440 781 q 401 750 410 764 q 392 714 392 736 q 398 674 392 691 q 427 642 404 657 l 589 532 q 662 468 634 500 q 705 406 690 437 q 727 344 721 374 q 732 285 732 314 q 717 195 732 237 q 674 118 701 153 q 611 54 647 82 q 533 6 574 26 q 447 -25 492 -14 q 360 -35 403 -35 q 295 -34 327 -35 q 232 -29 262 -33 q 173 -15 201 -24 q 119 10 144 -6 l 107 252 z "},"T":{"ha":786,"x_min":58,"x_max":886,"o":"m 243 -22 q 250 74 246 28 q 256 163 253 120 l 280 484 q 287 550 284 520 q 291 609 290 581 q 295 668 293 638 q 298 733 296 697 q 251 734 276 734 q 199 734 227 734 l 68 734 q 59 740 61 734 q 58 750 58 745 l 58 755 l 132 951 l 132 954 q 136 959 132 957 q 156 963 140 962 q 337 974 250 968 q 511 983 425 979 q 683 991 597 987 q 859 998 768 995 q 877 996 867 998 q 886 981 886 994 q 885 979 886 980 q 884 976 884 977 q 864 923 873 948 q 846 873 855 898 q 828 824 838 849 q 808 771 819 799 q 806 765 808 770 q 800 752 804 759 q 789 739 795 745 q 772 732 782 732 q 765 732 768 732 q 758 732 762 732 l 576 732 q 570 659 573 698 q 563 584 567 621 l 513 54 q 511 42 513 48 q 502 33 509 36 l 310 -36 q 290 -43 302 -39 q 267 -47 278 -47 q 250 -42 257 -47 q 243 -24 243 -37 l 243 -22 z "},"U":{"ha":935,"x_min":103,"x_max":937,"o":"m 937 970 q 932 916 935 951 q 924 835 928 880 q 915 741 920 790 q 906 646 910 691 q 898 564 901 601 q 893 509 895 528 q 845 261 879 365 q 755 92 810 158 q 622 -4 699 26 q 442 -35 544 -35 q 311 -10 372 -35 q 203 62 249 16 q 130 173 157 108 q 103 317 103 237 q 105 354 103 327 q 110 419 106 380 q 116 507 113 458 q 124 612 120 556 l 132 724 q 138 827 136 786 q 143 893 140 868 q 150 930 145 918 q 165 945 155 941 l 396 996 q 414 999 405 999 q 429 993 425 999 q 433 970 433 987 l 381 435 q 376 384 380 412 q 373 327 373 356 q 377 288 373 309 q 393 249 382 267 q 425 217 405 230 q 477 205 445 205 q 539 221 515 205 q 577 266 563 238 q 598 328 591 293 q 608 399 604 363 q 616 500 612 442 q 626 623 621 557 l 646 894 q 647 914 647 906 q 649 928 648 922 q 655 936 650 933 q 669 940 659 939 l 900 996 q 918 999 909 999 q 932 993 928 999 q 937 970 937 987 z "},"V":{"ha":885,"x_min":94,"x_max":962,"o":"m 596 60 q 590 43 593 51 q 582 28 587 35 q 570 16 577 21 q 552 7 563 10 q 467 -17 509 -7 q 382 -41 425 -26 q 368 -45 374 -43 q 357 -46 362 -46 q 339 -40 345 -46 q 331 -24 334 -34 l 99 898 q 94 927 94 916 q 103 952 94 942 q 134 968 113 962 q 189 980 155 975 q 271 992 222 985 q 311 997 295 996 q 339 999 328 999 q 365 992 359 999 q 377 972 372 986 l 507 412 l 689 927 q 696 945 693 938 q 708 957 699 951 q 733 967 716 962 q 783 979 751 972 q 867 994 834 989 q 921 999 901 999 q 955 993 947 999 q 962 975 962 987 q 961 965 963 970 q 956 953 958 960 l 596 60 z "},"W":{"ha":1242,"x_min":80,"x_max":1301,"o":"m 1052 920 q 1059 940 1055 932 q 1078 951 1063 948 l 1278 998 q 1281 998 1279 998 q 1284 999 1283 999 q 1298 991 1294 999 q 1301 975 1301 983 q 1301 970 1301 974 q 1300 964 1301 966 l 1019 111 q 1001 66 1008 83 q 987 38 994 49 q 971 19 980 26 q 946 4 962 12 q 908 -13 931 -3 q 850 -40 885 -23 q 831 -46 838 -46 q 814 -38 820 -46 q 806 -20 809 -30 l 690 393 l 545 94 q 529 73 541 86 q 502 45 517 59 q 471 17 486 31 q 446 -4 456 4 q 428 -19 437 -12 q 408 -33 418 -26 q 388 -42 397 -39 q 371 -46 379 -46 q 348 -26 353 -46 l 85 901 q 82 912 83 907 q 80 922 80 918 q 88 951 80 939 q 117 970 96 962 q 171 984 137 979 q 257 992 205 989 q 298 997 281 996 q 326 998 315 998 q 352 992 346 998 q 363 972 358 986 l 503 434 l 618 633 l 572 838 q 568 862 568 854 q 576 887 568 878 q 604 903 585 897 q 653 913 623 909 q 729 924 684 918 q 763 928 749 927 q 787 930 777 930 q 815 924 808 930 q 826 904 823 918 l 918 486 l 1052 920 z "},"X":{"ha":844,"x_min":56,"x_max":880,"o":"m 302 978 q 308 979 308 979 l 314 979 q 336 971 326 979 q 358 945 347 964 q 379 905 366 931 q 410 848 393 878 q 442 786 426 817 q 471 733 458 755 l 583 927 l 852 981 q 858 982 855 982 q 865 983 861 983 q 880 971 880 983 q 878 961 880 967 q 872 947 876 954 l 749 728 l 701 644 q 654 566 679 608 q 608 486 629 524 q 630 447 620 466 q 649 412 641 428 q 664 385 658 397 q 673 368 669 374 l 838 55 l 836 30 q 827 22 836 28 q 803 9 818 16 q 770 -7 789 1 q 731 -22 751 -15 l 683 -38 q 664 -42 674 -38 q 642 -47 653 -47 q 624 -42 632 -47 q 606 -24 615 -38 q 572 28 591 -2 q 531 98 553 59 l 456 230 l 349 49 l 328 28 q 316 22 328 26 q 286 11 304 18 q 244 -3 267 5 q 198 -17 221 -10 q 155 -30 176 -24 q 120 -39 134 -35 q 97 -43 112 -39 q 70 -47 81 -47 q 60 -44 64 -47 q 56 -37 56 -42 q 62 -16 56 -31 q 78 19 68 -1 q 101 63 88 39 q 126 111 113 87 q 151 156 139 134 q 172 194 163 178 q 243 326 205 258 l 320 465 l 84 886 q 77 909 77 897 q 83 919 77 917 l 302 978 z "},"Y":{"ha":756,"x_min":73,"x_max":861,"o":"m 81 903 q 95 910 85 906 q 118 920 104 915 q 146 932 131 926 q 177 945 161 939 l 256 976 q 272 980 264 980 q 284 977 277 980 q 298 966 290 974 l 455 662 l 459 672 l 526 796 q 552 842 539 819 q 574 882 564 864 q 591 910 584 899 q 599 921 597 921 l 831 979 q 845 981 840 981 q 861 967 861 981 q 859 958 860 964 q 855 945 859 952 l 656 576 q 626 520 641 548 q 596 468 610 492 q 571 422 582 443 q 553 389 559 402 l 548 367 l 510 113 q 507 94 508 101 q 503 81 505 86 q 497 73 500 77 q 486 66 493 70 l 294 -35 q 271 -43 283 -40 q 248 -47 259 -47 q 229 -42 237 -47 q 220 -25 220 -37 l 220 -22 q 230 67 223 16 q 245 168 237 119 l 283 419 q 255 480 273 442 q 217 562 237 518 q 175 653 197 606 q 133 742 153 700 q 99 815 114 783 q 76 862 83 847 q 73 883 73 872 q 74 895 73 889 q 81 903 76 901 z "},"Z":{"ha":847,"x_min":70,"x_max":854,"o":"m 139 0 q 123 2 131 0 q 108 8 115 3 q 97 20 101 12 q 92 41 92 28 q 93 43 92 42 q 94 46 94 45 l 447 666 q 432 670 447 668 q 395 672 418 671 q 345 674 372 673 q 293 676 318 675 q 249 676 269 676 q 223 677 230 677 q 155 676 186 677 q 88 675 123 675 q 75 680 81 675 q 70 692 70 685 q 71 693 71 692 q 71 697 71 695 l 159 907 q 177 931 165 922 q 206 945 190 940 q 240 952 222 950 q 276 954 258 954 q 422 950 350 954 q 565 944 494 947 q 708 938 637 941 q 853 935 780 935 l 853 907 l 523 290 q 523 288 523 288 q 522 286 522 288 q 529 278 522 279 q 541 277 536 277 l 675 277 q 754 282 716 277 q 833 287 792 287 q 848 282 841 287 q 854 269 854 277 q 853 263 854 270 l 744 46 q 724 20 739 30 q 689 6 709 11 q 643 0 668 1 q 591 -1 618 -1 q 375 -1 485 -1 q 139 0 266 0 z "},"[":{"ha":545,"x_min":85,"x_max":616,"o":"m 153 897 q 157 922 154 913 q 165 936 161 931 q 174 942 169 941 q 182 944 178 943 l 597 983 q 601 983 597 983 q 607 981 604 983 q 613 975 610 979 q 616 964 616 971 q 607 929 616 960 q 580 852 597 898 l 550 774 q 542 759 547 764 q 524 750 537 753 q 488 745 511 747 q 422 739 464 743 q 418 697 421 730 q 410 616 414 664 q 400 513 406 569 q 388 401 394 456 l 365 120 l 496 121 q 504 114 504 121 q 502 104 504 110 q 496 94 499 99 q 489 75 495 92 q 474 35 482 58 q 456 -11 465 12 q 441 -49 447 -35 q 418 -72 431 -66 q 389 -77 406 -77 q 367 -76 378 -77 q 342 -74 355 -75 q 278 -71 311 -72 q 213 -67 245 -69 q 151 -63 181 -66 q 96 -54 121 -60 q 86 -46 88 -53 q 85 -31 85 -39 q 86 -2 85 -28 q 91 65 88 24 q 98 161 94 107 q 106 273 102 214 q 115 393 111 332 q 124 509 120 454 l 153 897 z "},"\\":{"ha":742,"x_min":111,"x_max":719,"o":"m 456 640 q 532 473 498 549 q 596 329 566 397 q 655 198 627 261 q 715 68 684 134 q 719 56 719 60 q 710 40 719 47 q 691 28 702 33 q 668 19 680 23 q 652 14 657 16 l 584 -15 q 566 -20 574 -20 q 554 -11 556 -20 q 547 10 551 -1 l 112 969 q 111 971 111 970 q 115 977 111 975 q 122 980 118 979 q 194 1004 158 987 q 266 1036 229 1021 l 270 1036 q 284 1028 279 1036 q 298 1001 290 1021 q 377 819 339 908 q 456 640 415 729 z "},"]":{"ha":547,"x_min":20,"x_max":542,"o":"m 470 1 q 465 -24 469 -15 q 458 -38 462 -33 q 449 -44 454 -43 q 441 -46 445 -45 l 258 -52 q 187 -55 222 -54 q 122 -57 152 -56 q 71 -58 92 -58 q 40 -58 49 -58 q 36 -58 39 -58 q 30 -56 33 -58 q 23 -50 26 -54 q 20 -39 20 -46 q 27 -11 20 -37 q 50 61 34 16 l 73 131 q 84 149 77 142 q 110 155 90 155 l 215 159 q 217 182 216 165 q 220 224 218 199 q 224 281 222 250 q 229 349 227 313 q 235 422 232 385 q 241 496 238 460 l 261 778 l 130 777 q 121 780 123 777 q 119 789 119 783 q 120 796 119 792 q 120 804 120 800 q 120 821 120 806 q 121 858 121 837 q 122 900 121 878 q 122 933 122 921 q 133 961 122 955 q 161 967 143 967 q 185 966 172 967 q 212 965 198 965 l 531 965 q 541 957 539 965 q 542 943 542 949 q 541 925 542 939 q 539 893 541 911 q 537 852 538 874 q 533 812 535 831 q 530 763 532 795 q 524 690 528 730 q 517 606 521 650 q 510 521 513 562 q 503 445 506 479 q 499 389 500 410 l 470 1 z "},"^":{"ha":807,"x_min":28,"x_max":768,"o":"m 507 62 q 496 98 503 73 q 481 153 490 122 q 463 216 472 183 q 446 279 454 250 q 432 329 437 308 q 424 358 426 351 l 267 60 q 250 52 264 52 q 199 62 226 58 q 145 69 172 66 q 90 74 117 72 q 37 78 62 76 q 28 87 28 80 q 39 119 28 95 q 92 219 64 167 q 147 324 119 271 q 202 427 175 376 q 252 522 229 478 q 296 602 276 566 q 332 659 317 637 q 335 664 332 661 q 341 667 338 667 l 346 668 q 347 668 347 668 q 349 667 348 667 q 457 658 404 661 q 562 654 511 655 q 572 652 568 654 q 580 646 576 650 q 587 635 584 642 q 594 617 590 628 l 765 145 q 767 133 766 138 q 768 123 768 127 q 753 102 768 107 q 637 83 696 93 q 522 58 579 73 q 513 57 517 57 q 507 62 508 57 z "},"_":{"ha":706,"x_min":14,"x_max":672,"o":"m 113 -39 q 37 -36 60 -39 q 14 -23 14 -33 q 18 -6 14 -18 q 30 18 22 5 q 47 46 37 31 q 67 72 56 60 q 89 92 78 84 q 111 100 100 100 l 349 107 q 383 107 359 107 q 439 108 408 108 q 505 109 471 109 q 568 110 538 110 q 617 111 597 111 q 640 111 637 111 q 656 108 648 111 q 667 101 662 105 q 672 87 672 96 q 670 61 672 79 q 665 26 668 43 l 659 -20 q 653 -31 658 -27 q 626 -35 648 -35 l 519 -35 q 474 -35 498 -35 q 428 -36 451 -35 q 385 -36 406 -36 q 347 -36 363 -36 l 113 -39 z "},"`":{"ha":380,"x_min":17,"x_max":341,"o":"m 117 968 q 90 1015 101 996 q 70 1051 79 1034 q 50 1087 60 1068 q 24 1135 39 1107 q 19 1149 20 1143 q 17 1162 18 1156 q 20 1174 17 1169 q 31 1181 24 1178 q 83 1210 56 1196 q 138 1240 111 1225 q 194 1272 166 1255 q 246 1305 221 1288 q 256 1309 253 1309 q 261 1303 260 1309 l 337 907 q 340 892 338 898 q 341 881 341 886 q 339 869 341 875 q 330 861 337 864 q 304 849 316 854 q 280 838 292 844 q 255 825 268 832 q 225 808 241 819 q 218 806 222 806 q 204 815 212 806 q 185 843 197 824 q 158 893 174 863 q 117 968 141 924 z "},"a":{"ha":846,"x_min":71,"x_max":844,"o":"m 774 136 q 773 131 773 134 q 773 127 773 129 q 779 99 773 110 q 790 80 784 87 q 802 69 797 73 q 808 61 808 64 q 787 43 808 52 l 605 -35 q 600 -35 604 -35 q 589 -26 595 -35 q 579 -2 584 -16 q 569 30 574 13 q 562 60 565 46 q 469 -12 519 11 q 371 -35 420 -35 q 260 -10 314 -35 q 163 61 205 15 q 96 174 121 108 q 71 321 71 239 q 99 498 71 418 q 175 636 127 578 q 287 725 223 694 q 423 757 351 757 q 519 736 474 757 q 606 683 565 715 q 610 715 610 703 q 613 734 611 728 q 623 744 616 741 q 645 747 629 746 q 742 760 694 754 q 844 768 791 766 l 774 136 m 571 392 q 580 465 578 431 q 584 528 583 499 q 561 545 573 536 q 533 561 548 553 q 503 574 519 569 q 469 578 487 578 q 408 555 433 578 q 368 496 383 531 q 346 423 353 462 q 340 355 340 385 q 368 198 340 248 q 446 148 396 148 q 492 159 467 148 q 543 191 517 171 l 571 392 z "},"b":{"ha":895,"x_min":79,"x_max":888,"o":"m 368 221 q 387 194 374 208 q 416 168 399 180 q 452 150 433 157 q 493 142 472 142 q 548 165 522 142 q 593 226 574 188 q 623 314 612 264 q 634 416 634 363 q 628 477 634 448 q 610 528 623 507 q 579 563 598 550 q 532 576 559 576 q 452 550 488 576 q 390 484 415 524 l 368 221 m 115 -33 q 100 -35 106 -35 q 79 -9 79 -35 q 79 -3 79 -6 q 80 5 79 1 l 159 964 q 159 968 159 966 q 159 972 159 970 q 159 977 159 975 q 159 980 159 979 q 163 990 159 986 q 186 998 168 994 l 376 1044 q 396 1050 384 1045 q 420 1055 408 1055 q 436 1050 429 1055 q 444 1035 444 1046 q 444 1032 444 1034 q 444 1029 444 1031 q 440 1000 443 1026 q 434 936 437 973 q 427 855 431 898 q 419 774 422 812 q 413 710 416 736 q 410 680 410 684 q 512 735 459 713 q 618 757 565 757 q 739 728 688 757 q 823 651 789 699 q 872 541 856 604 q 888 412 888 479 q 878 305 888 359 q 849 201 868 251 q 803 109 831 152 q 738 33 774 65 q 657 -17 702 1 q 560 -35 612 -35 q 445 -7 497 -35 q 348 64 393 20 q 346 39 347 48 q 341 24 345 29 q 330 16 338 19 q 308 9 323 13 q 282 3 300 7 q 237 -7 263 -1 q 179 -20 211 -13 q 115 -33 148 -26 z "},"c":{"ha":714,"x_min":68,"x_max":736,"o":"m 68 331 q 101 497 68 420 q 192 633 134 575 q 329 724 250 690 q 500 757 408 757 q 608 747 564 757 q 682 724 653 736 q 723 701 710 711 q 736 690 736 690 q 733 667 736 686 q 727 624 730 648 q 720 573 723 599 q 717 528 717 547 q 715 520 717 524 q 704 516 713 516 q 680 522 696 516 q 642 534 665 528 q 590 547 619 541 q 524 553 560 553 q 444 537 479 553 q 382 493 408 521 q 342 426 356 465 q 328 342 328 387 q 343 263 328 296 q 382 209 357 230 q 438 179 406 189 q 505 170 470 170 q 587 181 546 170 q 665 212 629 192 q 671 213 667 213 q 676 210 674 213 q 677 197 677 206 q 677 144 677 175 q 677 85 677 113 q 676 37 677 57 q 675 18 675 18 q 622 -9 650 1 q 563 -25 593 -19 q 503 -33 533 -31 q 444 -35 472 -35 q 296 -9 364 -35 q 177 66 227 18 q 97 181 126 114 q 68 331 68 249 z "},"d":{"ha":901,"x_min":71,"x_max":920,"o":"m 595 386 q 599 431 597 408 q 605 481 602 455 q 561 547 589 522 q 490 572 532 572 q 418 548 448 572 q 372 489 389 524 q 346 415 354 454 q 338 346 338 376 q 343 273 338 309 q 357 208 347 237 q 383 161 367 179 q 424 143 399 143 q 521 170 484 145 q 581 231 558 195 l 595 386 m 831 68 q 831 65 831 67 q 831 62 831 64 q 831 57 831 59 q 831 53 831 55 q 827 43 831 47 q 804 35 823 39 l 623 -24 q 603 -31 615 -27 q 579 -35 591 -35 q 563 -31 570 -35 q 555 -13 555 -26 q 556 7 555 -1 q 556 21 556 14 q 558 35 557 27 q 560 54 559 42 q 455 -11 509 14 q 342 -35 401 -35 q 226 -4 277 -35 q 141 78 176 26 q 89 197 106 130 q 71 336 71 264 q 101 508 71 431 q 185 641 132 586 q 309 727 238 696 q 458 757 379 757 q 540 734 501 757 q 614 677 579 712 q 618 749 616 710 q 624 828 621 788 q 629 908 627 869 q 634 980 632 947 q 638 990 634 986 q 661 998 643 994 l 852 1044 q 871 1050 859 1045 q 895 1055 884 1055 q 912 1050 904 1055 q 920 1035 920 1046 q 919 1029 920 1034 q 919 1023 919 1025 l 831 68 z "},"e":{"ha":774,"x_min":68,"x_max":771,"o":"m 486 757 q 603 733 550 757 q 693 670 655 709 q 751 585 730 632 q 771 490 771 537 q 745 405 771 448 q 673 329 720 363 q 562 274 627 295 q 418 253 496 253 q 333 261 378 253 q 350 211 336 232 q 386 176 364 190 q 435 156 408 163 q 492 150 463 150 q 554 156 524 150 q 612 171 585 161 q 666 192 640 180 q 715 215 692 203 q 725 217 721 216 q 734 218 730 218 q 733 208 734 218 q 733 177 733 197 q 733 130 733 157 q 732 68 732 102 q 734 61 734 64 q 735 56 735 58 q 720 38 735 47 q 681 18 705 28 q 626 -1 657 8 q 564 -19 595 -11 q 502 -31 532 -26 q 450 -35 472 -35 q 308 -10 376 -35 q 185 63 239 16 q 100 178 132 111 q 68 331 68 246 q 99 497 68 420 q 185 633 130 575 q 317 724 240 690 q 486 757 393 757 m 477 576 q 426 565 450 576 q 384 531 403 553 q 350 478 364 509 q 327 410 336 447 q 443 435 397 422 q 517 463 489 449 q 556 491 545 477 q 568 517 568 505 q 558 541 568 530 q 536 559 549 551 q 506 572 522 568 q 477 576 490 576 z "},"f":{"ha":617,"x_min":47,"x_max":783,"o":"m 157 -10 q 160 22 158 -3 q 166 85 163 47 q 174 172 170 123 q 184 278 178 221 q 195 396 189 334 q 207 521 201 458 l 117 521 q 64 524 80 521 q 47 536 47 527 q 54 551 47 539 q 72 579 61 563 q 94 615 82 596 q 118 651 106 634 q 137 680 129 667 q 147 694 145 692 l 230 694 l 243 802 q 278 946 253 888 q 339 1040 302 1004 q 424 1092 376 1076 q 526 1107 471 1107 q 638 1094 580 1107 q 757 1058 697 1081 q 776 1049 770 1053 q 783 1039 783 1045 q 778 1025 783 1034 q 746 957 756 983 q 729 916 735 931 q 719 896 723 901 q 707 891 715 891 q 698 893 703 891 q 688 898 694 895 q 640 914 664 907 q 594 921 616 921 q 542 902 564 921 q 507 830 519 883 q 494 764 499 800 q 486 694 490 729 l 663 694 q 674 691 669 694 q 679 678 679 687 q 671 654 679 675 q 648 599 663 633 l 623 544 q 613 529 618 534 q 593 523 608 524 l 475 523 q 461 383 468 452 q 448 253 454 314 q 437 145 442 193 q 430 73 433 98 q 429 65 429 71 q 430 60 429 62 q 430 57 430 58 q 426 47 430 51 q 403 39 421 43 l 224 -24 q 205 -31 217 -27 q 181 -35 193 -35 q 163 -30 170 -35 q 157 -10 157 -24 z "},"g":{"ha":878,"x_min":69,"x_max":871,"o":"m 576 484 q 557 515 569 499 q 530 545 545 532 q 496 567 514 559 q 457 576 477 576 q 405 553 429 576 q 362 491 380 530 q 333 404 344 453 q 323 302 323 355 q 329 240 323 269 q 347 190 334 212 q 378 155 359 168 q 425 142 397 142 q 499 168 465 142 q 557 234 533 193 q 559 268 557 248 q 562 316 560 288 q 567 382 564 344 q 575 473 570 420 l 576 484 m 800 74 q 770 -52 793 7 q 710 -158 746 -110 q 627 -245 673 -207 q 529 -310 581 -283 q 422 -350 477 -336 q 313 -364 367 -364 q 255 -362 285 -364 q 197 -354 225 -360 q 142 -338 168 -349 q 96 -311 117 -328 l 96 -311 q 101 -287 96 -307 q 114 -239 106 -267 q 129 -182 121 -212 q 142 -132 136 -153 q 147 -119 144 -123 q 153 -116 150 -116 q 158 -117 157 -116 q 195 -138 178 -130 q 232 -152 212 -146 q 274 -159 251 -157 q 328 -161 297 -161 q 412 -142 375 -161 q 475 -95 448 -124 q 517 -31 501 -66 q 539 38 533 4 q 440 -15 490 5 q 339 -35 390 -35 q 218 -7 269 -35 q 134 68 168 21 q 85 177 101 116 q 69 306 69 239 q 79 413 69 359 q 108 517 89 467 q 156 611 127 567 q 222 687 184 654 q 304 738 259 720 q 404 757 350 757 q 512 731 462 757 q 602 667 562 705 q 604 687 604 680 q 608 698 605 694 q 617 704 610 702 q 635 709 623 706 q 663 714 643 710 q 709 725 682 719 q 769 738 736 731 q 835 752 802 745 q 850 754 843 754 q 871 727 871 754 q 871 721 871 724 q 870 714 871 718 l 800 74 z "},"h":{"ha":901,"x_min":81,"x_max":878,"o":"m 159 986 q 158 994 159 990 q 158 1000 158 997 q 163 1011 158 1006 q 186 1020 168 1015 l 376 1065 q 396 1072 384 1067 q 420 1076 408 1076 q 444 1055 444 1076 q 441 1027 444 1053 q 436 961 439 1000 q 429 875 433 922 q 420 787 425 829 q 413 713 416 745 q 408 672 410 682 q 474 705 439 690 q 544 732 509 721 q 613 750 578 744 q 681 757 648 757 q 758 745 722 757 q 821 706 794 733 q 863 634 848 678 q 878 525 878 589 q 878 491 878 509 q 875 456 877 474 l 846 178 q 842 119 842 150 q 841 56 841 88 q 841 46 841 50 q 842 40 842 43 q 837 31 842 34 q 814 22 831 27 l 648 -24 q 628 -31 640 -26 q 604 -35 616 -35 q 587 -30 593 -35 q 581 -10 581 -25 q 588 72 585 41 q 593 122 591 103 q 596 150 595 140 q 598 168 597 160 q 600 185 599 176 q 603 214 602 195 q 608 264 605 233 q 616 347 611 296 q 622 400 618 374 q 625 450 625 427 q 622 502 625 478 q 611 542 618 525 q 589 568 603 558 q 555 577 576 577 q 512 570 539 577 q 459 548 486 564 q 411 507 432 532 q 388 444 391 481 q 379 359 382 392 q 374 304 376 326 q 371 269 372 282 q 370 245 370 256 q 368 229 369 242 q 364 197 366 216 q 360 158 362 179 q 356 119 358 138 q 354 88 355 101 q 353 71 353 75 q 353 62 353 66 q 353 55 353 58 q 348 46 353 50 q 326 37 343 42 l 149 -24 q 129 -31 141 -27 q 105 -35 117 -35 q 88 -30 95 -35 q 81 -10 81 -24 l 159 986 z "},"i":{"ha":415,"x_min":73,"x_max":439,"o":"m 99 288 q 117 471 108 380 q 132 658 125 562 q 137 689 134 680 q 152 700 140 697 q 273 724 210 711 q 395 756 336 736 q 401 757 397 757 q 408 751 408 757 l 347 91 q 342 60 345 68 q 328 49 340 52 q 211 9 270 31 q 86 -35 152 -12 q 80 -35 84 -35 q 73 -28 73 -35 q 74 -10 73 -28 q 78 35 75 7 q 83 98 80 63 q 89 167 85 132 q 94 233 92 201 q 99 288 97 265 m 150 829 q 153 873 152 858 q 155 897 154 889 q 155 907 155 905 q 156 910 155 909 q 156 914 156 911 q 157 927 157 917 q 159 956 158 937 q 163 1008 161 975 q 168 1039 165 1030 q 183 1050 171 1047 q 304 1074 241 1061 q 426 1106 367 1086 q 432 1107 428 1107 q 437 1101 434 1103 l 439 1100 l 425 914 q 419 883 422 892 q 405 872 416 874 q 288 848 347 861 q 163 823 229 836 q 157 822 161 822 q 150 829 150 822 z "},"j":{"ha":420,"x_min":-193,"x_max":441,"o":"m 152 829 q 155 873 154 858 q 157 897 156 889 q 157 907 157 905 q 158 910 157 909 q 158 914 158 911 q 159 927 159 917 q 161 956 160 937 q 165 1008 163 975 q 170 1039 167 1030 q 185 1050 173 1047 q 306 1074 243 1061 q 428 1106 369 1086 q 434 1107 430 1107 q 439 1101 436 1103 l 441 1100 l 427 914 q 421 883 425 892 q 407 872 418 874 q 290 848 349 861 q 165 823 231 836 q 159 822 163 822 q 152 829 152 822 m 77 60 q 90 185 83 115 q 105 335 98 256 q 121 496 113 414 q 134 658 128 579 q 139 689 136 680 q 154 700 142 697 q 275 724 212 711 q 397 756 338 736 q 403 757 399 757 q 410 751 410 757 l 360 196 l 347 88 q 257 -146 329 -69 q 47 -223 184 -223 q 11 -219 34 -223 q -39 -209 -12 -216 q -93 -195 -65 -203 q -142 -178 -120 -186 q -178 -162 -164 -170 q -193 -149 -193 -155 q -188 -134 -193 -143 q -157 -69 -168 -95 q -140 -28 -146 -43 q -131 -7 -134 -13 q -119 -1 -127 -1 q -98 -7 -113 -1 q -51 -24 -74 -17 q -4 -31 -27 -31 q 23 -26 9 -31 q 47 -12 36 -22 q 65 16 58 -1 q 77 60 73 34 z "},"k":{"ha":853,"x_min":77,"x_max":881,"o":"m 447 1029 l 422 794 q 413 698 418 747 q 403 604 408 649 q 394 522 398 559 q 387 459 390 484 l 434 511 l 510 600 q 538 632 524 616 q 562 661 551 648 q 580 682 573 673 q 588 692 587 690 l 861 711 q 865 711 863 711 q 869 711 867 711 q 881 705 881 711 q 867 684 881 701 l 654 447 q 621 411 640 431 q 578 365 602 390 l 677 247 l 848 63 q 854 58 850 60 q 862 55 858 56 q 868 52 865 54 q 871 47 871 50 q 870 43 871 44 q 864 37 869 41 q 843 24 858 33 q 807 4 827 15 q 764 -18 787 -7 q 719 -38 741 -29 q 679 -53 697 -47 q 650 -59 661 -59 q 634 -55 642 -59 q 617 -40 627 -51 q 585 -1 604 -25 q 543 52 566 23 q 497 112 521 81 q 453 171 474 142 q 414 221 431 199 q 387 258 397 244 q 380 253 384 254 q 374 248 377 251 q 369 242 371 245 q 367 231 367 238 q 366 216 367 229 q 362 186 364 203 q 359 149 361 169 q 355 112 357 130 q 352 82 353 95 q 351 67 351 70 q 351 59 351 62 q 351 54 351 56 q 346 42 351 46 q 321 33 341 39 l 144 -24 q 124 -31 136 -27 q 100 -35 112 -35 q 84 -31 91 -35 q 77 -13 77 -26 l 162 964 q 161 971 162 968 q 161 977 161 974 q 166 988 161 983 q 189 998 171 994 l 380 1044 q 399 1050 387 1045 q 423 1055 412 1055 q 440 1050 432 1055 q 448 1035 448 1046 q 447 1032 448 1034 q 447 1029 447 1031 z "},"l":{"ha":422,"x_min":79,"x_max":439,"o":"m 128 574 q 141 758 136 667 q 153 944 146 848 q 157 975 154 966 q 172 986 160 983 q 299 1009 235 998 q 426 1041 362 1021 q 432 1042 428 1042 q 439 1035 439 1042 l 351 66 l 351 55 q 347 45 351 49 q 324 37 342 41 l 146 -28 q 127 -36 139 -32 q 103 -39 115 -39 q 86 -35 94 -39 q 79 -18 79 -30 l 79 -14 q 90 120 85 54 q 101 255 95 185 q 113 403 106 325 q 128 574 120 481 z "},"m":{"ha":1322,"x_min":73,"x_max":1301,"o":"m 1068 -24 q 1048 -31 1061 -26 q 1025 -35 1036 -35 q 1008 -31 1015 -35 q 1001 -14 1001 -26 l 1001 -10 q 1009 70 1006 39 q 1015 120 1013 101 q 1018 149 1017 139 q 1021 167 1019 159 q 1023 186 1022 176 q 1026 215 1024 196 q 1031 264 1028 233 q 1039 345 1034 295 q 1045 399 1042 372 q 1048 448 1048 426 q 1045 500 1048 477 q 1034 540 1042 524 q 1013 566 1026 557 q 978 576 999 576 q 944 570 965 576 q 903 551 924 565 q 865 514 882 537 q 843 457 848 492 l 843 454 q 828 320 835 377 q 817 223 822 264 q 809 155 812 182 q 804 110 806 128 q 801 79 802 91 q 800 56 800 66 q 801 46 800 50 q 801 40 801 43 q 796 31 801 35 q 773 22 791 27 l 614 -24 q 594 -31 606 -26 q 570 -35 582 -35 q 554 -31 561 -35 q 547 -14 547 -26 l 547 -10 q 554 70 551 39 q 560 120 557 101 q 564 149 562 139 q 566 167 565 159 q 568 186 567 176 q 571 215 570 196 q 576 264 573 233 q 584 345 579 295 q 590 399 587 372 q 593 448 593 426 q 590 500 593 477 q 580 540 587 524 q 561 566 573 557 q 530 576 549 576 q 493 569 516 576 q 446 547 469 562 q 405 506 422 531 q 384 443 387 480 q 375 360 378 393 q 370 308 372 328 q 367 274 368 287 q 365 251 366 262 q 363 236 364 248 q 360 206 361 223 q 356 169 358 189 q 353 131 355 149 q 351 101 352 114 q 350 86 350 89 l 350 74 q 349 62 350 67 q 345 54 349 58 q 335 46 342 50 q 317 39 329 43 l 140 -24 q 120 -31 132 -27 q 96 -35 108 -35 q 80 -31 87 -35 q 73 -14 73 -26 l 134 677 q 139 708 136 700 q 154 720 142 717 q 280 744 216 732 q 406 777 345 757 q 413 775 412 777 q 414 770 414 773 l 405 671 q 461 699 430 684 q 527 727 492 714 q 596 748 561 740 q 666 757 632 757 q 752 735 713 757 q 818 665 792 714 q 883 701 848 684 q 952 730 917 718 q 1024 749 988 743 q 1094 756 1060 756 q 1175 744 1137 756 q 1241 704 1213 732 q 1285 632 1269 676 q 1301 524 1301 587 q 1301 490 1301 507 q 1298 454 1300 473 l 1267 164 q 1263 112 1263 136 q 1262 56 1262 87 q 1262 46 1262 50 q 1263 40 1263 43 q 1258 31 1263 34 q 1235 22 1253 27 l 1068 -24 z "},"n":{"ha":897,"x_min":73,"x_max":876,"o":"m 644 -24 q 625 -31 637 -26 q 601 -35 612 -35 q 584 -31 591 -35 q 577 -14 577 -26 l 577 -10 q 584 52 581 26 q 589 98 587 77 q 593 139 591 119 q 597 188 595 160 q 604 253 600 215 q 613 347 608 290 q 619 417 616 381 q 622 484 622 453 q 619 521 622 504 q 608 551 616 538 q 587 570 600 564 q 552 577 573 577 q 509 570 536 577 q 454 548 481 564 q 406 507 427 532 q 382 444 385 481 q 375 358 378 394 q 369 298 372 323 q 365 258 366 273 q 362 231 363 242 q 360 216 361 229 q 357 187 359 204 q 354 151 355 170 q 350 115 352 132 q 348 86 349 98 q 347 71 347 74 q 347 62 347 66 q 347 55 347 58 q 342 46 347 50 q 319 37 337 42 l 140 -24 q 120 -31 132 -27 q 96 -35 108 -35 q 80 -31 87 -35 q 73 -14 73 -26 l 134 679 q 139 710 136 701 q 155 721 142 718 q 281 746 216 733 q 408 778 347 758 q 415 776 414 778 q 416 771 416 774 q 415 767 416 770 q 413 755 415 764 q 409 726 412 745 q 400 672 406 707 q 488 716 447 699 q 565 742 529 732 q 633 754 602 751 q 693 757 665 757 q 832 699 789 757 q 876 525 876 641 q 875 491 876 509 q 872 456 874 474 l 841 164 q 837 112 838 136 q 836 56 836 87 q 837 46 836 50 q 837 40 837 43 q 832 31 837 34 q 809 22 827 27 l 644 -24 z "},"o":{"ha":890,"x_min":68,"x_max":885,"o":"m 454 -35 q 287 -4 359 -35 q 165 79 214 27 q 92 198 117 131 q 68 338 68 266 q 92 476 68 411 q 158 594 115 542 q 260 681 201 646 q 392 728 320 715 q 403 732 403 728 q 401 746 403 740 q 399 758 399 753 q 402 768 399 765 q 408 770 405 770 q 629 741 538 770 q 777 661 720 711 q 859 541 833 610 q 885 392 885 471 q 851 212 885 291 q 759 77 817 132 q 622 -6 700 22 q 454 -35 543 -35 m 329 346 q 337 273 329 309 q 362 208 345 237 q 410 161 380 179 q 482 143 439 143 q 537 157 513 144 q 577 190 560 170 q 605 235 594 210 q 623 287 616 260 q 632 339 629 313 q 635 386 635 365 q 624 455 635 421 q 593 515 614 489 q 543 556 573 541 q 473 572 513 572 q 405 548 433 572 q 360 489 377 524 q 336 415 344 454 q 329 346 329 376 z "},"p":{"ha":899,"x_min":50,"x_max":895,"o":"m 385 473 q 377 368 380 408 q 372 301 374 327 q 369 261 370 276 q 367 234 368 247 q 413 168 382 193 q 486 142 444 142 q 552 166 524 142 q 598 227 580 189 q 627 310 617 264 q 636 401 636 356 q 630 471 636 439 q 610 526 623 503 q 578 563 597 549 q 532 576 559 576 q 489 567 511 576 q 448 546 468 559 q 413 516 429 532 q 387 484 397 499 l 385 473 m 398 672 q 517 734 455 711 q 648 757 580 757 q 758 731 711 757 q 835 660 804 705 q 880 558 865 616 q 895 437 895 500 q 884 326 895 382 q 852 217 873 270 q 800 119 831 165 q 728 38 768 73 q 638 -16 688 4 q 531 -35 589 -35 q 434 -15 480 -35 q 347 38 387 5 q 345 13 347 35 q 340 -39 343 -8 q 334 -104 338 -69 q 328 -170 331 -139 q 324 -221 326 -200 q 322 -246 322 -243 q 322 -255 322 -252 q 323 -262 323 -259 q 318 -272 323 -268 q 295 -280 313 -275 l 117 -326 q 97 -332 109 -328 q 73 -336 85 -336 q 57 -332 64 -336 q 50 -314 50 -327 l 132 679 q 137 710 134 701 q 153 721 140 718 q 279 746 214 733 q 406 778 345 758 q 413 776 412 778 q 414 771 414 774 q 413 767 414 770 q 411 755 413 764 q 407 726 410 745 q 398 672 404 707 z "},"q":{"ha":884,"x_min":70,"x_max":871,"o":"m 576 487 q 558 519 570 503 q 530 549 546 535 q 496 571 515 562 q 458 579 478 579 q 406 556 430 579 q 363 495 381 533 q 334 407 345 456 q 323 305 323 358 q 329 244 323 273 q 347 193 335 215 q 379 159 359 172 q 425 146 398 146 q 500 171 466 146 q 557 237 534 197 q 559 271 558 252 q 563 319 561 291 q 568 386 565 347 q 576 477 571 424 l 576 487 m 836 755 q 850 758 844 758 q 871 731 871 758 q 871 725 871 728 q 871 718 871 722 l 783 -222 q 783 -230 783 -224 q 783 -235 783 -233 q 783 -238 783 -237 q 779 -248 783 -244 q 756 -256 774 -252 l 576 -322 q 557 -329 569 -324 q 533 -333 545 -333 q 516 -329 524 -333 q 509 -314 509 -325 q 509 -308 509 -310 q 511 -289 510 -305 q 515 -249 513 -273 q 519 -195 517 -225 q 525 -133 522 -165 q 530 -72 527 -102 q 534 -17 532 -41 q 538 23 536 7 q 540 41 539 39 q 441 -13 491 9 q 340 -35 391 -35 q 219 -7 270 -35 q 135 70 168 22 q 86 179 102 117 q 70 309 70 241 q 80 416 70 362 q 109 520 90 470 q 157 613 128 570 q 222 688 185 656 q 305 739 260 720 q 404 757 351 757 q 513 733 464 757 q 603 671 562 709 q 605 690 604 683 q 608 701 606 697 q 617 707 611 705 q 636 712 624 709 q 663 718 644 713 q 710 728 683 722 q 770 741 737 734 q 836 755 802 748 z "},"r":{"ha":613,"x_min":73,"x_max":678,"o":"m 636 552 q 604 555 622 553 q 567 557 587 557 q 506 552 537 557 q 449 532 475 547 q 404 491 422 517 q 379 423 385 465 q 371 341 374 373 q 367 288 368 309 q 365 255 366 267 q 363 231 363 242 q 362 216 363 229 q 359 188 361 204 q 355 153 357 172 q 351 117 353 134 q 348 89 349 101 q 347 74 347 77 q 348 65 347 68 q 348 58 348 61 q 343 48 348 52 q 320 40 338 45 l 140 -24 q 121 -31 133 -27 q 97 -35 109 -35 q 80 -31 87 -35 q 73 -14 73 -26 l 132 658 q 137 689 134 680 q 152 700 140 697 q 279 725 214 712 q 407 757 345 737 q 413 755 412 757 q 414 750 414 753 q 414 746 414 749 q 412 734 414 743 q 407 705 410 724 q 399 651 404 686 q 468 696 430 675 q 543 731 505 716 q 616 754 581 745 q 678 762 652 762 l 636 552 z "},"s":{"ha":584,"x_min":84,"x_max":568,"o":"m 85 187 q 84 188 85 188 q 84 189 84 189 q 94 198 84 198 q 104 193 100 198 q 166 151 132 168 q 242 135 201 135 q 267 137 253 135 q 294 145 281 140 q 316 160 307 151 q 324 182 324 169 q 317 210 324 197 q 297 231 309 222 q 273 247 290 235 q 237 273 256 259 q 200 298 218 286 q 176 316 183 311 q 128 363 146 339 q 100 412 110 387 q 88 465 91 437 q 85 524 85 493 q 111 614 85 572 q 177 688 136 656 q 270 738 218 720 q 376 757 322 757 q 465 743 421 757 q 545 697 508 730 q 550 613 549 654 q 554 526 551 572 q 550 514 554 517 q 541 511 546 511 q 532 515 536 511 q 500 544 517 530 q 466 570 484 559 q 428 588 448 581 q 385 595 408 595 q 356 593 370 595 q 330 584 342 591 q 312 567 319 578 q 304 539 304 556 q 309 505 304 519 q 332 477 314 491 l 458 392 q 514 346 492 368 q 547 300 535 323 q 564 256 559 278 q 568 212 568 234 q 540 105 568 151 q 467 27 512 58 q 366 -19 422 -3 q 252 -35 309 -35 q 169 -26 209 -35 q 94 2 128 -17 l 85 187 z "},"t":{"ha":633,"x_min":51,"x_max":659,"o":"m 447 523 q 429 381 437 452 q 418 248 420 310 q 422 204 418 222 q 434 176 427 186 q 453 162 442 166 q 477 157 464 157 q 525 164 499 157 q 576 180 551 170 q 590 185 585 184 q 600 187 596 187 q 609 181 607 187 q 614 160 612 175 q 621 119 616 144 q 637 54 626 93 q 638 48 637 50 q 638 43 638 45 q 631 30 638 34 q 608 20 624 26 q 549 1 580 11 q 488 -17 518 -9 q 430 -30 458 -25 q 381 -35 402 -35 q 216 21 268 -35 q 164 193 164 77 q 165 233 164 212 q 169 276 167 254 q 181 405 176 344 q 191 521 186 465 l 120 521 q 67 524 83 521 q 51 536 51 527 q 58 551 51 539 q 75 579 64 563 q 98 615 85 596 q 121 651 110 634 q 140 680 132 667 q 151 694 149 692 l 199 694 q 209 781 205 746 q 215 839 212 816 q 219 874 217 862 q 223 893 221 887 q 230 901 226 899 q 239 904 233 903 q 298 915 270 910 q 355 926 327 920 q 413 938 384 931 q 475 955 443 945 q 477 955 477 955 q 480 956 478 956 q 488 950 488 956 l 488 949 q 478 845 485 911 q 462 694 471 779 l 644 694 q 654 691 649 694 q 659 678 659 687 q 651 654 659 675 q 628 599 643 633 l 604 544 q 594 529 599 534 q 573 523 589 524 l 447 523 z "},"u":{"ha":868,"x_min":79,"x_max":862,"o":"m 798 84 q 793 53 796 62 q 778 42 789 45 q 657 9 720 26 q 536 -35 595 -7 q 530 -35 534 -35 q 523 -33 524 -35 q 522 -26 522 -30 q 523 -22 522 -25 q 524 -9 523 -18 q 528 16 526 0 q 534 60 530 33 q 400 -13 458 10 q 296 -35 341 -35 q 131 19 182 -35 q 79 182 79 74 q 79 223 79 202 q 83 265 80 243 q 96 402 91 345 q 105 500 102 460 q 111 565 109 540 q 115 608 113 591 q 118 636 117 625 q 120 658 119 647 q 125 688 123 680 q 140 700 127 697 q 201 711 172 706 q 258 722 230 716 q 315 734 286 728 q 377 751 345 741 q 380 751 378 751 q 382 751 381 751 q 391 746 391 751 l 391 745 q 386 701 388 722 q 382 660 384 681 q 377 614 380 638 q 372 557 375 589 q 363 483 368 525 q 352 385 359 441 q 344 304 348 345 q 340 229 340 264 q 342 194 340 210 q 352 167 345 178 q 371 150 359 156 q 401 144 382 144 q 439 150 415 144 q 488 173 464 157 q 531 215 513 189 q 553 281 550 241 q 561 393 557 348 q 568 469 565 438 q 572 521 570 500 q 576 561 574 542 q 579 603 578 581 q 582 658 581 625 q 587 689 584 680 q 602 700 590 697 q 728 725 664 712 q 854 757 793 737 q 861 755 860 757 q 862 750 862 753 l 798 84 z "},"v":{"ha":760,"x_min":69,"x_max":819,"o":"m 580 750 q 590 757 583 757 q 593 756 591 757 q 595 756 594 756 q 700 724 646 736 q 806 700 753 711 q 819 685 819 697 q 811 658 819 676 l 532 64 q 522 44 526 52 q 514 32 518 37 q 505 25 510 27 q 494 22 500 23 q 389 -2 442 12 q 279 -35 336 -15 q 277 -35 278 -35 q 276 -35 277 -35 l 271 -35 q 266 -33 268 -35 q 263 -28 264 -31 q 240 47 253 1 q 211 150 227 93 q 178 271 195 207 q 144 402 161 336 q 109 534 126 469 q 75 658 92 600 q 69 688 69 679 q 80 700 69 697 q 190 724 133 711 q 298 756 247 736 q 304 757 300 757 q 313 750 313 757 l 403 294 q 414 324 406 302 q 434 375 422 345 q 459 441 446 405 q 488 514 473 477 q 517 588 503 551 q 544 657 531 625 q 566 713 556 689 q 580 750 575 738 z "},"w":{"ha":1147,"x_min":77,"x_max":1185,"o":"m 503 690 q 515 700 505 698 q 627 725 570 712 q 738 757 685 738 q 747 750 747 757 l 817 288 l 946 750 q 956 757 949 757 q 959 756 958 757 q 962 756 960 756 q 1066 724 1013 736 q 1173 700 1120 711 q 1185 685 1185 697 q 1177 658 1185 676 l 959 53 q 949 34 954 41 q 941 21 945 26 q 932 15 937 17 q 921 11 928 12 q 817 -13 869 0 q 707 -45 764 -26 q 705 -46 705 -45 q 703 -46 704 -46 l 699 -46 q 693 -44 695 -46 q 690 -39 691 -41 q 673 33 683 -10 q 653 130 664 77 q 630 243 642 182 q 605 367 618 303 l 519 64 q 512 44 515 52 q 503 32 508 36 q 493 25 498 27 q 481 22 488 23 q 376 -2 429 12 q 267 -35 323 -15 q 264 -35 265 -35 q 263 -35 264 -35 l 258 -35 q 253 -33 255 -35 q 250 -28 250 -31 q 229 47 241 1 q 202 150 216 93 q 174 271 189 206 q 143 401 159 335 q 112 533 127 468 q 83 658 97 599 q 77 676 78 669 q 77 688 77 683 q 87 700 77 697 q 197 724 140 711 q 305 756 254 736 q 311 757 307 757 q 321 750 320 757 l 397 281 l 503 690 z "},"x":{"ha":726,"x_min":15,"x_max":773,"o":"m 475 -39 q 465 -21 474 -39 q 441 23 456 -4 q 409 85 427 51 q 372 153 391 119 q 321 85 347 119 q 277 23 296 51 q 244 -21 257 -4 q 231 -39 231 -39 q 218 -46 226 -46 q 212 -45 214 -46 q 168 -27 192 -35 q 120 -13 144 -20 q 70 -1 95 -7 q 22 11 45 5 q 15 18 15 12 q 20 30 15 22 q 37 53 26 37 l 262 360 q 181 508 221 435 q 100 658 142 581 q 88 679 92 671 q 84 692 84 686 q 93 700 84 698 q 197 724 144 711 q 296 756 250 736 q 302 757 298 757 q 313 750 311 757 l 415 566 l 557 750 q 570 757 562 757 q 575 756 574 757 q 668 724 616 736 q 766 700 719 711 q 773 694 773 698 q 768 681 773 688 q 751 658 762 673 q 636 508 692 581 q 526 360 581 436 l 688 53 q 699 33 695 40 q 703 20 703 25 q 695 11 703 13 q 591 -13 644 -1 q 492 -45 538 -26 q 486 -46 490 -46 q 475 -39 479 -46 z "},"y":{"ha":763,"x_min":77,"x_max":807,"o":"m 370 -309 q 367 -314 369 -312 q 361 -315 366 -315 q 355 -315 357 -315 q 309 -300 331 -306 q 266 -289 288 -294 q 222 -279 245 -283 q 175 -269 200 -275 q 164 -265 168 -268 q 161 -254 161 -262 q 163 -244 161 -252 q 175 -213 165 -237 q 204 -143 184 -189 q 258 -20 224 -97 q 235 62 248 14 q 208 165 222 109 q 178 284 193 222 q 146 411 162 347 q 114 538 130 475 q 83 658 98 601 q 78 676 79 669 q 77 688 77 683 q 88 700 77 697 q 198 724 141 711 q 306 756 255 736 q 312 757 308 757 q 321 750 321 757 l 404 294 q 415 324 407 302 q 433 375 422 345 q 456 441 444 405 q 483 514 469 477 q 510 588 496 551 q 534 657 523 625 q 554 713 546 689 q 568 750 563 738 q 578 757 570 757 q 581 756 580 757 q 583 756 581 756 q 688 724 634 736 q 794 700 741 711 q 807 685 807 697 q 799 658 807 676 l 519 26 l 370 -309 z "},"z":{"ha":673,"x_min":57,"x_max":667,"o":"m 173 0 q 144 1 159 0 q 116 6 129 3 q 95 16 104 10 q 87 33 87 22 q 87 35 87 33 q 88 37 88 36 l 328 528 q 264 527 299 528 q 193 525 229 526 q 125 524 157 524 q 71 523 93 523 q 60 527 64 523 q 57 537 57 532 l 57 540 l 125 703 q 146 727 131 722 q 176 732 161 732 q 410 728 295 732 q 644 724 525 724 q 659 720 651 724 q 667 708 667 715 q 665 703 667 707 l 450 234 q 454 232 450 233 q 464 231 458 231 q 475 230 469 230 q 485 230 481 230 q 568 232 528 230 q 648 234 608 234 q 661 231 656 234 q 667 217 667 227 q 665 216 667 216 l 580 37 q 558 17 574 24 q 520 6 543 9 q 470 1 498 2 q 414 0 443 0 l 173 0 z "},"{":{"ha":571,"x_min":39,"x_max":624,"o":"m 113 630 q 178 657 151 636 q 227 709 205 678 q 265 776 248 739 q 302 851 283 813 q 347 927 322 890 q 407 993 372 964 q 492 1043 443 1023 q 609 1067 541 1063 l 612 1067 q 621 1065 618 1067 q 624 1055 624 1063 q 616 988 618 1017 q 610 932 613 959 q 604 876 608 905 q 591 808 600 846 q 583 783 589 789 q 569 775 576 776 q 516 750 535 771 q 486 701 498 730 q 464 638 473 671 q 437 574 454 604 q 392 522 420 545 q 316 493 364 500 q 409 418 380 458 q 439 330 439 377 q 438 312 439 321 q 438 294 438 302 q 458 181 438 222 q 513 123 478 141 q 522 118 518 122 q 526 103 526 113 q 525 97 526 100 q 524 90 525 94 q 512 40 518 62 q 501 -3 507 18 q 490 -45 496 -23 q 477 -96 484 -67 q 472 -106 475 -103 q 463 -109 468 -109 q 460 -108 461 -109 q 458 -108 460 -108 q 349 -73 404 -99 q 251 -1 294 -47 q 180 111 208 45 q 153 267 153 177 q 154 286 153 276 q 154 304 154 295 q 146 350 154 330 q 126 384 139 370 q 96 406 113 397 q 58 418 78 414 q 44 422 49 419 q 39 437 39 425 q 41 466 39 449 q 46 503 43 484 q 53 540 50 522 q 60 574 57 559 q 65 598 63 589 q 67 608 67 608 q 82 624 71 621 q 113 630 92 627 z "},"|":{"ha":404,"x_min":82,"x_max":415,"o":"m 131 574 q 148 771 141 673 q 162 971 155 869 q 166 1002 163 994 q 182 1013 170 1010 q 294 1022 239 1017 q 408 1035 350 1027 q 414 1033 413 1035 q 415 1028 415 1031 l 327 9 l 327 -6 q 322 -16 327 -12 q 300 -24 318 -20 l 149 -62 q 130 -69 142 -65 q 106 -73 117 -73 q 89 -68 96 -73 q 82 -52 82 -64 l 82 -48 q 92 94 87 25 q 102 236 97 163 q 115 391 108 309 q 131 574 122 473 z "},"}":{"ha":571,"x_min":44,"x_max":616,"o":"m 576 616 q 606 611 596 614 q 616 594 616 608 q 615 584 616 594 q 613 557 614 573 q 610 519 612 541 q 606 477 608 498 q 600 435 603 455 q 592 400 596 415 q 584 382 589 387 q 567 377 578 378 q 498 325 528 366 q 452 208 469 284 q 420 114 442 156 q 367 38 397 71 q 298 -21 336 4 q 220 -65 260 -47 q 139 -93 180 -83 q 60 -108 98 -104 q 58 -108 58 -108 q 56 -109 57 -109 q 44 -96 44 -109 q 44 -70 44 -82 q 45 -47 45 -58 q 44 -9 45 -26 q 44 31 44 7 q 45 60 44 45 q 48 89 45 75 q 55 112 50 102 q 67 123 59 121 q 111 155 90 138 q 148 197 131 173 q 179 256 165 222 q 202 336 193 290 q 245 424 214 383 q 336 500 277 465 q 275 520 298 505 q 239 556 252 535 q 222 601 227 576 q 215 652 217 626 q 211 702 213 677 q 202 746 210 726 q 181 779 195 766 q 138 795 166 792 q 129 801 133 797 q 124 817 124 806 q 124 823 124 820 q 125 829 125 825 q 131 890 127 863 q 139 942 134 917 q 148 994 143 967 q 159 1055 153 1021 q 164 1065 160 1063 q 174 1067 168 1067 l 177 1067 q 294 1042 248 1063 q 369 991 340 1021 q 413 922 397 960 q 439 845 429 884 q 457 767 450 805 q 479 697 465 728 q 515 644 492 666 q 576 616 537 623 z "},"~":{"ha":735,"x_min":77,"x_max":753,"o":"m 490 591 q 514 566 503 573 q 541 558 526 558 q 571 569 562 558 q 584 594 580 581 q 589 620 587 608 q 597 631 591 631 q 609 631 599 631 q 633 632 618 631 q 664 633 647 633 q 696 635 681 634 q 722 636 711 636 q 736 637 733 637 q 747 634 741 637 q 753 624 753 631 q 736 525 753 575 q 687 435 719 475 q 612 369 656 394 q 514 343 568 343 q 471 347 492 343 q 428 362 450 351 q 385 394 407 374 q 341 446 363 414 q 317 467 330 463 q 287 471 304 471 q 260 465 271 471 q 244 447 250 458 q 236 423 238 436 q 233 397 233 410 q 228 386 233 391 q 214 381 222 381 q 179 381 192 381 q 154 380 165 380 q 131 379 143 380 q 98 379 118 379 q 84 382 90 379 q 77 391 77 385 q 96 507 77 454 q 145 597 114 559 q 219 655 177 634 q 309 675 261 675 q 360 673 336 675 q 405 663 383 671 q 448 638 427 655 q 490 591 469 621 z "},"":{"ha":373,"x_min":48,"x_max":415,"o":"m 102 247 q 144 458 123 353 q 182 671 165 564 q 187 702 184 693 q 202 713 190 711 q 254 724 229 718 q 309 736 280 729 q 315 735 314 736 q 316 730 316 733 l 323 60 q 318 28 321 37 q 303 18 315 20 q 186 -13 245 4 q 62 -45 127 -29 q 56 -46 60 -46 q 48 -39 48 -46 q 51 -23 48 -39 q 58 18 54 -7 q 68 75 62 43 q 79 137 73 106 q 91 198 85 169 q 102 247 97 227 m 125 808 q 129 853 127 838 q 130 877 130 869 q 131 886 131 884 q 131 889 131 888 q 132 893 132 890 q 133 906 132 897 q 135 935 134 916 q 139 987 136 954 q 143 1018 140 1010 q 159 1029 146 1027 q 279 1054 216 1041 q 401 1086 342 1066 q 408 1086 404 1086 q 413 1081 410 1082 l 415 1080 l 400 894 q 395 863 398 871 q 380 852 392 854 q 264 828 323 841 q 139 802 205 815 q 133 802 137 802 q 125 808 125 802 z "},"":{"ha":737,"x_min":68,"x_max":737,"o":"m 68 331 q 98 491 68 416 q 179 624 127 566 q 302 718 231 682 q 458 763 374 755 l 465 840 q 468 871 466 863 q 477 883 469 880 q 506 883 493 883 q 530 884 518 884 q 555 885 542 884 q 585 885 568 885 q 598 880 592 885 q 605 857 605 875 l 596 757 q 660 740 633 750 q 704 721 686 730 q 729 705 721 711 q 737 697 737 698 q 734 674 737 693 q 727 631 731 656 q 721 580 724 606 q 718 535 718 554 q 715 528 718 532 q 705 524 713 524 q 687 527 698 524 q 660 536 675 531 q 624 547 644 542 q 579 556 604 553 l 545 146 q 605 159 578 150 q 666 188 632 169 q 671 189 667 189 q 676 185 675 189 q 678 172 678 182 q 678 120 678 151 q 678 61 678 89 q 677 13 677 33 q 675 -7 676 -7 q 606 -39 643 -28 q 528 -55 568 -50 l 522 -132 q 521 -145 521 -140 q 520 -154 521 -150 q 516 -160 519 -157 q 505 -166 513 -163 l 450 -171 l 399 -171 q 390 -166 393 -171 q 386 -151 386 -162 q 389 -102 386 -125 q 393 -56 391 -79 q 263 -16 323 -47 q 161 67 204 16 q 93 184 117 117 q 68 331 68 252 m 443 543 q 359 465 389 518 q 329 342 329 412 q 349 236 329 283 q 411 163 370 188 q 416 224 413 191 q 421 294 418 258 q 428 367 425 330 q 434 439 431 404 l 443 543 z "},"":{"ha":755,"x_min":59,"x_max":789,"o":"m 194 -39 q 189 -39 190 -39 q 161 -39 173 -39 q 140 -39 149 -39 q 79 -36 99 -39 q 59 -20 59 -32 q 72 1 59 -15 q 103 38 84 18 q 143 81 121 59 q 183 119 165 102 q 198 271 189 186 q 217 446 207 356 l 147 446 q 94 449 111 446 q 78 462 78 452 q 83 476 78 465 q 97 505 89 488 q 116 541 106 522 q 134 576 125 559 q 150 605 143 593 q 157 620 156 617 l 240 620 l 250 762 q 276 883 257 826 q 330 982 295 939 q 419 1048 365 1024 q 549 1073 473 1073 q 640 1063 596 1073 q 716 1041 683 1053 q 769 1016 749 1028 q 789 998 789 1003 q 787 992 789 995 q 784 984 786 989 q 755 922 766 948 q 738 879 744 896 q 727 854 731 862 q 718 846 723 846 q 715 848 719 846 q 658 871 686 862 q 600 880 629 880 q 548 861 570 880 q 513 789 526 842 q 504 707 508 751 q 496 620 499 663 l 673 620 q 684 616 679 620 q 689 604 689 612 q 681 579 689 600 q 658 524 673 558 l 633 469 q 624 454 629 459 q 603 448 618 448 l 486 448 q 467 289 475 366 q 452 151 458 211 q 539 155 498 153 q 615 156 581 156 q 673 157 649 157 q 709 157 698 157 q 721 153 714 157 q 728 138 728 149 q 722 118 728 132 q 705 85 715 104 q 682 41 695 65 q 655 -9 669 17 q 644 -27 650 -21 q 618 -33 637 -33 q 593 -33 616 -33 q 534 -34 570 -33 q 453 -36 498 -35 q 362 -37 408 -37 q 272 -39 316 -38 q 194 -39 228 -39 z "},"":{"ha":866,"x_min":119,"x_max":833,"o":"m 119 555 q 139 669 119 617 q 197 763 160 720 l 172 790 q 153 812 160 803 q 146 829 146 821 q 155 842 146 837 q 170 854 157 844 q 198 878 182 865 q 227 903 213 891 q 245 918 241 914 q 259 924 252 924 q 269 921 265 924 l 273 918 l 327 859 q 412 888 368 878 q 503 898 456 898 q 583 889 546 898 q 652 863 620 880 l 703 918 q 717 924 709 924 q 730 918 724 924 q 749 903 735 914 q 778 878 763 891 q 806 854 793 865 q 821 842 819 844 q 829 829 829 837 q 813 800 829 817 l 802 788 q 774 758 791 777 q 815 673 801 718 q 829 580 829 629 q 813 468 829 518 q 768 376 798 417 l 822 317 q 830 304 827 311 q 833 292 833 298 q 828 277 833 282 q 800 248 815 262 q 772 224 785 235 q 751 208 760 214 q 741 202 742 202 q 709 221 730 202 q 653 277 688 239 q 450 229 565 229 q 372 237 408 229 q 304 258 336 244 l 295 248 q 235 202 253 203 q 227 205 230 202 q 209 218 222 208 q 181 243 196 229 q 155 270 166 256 q 143 292 143 283 q 146 304 143 298 q 154 317 149 311 l 184 351 q 135 446 151 394 q 119 555 119 498 m 483 725 q 422 710 449 725 q 378 670 396 694 q 350 615 359 646 q 340 553 340 584 q 349 497 340 524 q 373 450 357 471 q 416 417 390 430 q 476 405 441 405 q 537 419 511 405 q 581 458 563 434 q 607 512 598 481 q 616 572 616 542 q 608 629 616 602 q 584 678 600 656 q 542 712 567 699 q 483 725 517 725 z "},"":{"ha":857,"x_min":120,"x_max":907,"o":"m 296 491 q 266 558 282 522 q 232 632 249 595 q 197 705 214 669 q 166 772 180 741 q 140 826 151 803 q 122 862 128 850 l 121 867 q 120 878 120 869 q 121 890 120 884 q 127 903 123 897 q 141 910 132 906 q 164 920 151 915 q 193 932 178 926 q 224 945 208 939 l 302 976 q 318 980 311 980 q 330 977 323 980 q 345 966 336 974 l 501 662 l 505 672 l 572 796 q 598 842 585 819 q 620 882 610 864 q 637 910 630 899 q 645 921 644 921 l 878 979 q 891 981 886 981 q 907 967 907 981 q 905 958 906 964 q 901 945 905 952 l 776 711 l 661 500 q 702 501 684 500 q 728 501 720 501 q 745 498 737 500 q 756 491 751 495 q 761 477 761 486 q 759 451 761 469 q 754 416 757 433 l 748 370 q 746 363 747 366 q 742 359 745 361 q 732 356 739 357 q 715 355 726 355 q 664 353 693 353 q 591 353 634 353 l 582 296 q 654 298 623 297 q 696 298 684 298 q 712 295 705 298 q 723 288 718 292 q 728 275 728 283 q 726 248 728 266 q 722 213 724 231 l 715 168 q 714 161 715 163 q 709 156 713 158 q 700 153 706 154 q 682 152 693 152 q 630 151 661 151 q 556 151 600 151 l 543 71 q 539 52 541 59 q 535 40 537 45 q 529 31 532 35 q 519 24 525 28 l 340 -22 q 317 -31 329 -28 q 294 -35 305 -35 q 275 -30 283 -35 q 267 -13 267 -24 l 267 -10 q 274 64 269 22 q 286 148 279 105 l 231 148 q 155 151 179 148 q 131 164 131 155 q 135 181 131 170 q 147 205 140 192 q 164 233 155 218 q 184 259 174 248 q 207 279 195 271 q 228 288 218 287 l 310 289 q 311 294 310 293 l 319 351 l 263 351 q 188 354 212 351 q 163 367 163 357 q 168 384 163 372 q 180 408 172 395 q 197 436 187 421 q 217 462 206 450 q 239 482 228 474 q 260 490 250 490 l 296 491 z "},"":{"ha":387,"x_min":70,"x_max":407,"o":"m 122 566 q 129 664 126 628 q 133 720 132 701 q 135 748 134 740 q 136 761 136 755 q 138 775 137 767 q 141 805 139 784 q 145 866 142 827 q 154 971 149 905 q 158 1002 155 993 q 174 1013 161 1011 q 286 1032 231 1023 q 399 1055 342 1041 l 407 1048 l 367 616 l 367 601 q 362 591 367 595 q 340 583 357 587 l 192 549 q 171 544 184 548 q 146 541 157 541 q 129 545 136 541 q 122 562 122 550 l 122 566 m 70 -57 q 77 42 74 5 q 81 98 79 78 q 83 125 82 117 q 84 139 83 133 q 86 153 85 144 q 89 183 87 161 q 93 243 90 204 q 102 349 96 282 q 106 379 103 371 q 121 391 109 388 q 234 412 178 401 q 347 439 290 422 l 355 433 l 315 7 l 315 -8 q 310 -18 315 -15 q 288 -26 306 -21 l 137 -71 q 118 -78 130 -73 q 96 -82 107 -82 q 77 -78 85 -82 q 70 -61 70 -74 l 70 -57 z "},"":{"ha":720,"x_min":82,"x_max":713,"o":"m 136 96 q 135 97 136 96 q 134 100 134 98 q 142 106 134 106 q 155 102 148 106 q 235 60 192 76 q 326 43 279 43 q 348 45 336 43 q 371 52 361 47 q 389 64 382 56 q 397 83 397 71 q 386 114 397 99 q 358 139 374 130 q 261 194 310 165 q 172 259 212 223 q 107 343 132 296 q 82 454 82 390 q 116 575 82 524 q 214 648 151 627 q 200 680 207 663 q 188 716 193 698 q 179 754 182 735 q 176 790 176 772 q 193 863 176 829 q 244 922 211 897 q 325 961 277 947 q 433 975 373 975 q 449 974 437 975 q 479 971 462 973 q 517 964 497 968 q 554 953 536 960 q 585 937 572 946 q 602 916 597 928 q 625 831 614 873 q 650 745 636 790 q 650 739 650 743 q 640 730 650 730 q 631 733 634 730 q 592 763 612 748 q 552 788 572 777 q 509 807 531 800 q 464 814 487 814 q 439 812 452 814 q 417 805 427 810 q 401 792 408 800 q 395 771 395 784 q 437 702 395 727 q 547 628 501 662 q 624 565 593 594 q 672 512 654 536 q 699 466 690 487 q 710 426 708 445 q 713 391 713 408 q 702 324 713 355 q 673 269 692 293 q 631 227 655 244 q 579 199 606 209 q 610 135 601 167 q 618 75 618 103 q 598 -8 618 28 q 545 -72 578 -45 q 470 -113 512 -98 q 382 -127 427 -127 q 282 -122 330 -127 q 189 -92 234 -117 l 136 96 m 423 477 q 384 492 404 486 q 342 498 364 498 q 318 496 330 498 q 296 489 305 494 q 280 476 286 484 q 274 456 274 468 q 278 429 274 443 q 290 406 283 416 q 355 372 321 385 q 426 359 389 359 q 449 361 436 359 q 472 368 461 363 q 490 380 483 372 q 498 399 498 388 q 491 424 498 412 q 474 444 484 435 l 456 456 l 423 477 z "},"":{"ha":806,"x_min":60,"x_max":747,"o":"m 60 833 q 63 889 62 871 q 64 913 64 906 q 64 924 64 921 q 65 936 64 926 q 66 966 65 945 q 69 1031 67 987 q 74 1060 71 1052 q 87 1069 77 1067 q 200 1069 140 1069 q 310 1070 259 1070 q 319 1066 317 1070 q 322 1053 322 1063 l 305 864 q 300 837 303 844 q 288 827 298 829 q 181 826 236 827 q 67 826 127 826 q 62 827 64 826 q 60 831 60 827 l 60 833 m 485 831 q 488 895 487 874 q 489 924 489 916 q 489 936 490 933 q 489 946 489 939 q 491 972 490 954 q 494 1031 492 991 q 498 1058 496 1050 q 511 1067 501 1066 q 624 1068 565 1067 q 734 1069 683 1068 q 743 1066 739 1069 q 747 1055 747 1063 l 730 863 q 725 836 728 843 q 711 827 723 828 q 604 825 659 826 q 488 825 549 825 q 486 825 486 825 q 485 829 485 825 l 485 831 z "},"":{"ha":1112,"x_min":90,"x_max":1105,"o":"m 559 70 q 675 84 619 70 q 780 123 731 98 q 868 186 828 149 q 937 271 908 224 q 981 374 965 318 q 996 494 996 430 q 971 633 996 568 q 900 746 945 698 q 790 822 854 794 q 650 850 726 850 q 484 821 563 850 q 347 738 406 791 q 253 609 288 684 q 218 442 218 534 q 241 300 218 368 q 309 181 264 233 q 416 100 353 130 q 559 70 479 70 m 534 -43 q 349 -3 431 -43 q 209 103 267 36 q 121 258 151 170 q 90 443 90 346 q 136 661 90 563 q 258 828 181 758 q 438 936 336 898 q 654 974 541 974 q 837 938 754 974 q 979 839 920 901 q 1072 691 1039 776 q 1105 510 1105 606 q 1085 354 1105 427 q 1027 219 1065 280 q 938 109 990 157 q 823 27 886 60 q 686 -25 759 -7 q 534 -43 613 -43 m 299 438 q 325 576 299 512 q 396 689 351 641 q 505 764 442 736 q 640 791 567 791 q 708 786 679 791 q 760 773 738 781 q 796 756 781 766 q 820 739 810 747 l 820 736 q 821 712 820 729 q 824 673 822 694 q 826 629 825 651 q 827 590 827 606 q 825 584 827 587 q 813 581 823 581 q 791 590 805 581 q 758 611 777 600 q 713 631 739 622 q 659 641 688 641 q 593 626 623 641 q 543 586 564 612 q 510 525 522 560 q 499 447 499 489 q 507 383 499 413 q 531 330 515 353 q 571 293 547 307 q 627 279 595 279 q 671 281 652 279 q 707 287 690 283 q 740 298 724 291 q 774 315 756 304 q 782 313 780 315 q 785 302 785 312 q 785 264 785 286 q 784 221 785 241 q 784 186 784 201 q 783 172 783 172 q 739 151 762 159 q 692 138 716 142 q 643 132 667 134 q 595 130 618 130 q 478 153 532 130 q 385 216 425 175 q 322 313 345 256 q 299 438 299 370 z "},"":{"ha":669,"x_min":92,"x_max":694,"o":"m 639 505 q 643 480 639 490 q 652 464 647 470 q 661 453 657 457 q 665 447 665 450 q 650 433 665 439 l 509 372 q 505 372 508 372 q 496 379 500 372 q 488 398 492 387 q 480 422 484 409 q 474 446 477 435 q 402 390 441 408 q 326 372 363 372 q 239 392 281 372 q 164 447 197 411 q 112 535 132 484 q 92 650 92 586 q 114 787 92 725 q 173 894 136 850 q 260 963 211 939 q 366 988 310 988 q 440 972 406 988 q 508 931 475 956 q 511 957 511 947 q 514 971 512 966 q 522 978 516 977 q 539 981 527 980 q 615 991 578 987 q 694 998 652 996 l 639 505 m 481 705 q 487 742 484 724 q 490 776 489 760 l 492 810 q 474 823 484 816 q 452 836 464 830 q 428 846 441 842 q 402 850 415 850 q 354 831 374 850 q 323 786 335 812 q 306 729 311 759 q 301 675 301 699 q 323 553 301 592 q 385 515 345 515 q 419 524 400 515 q 459 548 439 532 l 481 705 z "},"":{"ha":1378,"x_min":73,"x_max":1361,"o":"m 681 220 q 686 212 686 216 q 684 204 686 209 q 634 99 654 153 q 591 -7 613 45 q 574 -20 587 -20 q 563 -18 568 -20 q 548 -12 557 -16 l 114 248 q 85 265 92 258 q 79 286 79 272 q 78 390 79 337 q 74 500 78 443 q 74 502 74 501 q 73 503 73 503 l 75 508 q 78 514 75 511 q 83 516 81 516 q 142 542 106 527 q 223 573 178 556 q 319 609 268 590 q 424 647 371 628 q 530 686 477 667 q 631 724 583 706 q 662 730 652 730 q 673 720 671 730 q 676 610 674 667 q 690 502 679 553 q 687 490 690 494 q 681 486 685 487 l 378 376 q 408 361 386 372 q 460 334 430 349 q 524 301 490 318 q 589 267 558 283 q 645 238 621 251 q 681 220 669 226 m 1352 220 q 1358 212 1358 216 q 1356 204 1358 209 q 1305 99 1326 153 q 1263 -7 1284 45 q 1245 -20 1258 -20 q 1234 -18 1240 -20 q 1219 -12 1229 -16 l 785 248 q 757 265 764 258 q 750 286 750 272 q 750 390 750 337 q 745 500 749 443 q 745 502 745 501 q 745 503 745 503 l 746 508 q 749 514 747 511 q 754 516 752 516 q 813 542 777 527 q 895 573 850 556 q 991 609 939 590 q 1096 647 1042 628 q 1202 686 1149 667 q 1303 724 1255 706 q 1333 730 1324 730 q 1344 720 1342 730 q 1348 610 1345 667 q 1361 502 1350 553 q 1359 490 1361 494 q 1352 486 1356 487 l 1050 376 q 1079 361 1057 372 q 1131 334 1101 349 q 1195 301 1161 318 q 1261 267 1230 283 q 1316 238 1292 251 q 1352 220 1341 226 z "},"":{"ha":718,"x_min":74,"x_max":671,"o":"m 174 351 q 97 354 121 351 q 74 367 74 357 q 78 384 74 372 q 90 408 83 395 q 107 436 98 421 q 127 462 117 450 q 150 482 138 474 q 171 490 161 490 l 410 497 q 480 499 446 498 q 542 500 514 500 q 590 502 570 501 q 620 503 610 503 q 660 499 648 503 q 671 479 671 496 q 671 470 671 474 q 671 462 671 465 l 667 386 q 666 358 667 378 q 664 315 665 339 q 661 263 663 290 q 657 214 659 237 q 655 175 656 191 q 654 157 654 159 q 650 140 652 148 q 642 129 647 134 q 628 124 637 124 q 608 125 620 124 q 582 128 596 126 q 552 132 568 130 q 522 137 536 134 q 511 142 515 138 q 508 159 508 145 q 510 196 507 176 q 513 234 512 215 l 522 355 q 461 355 492 355 q 408 354 430 355 l 174 351 z "},"":{"ha":1112,"x_min":90,"x_max":1105,"o":"m 553 242 q 551 235 552 239 q 546 230 550 231 q 529 223 541 227 q 502 213 517 218 q 471 203 487 208 q 441 193 455 197 q 419 186 428 189 q 410 183 410 183 q 400 186 404 183 q 395 196 395 189 q 397 235 395 208 q 401 299 399 262 q 407 378 404 335 q 415 467 411 422 q 422 556 418 512 q 429 640 426 601 q 427 641 429 641 q 399 637 420 641 q 351 628 377 633 q 342 633 342 628 q 342 635 342 634 l 406 746 q 507 765 451 755 q 635 774 564 774 q 715 766 676 774 q 784 739 754 758 q 832 691 814 721 q 850 616 850 661 q 842 573 850 593 q 820 538 833 554 q 791 510 807 522 q 761 489 775 498 q 736 475 747 480 q 722 467 725 469 q 723 464 722 467 q 728 455 724 462 q 740 435 732 448 q 761 400 748 422 q 793 346 774 378 q 839 267 812 313 q 854 260 846 262 q 870 259 863 259 q 883 258 878 258 q 888 253 888 257 q 882 245 888 250 q 867 237 876 241 q 849 229 858 233 q 836 222 840 224 q 816 214 826 218 q 794 204 806 210 q 768 192 783 199 q 735 175 753 184 q 726 171 730 172 q 719 170 722 170 q 706 174 711 170 q 698 181 701 177 q 692 191 694 186 q 689 199 690 195 l 572 446 l 553 242 m 576 494 q 618 505 597 494 q 658 531 640 515 q 687 564 675 546 q 698 596 698 581 q 629 664 698 664 q 615 663 622 664 q 604 662 609 663 l 592 660 l 576 494 m 559 70 q 675 84 619 70 q 780 123 731 98 q 868 186 828 149 q 937 271 908 224 q 981 374 965 318 q 996 494 996 430 q 971 633 996 568 q 900 746 945 698 q 790 822 854 794 q 650 850 726 850 q 484 821 563 850 q 347 738 406 791 q 253 609 288 684 q 218 442 218 534 q 241 300 218 368 q 309 181 264 233 q 416 100 353 130 q 559 70 479 70 m 534 -43 q 349 -3 431 -43 q 209 103 267 36 q 121 258 151 170 q 90 443 90 346 q 136 661 90 563 q 258 828 181 758 q 438 936 336 898 q 654 974 541 974 q 837 938 754 974 q 979 839 920 901 q 1072 691 1039 776 q 1105 510 1105 606 q 1085 354 1105 427 q 1027 219 1065 280 q 938 109 990 157 q 823 27 886 60 q 686 -25 759 -7 q 534 -43 613 -43 z "},"":{"ha":683,"x_min":89,"x_max":712,"o":"m 398 378 q 276 398 333 378 q 178 455 220 418 q 113 548 136 493 q 89 671 89 602 q 114 791 89 734 q 183 890 139 848 q 287 957 227 932 q 418 982 347 982 q 533 962 479 982 q 627 905 587 942 q 689 817 667 869 q 712 702 712 765 q 690 584 712 642 q 628 480 669 526 q 529 406 587 434 q 398 378 471 378 m 513 672 q 514 684 513 677 q 514 696 514 690 q 509 739 514 716 q 494 780 505 762 q 465 811 483 799 q 420 823 447 823 q 357 810 384 823 q 314 775 331 797 q 288 728 296 754 q 279 674 279 701 q 283 630 279 653 q 299 587 288 606 q 329 554 310 567 q 378 540 348 541 q 434 552 410 540 q 475 583 458 564 q 500 625 491 602 q 513 672 509 648 z "},"":{"ha":709,"x_min":62,"x_max":684,"o":"m 287 448 q 226 447 252 447 q 184 447 200 447 q 124 451 144 447 q 104 466 104 454 q 107 491 104 472 q 116 535 111 511 q 126 584 121 559 q 135 625 132 608 q 145 640 136 633 q 170 648 155 647 l 306 650 l 307 664 q 312 743 311 710 q 316 798 313 777 q 326 828 319 819 q 347 838 333 838 q 350 838 349 838 q 354 838 352 838 q 367 838 358 838 q 386 839 375 838 q 410 839 397 839 q 435 840 422 840 l 499 842 q 513 834 509 839 q 518 818 518 830 q 518 816 518 817 q 518 811 518 815 q 517 798 517 807 q 515 772 516 789 q 511 725 513 754 q 505 653 509 696 l 517 654 q 566 655 542 654 q 610 656 590 656 q 645 657 630 656 q 665 657 659 657 q 677 653 671 657 q 684 637 684 649 q 681 611 684 636 q 673 543 678 586 l 666 477 q 658 463 662 467 q 647 456 654 458 q 626 454 640 454 q 588 453 612 454 l 489 451 l 480 352 q 475 310 478 326 q 468 283 472 293 q 458 270 464 274 q 445 267 452 267 q 414 267 433 267 q 372 268 394 267 q 328 269 350 269 q 292 269 307 269 q 278 277 283 271 q 273 298 273 284 l 273 302 l 287 448 m 162 5 q 86 8 109 5 q 62 21 62 11 q 67 38 62 26 q 79 62 71 49 q 96 90 86 75 q 116 116 105 104 q 138 136 127 128 q 159 144 149 144 l 398 151 q 426 152 406 151 q 469 152 445 152 q 520 153 494 153 q 570 154 547 154 q 609 155 593 155 q 627 155 625 155 q 644 152 636 155 q 655 145 650 149 q 660 132 660 140 q 658 105 660 123 q 653 70 656 87 l 647 24 q 645 18 646 20 q 641 13 644 15 q 631 10 637 11 q 614 9 625 9 l 531 9 q 496 9 514 9 q 460 8 477 9 q 426 8 442 8 q 396 8 409 8 l 162 5 z "},"":{"ha":498,"x_min":90,"x_max":519,"o":"m 472 764 q 461 742 469 756 q 442 710 453 728 q 418 672 431 692 q 393 631 406 651 l 326 526 q 327 525 326 525 l 328 525 q 356 527 335 525 q 404 532 378 529 q 456 536 430 534 q 498 538 482 538 q 519 529 519 538 q 516 517 519 524 q 513 511 513 511 l 452 397 q 451 395 452 397 q 450 393 451 393 q 435 384 442 385 q 422 382 428 383 q 333 381 369 382 q 269 380 297 380 q 217 380 241 380 q 162 380 193 380 q 105 386 121 380 q 90 405 90 393 q 95 424 90 413 q 110 448 101 434 l 190 561 q 286 699 251 644 q 321 783 321 753 q 314 813 321 800 q 294 835 307 826 q 266 849 282 844 q 230 854 249 854 q 181 846 206 854 q 132 823 155 839 q 118 818 122 818 q 112 822 113 818 q 111 829 111 826 q 115 868 111 846 q 124 910 119 890 q 134 945 130 930 q 138 962 138 960 q 149 969 139 962 q 182 987 159 977 q 240 1005 204 997 q 328 1013 275 1013 q 389 1000 358 1013 q 444 965 419 987 q 483 914 468 943 q 498 850 498 884 q 492 808 498 829 q 472 764 486 786 z "},"":{"ha":507,"x_min":101,"x_max":503,"o":"m 328 368 q 295 366 311 366 q 252 369 272 366 q 212 377 232 372 q 172 391 192 382 q 128 408 151 399 q 117 424 121 410 q 112 455 114 437 q 107 495 109 474 q 101 534 105 517 q 114 550 101 550 q 117 549 117 550 q 147 531 132 541 q 179 513 162 521 q 217 499 197 505 q 260 494 237 494 q 307 507 291 494 q 322 551 322 520 q 320 569 322 559 q 312 586 318 578 q 293 600 305 594 q 261 605 281 605 l 187 605 q 189 616 187 607 q 192 639 190 626 q 196 667 193 652 q 200 695 198 682 q 203 717 201 708 q 204 727 204 726 q 209 745 207 741 q 214 750 212 750 q 233 748 224 750 q 251 746 241 746 q 291 763 277 746 q 305 805 305 779 q 293 841 305 825 q 254 857 281 857 q 193 850 224 857 q 139 836 163 844 q 140 845 140 840 q 140 857 140 850 q 140 870 140 863 q 140 884 140 877 q 141 909 140 897 q 144 933 142 922 q 153 952 147 944 q 168 963 158 960 q 207 974 191 970 q 238 980 224 978 q 267 983 253 983 q 300 984 281 984 q 368 975 334 984 q 431 947 403 966 q 477 899 459 928 q 494 831 494 870 q 487 783 494 804 q 469 745 480 762 q 446 716 458 728 q 422 694 433 703 q 450 678 435 688 q 476 652 464 667 q 495 614 488 636 q 503 563 503 592 q 490 494 503 528 q 453 433 477 460 q 398 388 430 406 q 328 368 366 370 z "},"":{"ha":431,"x_min":32,"x_max":415,"o":"m 255 944 q 205 876 225 903 q 172 833 185 849 q 152 812 159 818 q 140 806 144 806 q 133 808 136 806 q 107 825 119 818 q 85 838 96 832 q 65 849 75 844 q 41 861 54 854 q 32 875 32 866 q 34 888 33 880 q 40 907 36 895 l 165 1271 q 172 1284 169 1280 q 180 1287 176 1287 q 186 1285 183 1287 q 193 1282 190 1284 q 299 1220 246 1246 q 403 1168 351 1195 q 415 1149 415 1160 q 404 1122 415 1139 q 360 1071 377 1091 q 327 1033 342 1051 q 296 994 312 1015 q 255 944 279 974 z "},"":{"ha":888,"x_min":55,"x_max":890,"o":"m 108 235 q 138 544 128 438 q 149 658 148 650 q 154 688 151 680 q 169 700 157 697 q 230 711 201 706 q 287 722 258 716 q 344 734 315 728 q 406 751 373 741 q 408 751 407 751 q 411 751 410 751 q 419 745 419 751 q 414 701 416 722 q 409 660 412 681 q 405 614 407 639 q 399 557 402 589 q 391 483 395 525 q 380 385 387 441 q 373 315 376 351 q 368 248 370 279 q 388 175 368 197 q 439 153 408 153 q 486 163 461 153 q 531 191 510 174 q 565 232 551 209 q 581 281 579 255 q 590 393 586 348 q 596 469 593 438 q 601 521 599 500 q 605 561 603 542 q 608 603 606 581 q 610 658 609 625 q 615 689 612 680 q 631 700 618 697 q 757 725 692 712 q 883 757 821 737 q 889 755 888 757 q 890 750 890 753 l 827 73 q 824 54 825 62 q 821 42 823 47 q 816 36 819 38 q 806 31 812 33 q 747 15 778 23 q 686 -2 717 7 q 624 -21 654 -11 q 564 -45 593 -32 q 558 -46 563 -46 q 552 -44 553 -46 q 551 -39 551 -42 q 551 -35 551 -38 q 552 -21 551 -31 q 555 8 553 -11 q 563 60 558 27 q 529 33 549 45 q 487 12 509 21 q 441 -1 465 3 q 397 -6 418 -6 q 351 2 370 -6 q 326 30 332 11 l 302 -168 q 301 -177 301 -170 l 301 -183 q 297 -193 301 -189 q 275 -201 293 -196 l 118 -222 q 99 -224 111 -223 q 77 -225 87 -225 q 62 -221 68 -225 q 55 -206 55 -217 q 56 -201 55 -202 q 82 12 68 -95 q 108 235 96 119 z "},"":{"ha":896,"x_min":102,"x_max":920,"o":"m 441 14 q 430 -4 439 1 q 399 -15 421 -9 q 386 -17 397 -16 q 361 -19 376 -18 q 329 -23 346 -21 q 296 -26 311 -24 q 270 -28 281 -27 q 255 -29 258 -29 q 237 -25 246 -29 q 229 -8 229 -21 q 229 -3 229 -4 l 306 479 q 221 518 259 495 q 157 570 183 541 q 116 635 130 599 q 102 713 102 671 q 119 803 102 764 q 165 872 136 843 q 233 923 194 902 q 317 956 273 943 q 410 975 362 969 q 505 981 458 981 q 606 977 552 981 q 711 968 661 973 q 801 958 761 963 q 859 948 841 952 q 885 940 874 943 q 902 933 895 937 q 911 923 908 929 q 914 904 913 916 q 916 873 915 891 q 917 837 916 856 q 918 800 917 818 q 919 767 918 781 q 919 743 919 752 q 920 734 920 734 q 903 722 916 722 q 814 724 881 722 q 791 585 804 663 q 762 404 778 506 q 740 250 750 323 q 731 185 736 218 q 722 121 726 152 q 714 62 718 90 q 707 14 710 34 q 696 -4 706 2 q 666 -15 687 -10 q 642 -18 663 -16 q 598 -23 622 -20 q 554 -27 574 -25 q 528 -29 533 -29 q 511 -24 519 -29 q 503 -6 503 -20 l 577 449 q 550 447 564 448 q 523 446 536 446 l 509 446 q 492 346 499 395 q 477 250 484 296 q 468 185 473 218 q 457 120 463 152 q 448 61 452 89 q 441 14 444 34 z "},"":{"ha":380,"x_min":106,"x_max":397,"o":"m 106 553 q 108 603 107 585 q 109 632 109 622 q 109 646 109 642 q 109 654 109 650 q 110 663 109 658 q 111 681 110 669 q 113 716 111 694 q 116 774 114 738 q 120 805 117 797 q 136 816 123 814 q 260 816 195 816 q 383 817 326 817 q 393 814 389 817 q 397 801 397 810 l 378 588 q 373 557 376 566 q 358 547 371 549 q 240 546 300 547 q 113 545 179 545 q 107 546 109 545 q 106 550 106 547 l 106 553 z "},"":{"ha":370,"x_min":43,"x_max":339,"o":"m 336 -262 q 313 -320 330 -294 q 273 -365 296 -346 q 219 -394 249 -383 q 159 -404 190 -404 q 99 -400 130 -404 q 43 -382 67 -396 l 45 -383 q 44 -378 44 -382 q 45 -357 44 -370 q 48 -330 46 -345 q 52 -302 50 -315 q 57 -279 54 -288 l 60 -279 q 64 -281 64 -279 l 64 -281 q 84 -289 75 -286 q 104 -294 94 -292 q 127 -296 115 -296 q 157 -297 140 -297 q 201 -280 185 -297 q 216 -241 216 -263 q 204 -208 216 -221 q 170 -195 191 -195 q 106 -192 132 -195 q 69 -189 79 -189 q 63 -186 64 -189 q 62 -180 62 -184 q 70 -159 65 -174 q 79 -126 74 -144 q 88 -89 83 -109 q 96 -53 92 -69 q 102 -25 100 -36 q 104 -12 104 -14 l 117 -12 q 147 -12 129 -12 q 183 -12 165 -12 l 226 -12 l 193 -108 q 215 -105 205 -106 q 233 -104 224 -104 q 289 -116 268 -104 q 320 -144 309 -127 q 335 -184 332 -162 q 339 -230 339 -207 q 338 -246 339 -238 q 336 -262 338 -254 z "},"":{"ha":349,"x_min":130,"x_max":338,"o":"m 155 915 q 158 936 156 930 q 168 944 159 942 l 317 980 q 323 981 320 981 q 328 981 326 981 q 336 978 334 981 q 338 963 338 974 l 313 432 q 308 405 312 412 q 292 395 303 398 l 158 355 q 152 354 155 354 q 148 353 149 353 q 135 357 140 353 q 130 373 130 361 q 130 378 130 374 q 130 398 130 382 q 133 449 131 415 q 137 543 134 483 q 144 694 140 603 q 155 915 149 785 z "},"":{"ha":698,"x_min":88,"x_max":726,"o":"m 390 370 q 259 395 315 370 q 164 459 202 419 q 107 552 126 500 q 88 662 88 605 q 107 770 88 719 q 159 862 125 821 q 238 929 192 902 q 341 966 285 956 q 349 970 349 966 q 348 981 349 975 q 347 989 347 986 q 349 997 347 995 q 354 999 351 999 q 525 976 454 999 q 641 913 596 953 q 705 820 685 873 q 726 704 726 766 q 699 563 726 625 q 627 458 673 500 q 520 393 581 415 q 390 370 459 370 m 292 668 q 298 611 292 640 q 318 561 304 583 q 355 524 332 538 q 412 510 378 510 q 471 532 448 512 q 507 581 494 553 q 525 642 520 610 q 530 699 530 673 q 522 753 530 726 q 498 800 514 779 q 459 832 482 820 q 404 845 435 845 q 351 826 372 845 q 316 780 330 807 q 297 722 303 752 q 292 668 292 691 z "},"":{"ha":1364,"x_min":78,"x_max":1374,"o":"m 755 220 q 792 239 766 226 q 849 268 817 252 q 916 301 881 283 q 981 334 950 319 q 1034 361 1011 349 q 1064 376 1057 372 l 766 486 q 758 502 758 487 q 775 610 770 553 q 784 720 780 667 q 795 730 786 730 q 825 724 804 730 q 925 687 873 706 q 1030 648 977 667 q 1133 609 1082 628 q 1227 573 1183 591 q 1307 542 1272 556 q 1365 516 1343 527 q 1370 514 1367 516 q 1373 508 1373 511 l 1374 503 q 1374 502 1374 503 q 1373 500 1373 501 q 1364 390 1367 443 q 1360 286 1362 337 q 1352 265 1360 272 q 1323 248 1345 258 l 878 -12 q 863 -18 869 -16 q 852 -20 858 -20 q 842 -17 845 -20 q 836 -7 838 -14 q 797 100 816 46 q 751 204 777 153 q 749 212 749 208 q 750 217 749 215 q 755 220 751 218 m 83 220 q 120 239 95 226 q 178 268 146 252 q 244 301 210 283 q 309 334 279 319 q 362 361 340 349 q 393 376 385 372 l 94 486 q 86 502 86 487 q 103 610 98 553 q 113 720 109 667 q 123 730 115 730 q 154 724 132 730 q 254 687 201 706 q 358 648 306 667 q 461 609 411 628 q 556 573 512 591 q 636 542 600 556 q 694 516 671 527 q 699 514 696 516 q 702 508 701 511 l 703 503 q 702 502 703 503 q 702 500 702 501 q 693 390 696 443 q 688 286 690 337 q 681 265 688 272 q 652 248 673 258 l 207 -12 q 192 -18 197 -16 q 181 -20 186 -20 q 170 -17 174 -20 q 164 -7 167 -14 q 125 100 144 46 q 79 204 106 153 q 78 212 78 208 q 79 217 78 215 q 83 220 80 218 z "},"":{"ha":1161,"x_min":121,"x_max":1151,"o":"m 147 915 q 150 936 148 930 q 159 944 151 942 l 309 980 q 315 981 312 981 q 319 981 317 981 q 328 978 326 981 q 330 963 330 974 l 305 432 q 299 405 304 412 q 284 395 295 398 l 150 355 q 144 354 146 354 q 140 353 141 353 q 127 357 132 353 q 121 373 121 361 q 121 378 121 374 q 122 398 121 382 q 124 449 123 415 q 129 543 126 483 q 136 694 132 603 q 147 915 140 785 m 502 640 q 581 819 543 729 q 660 1001 619 908 q 673 1028 669 1021 q 688 1036 678 1036 l 692 1036 q 765 1004 729 1021 q 836 980 800 987 q 843 977 840 979 q 846 971 846 975 l 846 969 l 412 10 q 408 -1 409 4 q 405 -11 406 -7 q 400 -17 403 -15 q 392 -20 397 -20 q 374 -15 384 -20 l 306 14 q 290 19 300 16 q 268 28 279 23 q 248 40 256 33 q 239 56 239 47 q 243 68 239 62 q 303 198 274 134 q 362 329 332 261 q 426 473 392 397 q 502 640 460 549 m 1138 197 q 1128 147 1133 173 q 1126 137 1126 140 q 1120 133 1126 134 q 1098 132 1114 132 q 1051 132 1082 132 l 1043 52 q 1042 45 1043 49 q 1036 39 1040 41 q 1022 34 1033 38 q 996 23 1011 29 q 963 12 981 18 q 930 0 946 5 q 903 -9 915 -5 q 886 -12 890 -12 q 876 -9 880 -12 q 871 3 871 -6 q 873 56 871 24 q 879 130 876 88 q 806 129 842 130 q 739 129 770 129 q 685 129 708 129 q 650 128 661 128 q 595 131 611 128 q 578 143 578 134 q 579 148 578 145 q 583 155 580 151 q 597 179 587 161 q 621 220 607 196 q 653 272 635 243 q 688 329 670 300 l 777 477 q 806 531 793 505 q 835 579 819 557 q 872 617 850 601 q 928 640 894 633 l 1064 675 q 1070 676 1067 676 q 1076 677 1073 677 q 1084 674 1081 677 q 1086 663 1086 671 l 1086 659 q 1081 554 1084 599 q 1076 469 1078 510 q 1070 382 1073 427 q 1065 278 1067 338 q 1113 279 1094 279 q 1135 279 1132 279 q 1146 276 1141 279 q 1151 264 1151 272 q 1150 259 1151 260 l 1138 197 m 890 272 q 899 335 895 302 q 906 402 903 368 q 911 470 909 436 q 914 536 913 504 l 757 272 l 890 272 z "},"":{"ha":1185,"x_min":123,"x_max":1166,"o":"m 149 915 q 151 936 149 930 q 161 944 153 942 l 310 980 q 316 981 313 981 q 321 981 319 981 q 329 978 327 981 q 332 963 332 974 l 307 432 q 301 405 305 412 q 286 395 296 398 l 151 355 q 145 354 148 354 q 141 353 142 353 q 128 357 134 353 q 123 373 123 361 q 123 378 123 374 q 123 398 123 382 q 126 449 124 415 q 130 543 127 483 q 137 694 133 603 q 149 915 142 785 m 503 640 q 583 819 545 729 q 661 1001 621 908 q 675 1028 670 1021 q 689 1036 680 1036 l 694 1036 q 766 1004 730 1021 q 838 980 802 987 q 845 977 842 979 q 848 971 848 975 l 848 969 l 413 10 q 409 -1 410 4 q 406 -11 408 -7 q 401 -17 404 -15 q 393 -20 399 -20 q 376 -15 385 -20 l 307 14 q 291 19 302 16 q 269 28 280 23 q 249 40 258 33 q 241 56 241 47 q 244 68 241 62 q 304 198 275 134 q 363 329 333 261 q 427 473 393 397 q 503 640 461 549 m 1118 382 q 1107 360 1115 374 q 1088 329 1099 347 q 1065 290 1078 311 q 1039 249 1052 269 l 972 144 q 973 143 972 143 l 975 143 q 1003 145 981 143 q 1050 150 1024 147 q 1102 155 1076 153 q 1144 157 1128 157 q 1166 147 1166 157 q 1163 136 1166 142 q 1160 129 1160 130 l 1099 15 q 1098 13 1098 15 q 1097 12 1097 12 q 1081 2 1088 3 q 1069 1 1074 1 q 979 -1 1015 0 q 916 -2 943 -1 q 863 -2 888 -2 q 808 -2 839 -2 q 752 4 768 -2 q 736 23 736 11 q 742 42 736 31 q 756 66 747 52 l 836 179 q 932 317 897 262 q 967 401 967 371 q 960 431 967 418 q 941 453 953 444 q 912 467 928 463 q 876 472 895 472 q 827 465 852 472 q 778 441 802 457 q 764 436 768 436 q 758 440 760 436 q 757 448 757 444 q 761 486 757 464 q 771 528 766 508 q 780 563 776 548 q 785 580 785 578 q 795 588 785 580 q 828 605 806 595 q 886 623 850 615 q 974 631 922 631 q 1035 618 1004 631 q 1090 584 1065 606 q 1129 532 1114 562 q 1145 468 1145 503 q 1138 426 1145 448 q 1118 382 1132 404 z "},"":{"ha":1305,"x_min":92,"x_max":1294,"o":"m 319 368 q 286 366 301 366 q 242 369 262 366 q 202 377 222 372 q 162 391 182 382 q 119 408 142 399 q 108 424 111 410 q 102 455 104 437 q 98 495 100 474 q 92 534 96 517 q 104 550 92 550 q 108 549 107 550 q 137 531 122 541 q 170 513 153 521 q 207 499 187 505 q 251 494 227 494 q 297 507 281 494 q 313 551 313 520 q 311 569 313 559 q 302 586 309 578 q 284 600 296 594 q 252 605 272 605 l 178 605 q 179 616 178 607 q 182 639 180 626 q 186 667 184 652 q 190 695 189 682 q 193 717 192 708 q 195 727 195 726 q 200 745 197 741 q 205 750 202 750 q 223 748 214 750 q 241 746 232 746 q 281 763 267 746 q 296 805 296 779 q 284 841 296 825 q 245 857 272 857 q 184 850 214 857 q 130 836 153 844 q 131 845 130 840 q 131 857 131 850 q 131 870 131 863 q 130 884 130 877 q 131 909 130 897 q 135 933 132 922 q 143 952 138 944 q 158 963 149 960 q 198 974 181 970 q 229 980 214 978 q 258 983 243 983 q 290 984 272 984 q 359 975 324 984 q 421 947 393 966 q 467 899 450 928 q 485 831 485 870 q 478 783 485 804 q 460 745 471 762 q 436 716 449 728 q 412 694 423 703 q 440 678 426 688 q 466 652 454 667 q 486 614 478 636 q 494 563 494 592 q 480 494 494 528 q 444 433 467 460 q 388 388 420 406 q 319 368 356 370 m 645 640 q 724 819 686 729 q 803 1001 762 908 q 817 1028 812 1021 q 831 1036 821 1036 l 836 1036 q 908 1004 872 1021 q 979 980 943 987 q 986 977 983 979 q 989 971 989 975 l 989 969 l 555 10 q 551 -1 552 4 q 548 -11 549 -7 q 543 -17 546 -15 q 535 -20 541 -20 q 517 -15 527 -20 l 449 14 q 433 19 444 16 q 411 28 422 23 q 391 40 399 33 q 382 56 382 47 q 386 68 382 62 q 446 198 417 134 q 505 329 475 261 q 569 473 535 397 q 645 640 603 549 m 1281 197 q 1271 147 1276 173 q 1269 137 1270 140 q 1263 133 1269 134 q 1241 132 1257 132 q 1194 132 1225 132 l 1186 52 q 1185 45 1186 49 q 1179 39 1183 41 q 1165 34 1176 38 q 1139 23 1154 29 q 1106 12 1124 18 q 1074 0 1089 5 q 1046 -9 1058 -5 q 1029 -12 1034 -12 q 1019 -9 1023 -12 q 1015 3 1015 -6 q 1017 56 1015 24 q 1022 130 1019 88 q 949 129 985 130 q 882 129 913 129 q 828 129 851 129 q 793 128 804 128 q 738 131 754 128 q 722 143 722 134 q 722 148 722 145 q 726 155 723 151 q 740 179 730 161 q 764 220 750 196 q 796 272 779 243 q 831 329 813 300 l 920 477 q 949 531 937 505 q 978 579 962 557 q 1015 617 994 601 q 1071 640 1037 633 l 1207 675 q 1213 676 1211 676 q 1219 677 1216 677 q 1227 674 1224 677 q 1230 663 1230 671 l 1230 659 q 1224 554 1227 599 q 1219 469 1221 510 q 1213 382 1216 427 q 1208 278 1211 338 q 1256 279 1237 279 q 1278 279 1275 279 q 1289 276 1284 279 q 1294 264 1294 272 q 1293 259 1294 260 l 1281 197 m 1034 272 q 1042 335 1038 302 q 1049 402 1046 368 q 1054 470 1052 436 q 1057 536 1056 504 l 900 272 l 1034 272 z "},"":{"ha":791,"x_min":73,"x_max":776,"o":"m 580 541 q 491 479 533 516 q 416 399 448 441 q 366 314 385 356 q 347 236 347 271 q 368 174 347 198 q 437 151 389 151 q 482 157 465 151 q 510 174 500 164 q 525 196 521 184 q 529 220 529 208 q 524 248 529 235 q 520 265 520 261 q 529 273 520 271 q 560 278 539 275 q 617 288 581 282 q 703 309 652 294 q 734 316 723 314 q 751 318 745 318 q 763 308 758 318 q 771 284 768 298 q 775 255 774 270 q 776 231 776 240 q 745 119 776 168 q 665 36 714 70 q 553 -16 615 2 q 429 -34 491 -34 q 283 -9 348 -34 q 171 55 217 16 q 99 142 124 94 q 74 237 74 191 q 87 314 74 276 q 123 387 101 351 q 176 457 146 423 q 240 522 206 491 q 307 582 273 553 q 373 636 341 610 q 378 640 374 638 q 386 642 382 642 q 391 641 388 642 q 395 639 394 640 q 442 617 421 627 q 482 600 463 608 q 523 585 502 591 q 568 573 543 579 q 582 567 578 571 q 587 558 587 562 q 581 549 581 554 q 580 541 580 544 m 577 973 q 575 923 576 941 q 574 894 574 904 q 574 880 574 884 q 574 872 574 876 q 573 863 574 868 q 572 845 573 857 q 570 810 572 832 q 567 751 569 788 q 563 721 566 729 q 547 710 560 712 q 423 710 488 710 q 300 709 357 709 q 289 713 292 709 q 286 729 286 718 l 305 938 q 310 969 307 960 q 325 979 312 977 q 443 980 383 979 q 570 981 504 981 q 576 980 575 981 q 577 973 577 979 z "},"":{"ha":940,"x_min":29,"x_max":965,"o":"m 45 50 q 64 89 54 67 q 81 137 73 111 l 100 182 q 75 221 87 200 q 52 265 62 243 q 36 310 42 288 q 29 353 29 332 q 40 356 29 355 q 66 357 50 357 q 101 358 82 358 q 135 359 119 359 q 162 360 151 359 q 172 360 172 360 q 203 437 188 401 q 233 511 218 474 q 262 588 248 549 q 292 671 277 627 q 348 819 321 755 q 399 938 375 883 q 408 950 401 945 q 422 960 414 956 q 436 967 429 964 q 448 971 444 970 q 468 977 450 972 q 509 989 486 983 q 555 1000 532 995 q 591 1004 578 1004 l 604 1004 q 624 999 614 1004 q 637 979 634 994 q 707 797 670 896 q 779 580 744 699 q 817 459 798 516 q 853 348 835 402 q 890 239 871 294 q 928 127 909 185 q 941 89 935 103 q 953 66 947 75 q 962 55 958 58 q 965 47 965 51 q 952 39 965 43 l 806 -9 q 773 -21 790 -15 q 741 -32 756 -27 q 715 -40 726 -37 q 699 -43 704 -43 l 695 -43 q 682 -37 686 -43 q 676 -26 677 -31 q 663 15 669 -3 q 649 51 656 33 q 636 89 643 68 q 624 137 630 109 q 616 143 623 140 q 602 146 610 145 q 584 148 593 148 q 566 149 574 149 q 525 148 541 149 q 496 148 509 148 q 473 147 484 147 q 446 146 462 146 q 405 147 426 146 q 368 148 385 147 l 329 149 q 294 58 311 100 q 256 -31 276 15 q 249 -39 254 -36 q 239 -43 244 -43 q 234 -42 235 -43 q 123 5 168 -18 q 45 50 79 28 m 503 659 q 470 550 486 599 q 441 463 454 500 q 418 398 428 425 q 405 358 409 372 l 405 352 q 404 347 405 348 l 567 347 q 551 414 559 380 q 534 485 543 448 q 518 565 526 522 q 503 659 510 608 m 437 1194 q 410 1242 421 1223 q 390 1278 399 1261 q 370 1314 380 1295 q 344 1362 359 1333 q 339 1376 340 1369 q 337 1388 338 1383 q 340 1400 337 1396 q 351 1408 344 1404 q 403 1437 376 1422 q 458 1467 431 1451 q 514 1498 486 1482 q 566 1532 541 1514 q 576 1535 573 1535 q 581 1530 580 1535 l 657 1133 q 660 1119 659 1124 q 661 1107 661 1113 q 659 1096 661 1101 q 650 1087 657 1090 q 624 1076 636 1081 q 600 1064 612 1070 q 575 1052 588 1059 q 545 1035 562 1045 q 538 1032 543 1032 q 524 1041 532 1032 q 506 1070 517 1050 q 478 1120 494 1089 q 437 1194 461 1151 z "},"":{"ha":940,"x_min":29,"x_max":965,"o":"m 45 50 q 64 89 54 67 q 81 137 73 111 l 100 182 q 75 221 87 200 q 52 265 62 243 q 36 310 42 288 q 29 353 29 332 q 40 356 29 355 q 66 357 50 357 q 101 358 82 358 q 135 359 119 359 q 162 360 151 359 q 172 360 172 360 q 203 437 188 401 q 233 511 218 474 q 262 588 248 549 q 292 671 277 627 q 348 819 321 755 q 399 938 375 883 q 408 950 401 945 q 422 960 414 956 q 436 967 429 964 q 448 971 444 970 q 468 977 450 972 q 509 989 486 983 q 555 1000 532 995 q 591 1004 578 1004 l 604 1004 q 624 999 614 1004 q 637 979 634 994 q 707 797 670 896 q 779 580 744 699 q 817 459 798 516 q 853 348 835 402 q 890 239 871 294 q 928 127 909 185 q 941 89 935 103 q 953 66 947 75 q 962 55 958 58 q 965 47 965 51 q 952 39 965 43 l 806 -9 q 773 -21 790 -15 q 741 -32 756 -27 q 715 -40 726 -37 q 699 -43 704 -43 l 695 -43 q 682 -37 686 -43 q 676 -26 677 -31 q 663 15 669 -3 q 649 51 656 33 q 636 89 643 68 q 624 137 630 109 q 616 143 623 140 q 602 146 610 145 q 584 148 593 148 q 566 149 574 149 q 525 148 541 149 q 496 148 509 148 q 473 147 484 147 q 446 146 462 146 q 405 147 426 146 q 368 148 385 147 l 329 149 q 294 58 311 100 q 256 -31 276 15 q 249 -39 254 -36 q 239 -43 244 -43 q 234 -42 235 -43 q 123 5 168 -18 q 45 50 79 28 m 503 659 q 470 550 486 599 q 441 463 454 500 q 418 398 428 425 q 405 358 409 372 l 405 352 q 404 347 405 348 l 567 347 q 551 414 559 380 q 534 485 543 448 q 518 565 526 522 q 503 659 510 608 m 529 1171 q 479 1102 499 1129 q 446 1060 459 1076 q 426 1038 433 1044 q 414 1032 418 1032 q 407 1035 410 1032 q 381 1052 393 1044 q 359 1064 370 1059 q 339 1076 349 1070 q 315 1087 328 1081 q 306 1101 306 1093 q 308 1114 307 1107 q 314 1133 310 1122 l 439 1497 q 446 1510 443 1507 q 454 1514 450 1514 q 460 1512 457 1514 q 467 1508 464 1510 q 573 1447 520 1472 q 677 1394 625 1421 q 689 1376 689 1387 q 677 1348 689 1365 q 634 1298 651 1318 q 601 1259 616 1278 q 570 1221 586 1241 q 529 1171 553 1200 z "},"":{"ha":940,"x_min":29,"x_max":965,"o":"m 45 50 q 64 89 54 67 q 81 137 73 111 l 100 182 q 75 221 87 200 q 52 265 62 243 q 36 310 42 288 q 29 353 29 332 q 40 356 29 355 q 66 357 50 357 q 101 358 82 358 q 135 359 119 359 q 162 360 151 359 q 172 360 172 360 q 203 437 188 401 q 233 511 218 474 q 262 588 248 549 q 292 671 277 627 q 348 819 321 755 q 399 938 375 883 q 408 950 401 945 q 422 960 414 956 q 436 967 429 964 q 448 971 444 970 q 468 977 450 972 q 509 989 486 983 q 555 1000 532 995 q 591 1004 578 1004 l 604 1004 q 624 999 614 1004 q 637 979 634 994 q 707 797 670 896 q 779 580 744 699 q 817 459 798 516 q 853 348 835 402 q 890 239 871 294 q 928 127 909 185 q 941 89 935 103 q 953 66 947 75 q 962 55 958 58 q 965 47 965 51 q 952 39 965 43 l 806 -9 q 773 -21 790 -15 q 741 -32 756 -27 q 715 -40 726 -37 q 699 -43 704 -43 l 695 -43 q 682 -37 686 -43 q 676 -26 677 -31 q 663 15 669 -3 q 649 51 656 33 q 636 89 643 68 q 624 137 630 109 q 616 143 623 140 q 602 146 610 145 q 584 148 593 148 q 566 149 574 149 q 525 148 541 149 q 496 148 509 148 q 473 147 484 147 q 446 146 462 146 q 405 147 426 146 q 368 148 385 147 l 329 149 q 294 58 311 100 q 256 -31 276 15 q 249 -39 254 -36 q 239 -43 244 -43 q 234 -42 235 -43 q 123 5 168 -18 q 45 50 79 28 m 503 659 q 470 550 486 599 q 441 463 454 500 q 418 398 428 425 q 405 358 409 372 l 405 352 q 404 347 405 348 l 567 347 q 551 414 559 380 q 534 485 543 448 q 518 565 526 522 q 503 659 510 608 m 695 1354 q 721 1321 710 1335 q 739 1295 731 1307 q 754 1273 747 1284 q 769 1251 761 1263 q 782 1232 773 1244 q 801 1206 791 1220 q 817 1179 810 1192 q 824 1156 824 1165 q 811 1137 824 1147 q 779 1119 798 1128 q 742 1103 761 1110 q 713 1091 724 1095 q 692 1082 703 1088 q 670 1071 681 1076 q 649 1062 659 1065 q 635 1058 640 1058 q 624 1064 630 1058 q 610 1084 618 1069 l 522 1271 q 440 1167 481 1218 q 357 1064 399 1117 q 349 1059 355 1059 q 333 1065 345 1059 q 303 1079 320 1071 q 269 1095 286 1086 q 237 1110 251 1104 q 219 1119 230 1114 q 197 1129 208 1124 q 180 1140 187 1135 q 173 1150 173 1145 q 179 1166 173 1157 q 199 1187 185 1175 l 301 1303 q 376 1386 340 1345 q 450 1470 413 1427 q 468 1480 459 1479 q 485 1481 477 1481 l 588 1481 q 604 1480 596 1481 q 618 1469 612 1478 q 627 1455 618 1468 q 646 1426 635 1443 q 671 1389 658 1409 q 695 1354 684 1369 z "},"":{"ha":940,"x_min":29,"x_max":965,"o":"m 45 50 q 64 89 54 67 q 81 137 73 111 l 100 182 q 75 221 87 200 q 52 265 62 243 q 36 310 42 288 q 29 353 29 332 q 40 356 29 355 q 66 357 50 357 q 101 358 82 358 q 135 359 119 359 q 162 360 151 359 q 172 360 172 360 q 203 437 188 401 q 233 511 218 474 q 262 588 248 549 q 292 671 277 627 q 348 819 321 755 q 399 938 375 883 q 408 950 401 945 q 422 960 414 956 q 436 967 429 964 q 448 971 444 970 q 468 977 450 972 q 509 989 486 983 q 555 1000 532 995 q 591 1004 578 1004 l 604 1004 q 624 999 614 1004 q 637 979 634 994 q 707 797 670 896 q 779 580 744 699 q 817 459 798 516 q 853 348 835 402 q 890 239 871 294 q 928 127 909 185 q 941 89 935 103 q 953 66 947 75 q 962 55 958 58 q 965 47 965 51 q 952 39 965 43 l 806 -9 q 773 -21 790 -15 q 741 -32 756 -27 q 715 -40 726 -37 q 699 -43 704 -43 l 695 -43 q 682 -37 686 -43 q 676 -26 677 -31 q 663 15 669 -3 q 649 51 656 33 q 636 89 643 68 q 624 137 630 109 q 616 143 623 140 q 602 146 610 145 q 584 148 593 148 q 566 149 574 149 q 525 148 541 149 q 496 148 509 148 q 473 147 484 147 q 446 146 462 146 q 405 147 426 146 q 368 148 385 147 l 329 149 q 294 58 311 100 q 256 -31 276 15 q 249 -39 254 -36 q 239 -43 244 -43 q 234 -42 235 -43 q 123 5 168 -18 q 45 50 79 28 m 503 659 q 470 550 486 599 q 441 463 454 500 q 418 398 428 425 q 405 358 409 372 l 405 352 q 404 347 405 348 l 567 347 q 551 414 559 380 q 534 485 543 448 q 518 565 526 522 q 503 659 510 608 m 574 1297 q 598 1272 587 1280 q 624 1265 609 1265 q 654 1276 645 1265 q 667 1301 663 1287 q 673 1326 671 1315 q 681 1337 675 1337 q 692 1338 682 1337 q 716 1339 702 1338 q 747 1340 730 1339 q 779 1342 764 1341 q 805 1343 794 1343 q 819 1343 817 1343 q 831 1341 825 1343 q 837 1331 837 1338 q 820 1232 837 1282 q 771 1141 802 1182 q 695 1075 739 1101 q 597 1050 651 1050 q 554 1054 576 1050 q 512 1069 533 1058 q 469 1100 490 1080 q 425 1153 447 1120 q 400 1174 413 1169 q 370 1178 388 1178 q 344 1171 354 1178 q 328 1154 334 1164 q 319 1129 321 1143 q 317 1103 317 1116 q 311 1093 317 1098 q 297 1088 306 1088 q 262 1087 275 1088 q 238 1087 249 1087 q 214 1086 227 1086 q 181 1086 201 1086 q 167 1088 174 1086 q 161 1097 161 1091 q 179 1214 161 1161 q 229 1303 197 1266 q 302 1361 260 1341 q 393 1382 345 1382 q 443 1380 420 1382 q 489 1370 467 1378 q 531 1345 511 1362 q 574 1297 552 1328 z "},"":{"ha":940,"x_min":29,"x_max":965,"o":"m 45 50 q 64 89 54 67 q 81 137 73 111 l 100 182 q 75 221 87 200 q 52 265 62 243 q 36 310 42 288 q 29 353 29 332 q 40 356 29 355 q 66 357 50 357 q 101 358 82 358 q 135 359 119 359 q 162 360 151 359 q 172 360 172 360 q 203 437 188 401 q 233 511 218 474 q 262 588 248 549 q 292 671 277 627 q 348 819 321 755 q 399 938 375 883 q 408 950 401 945 q 422 960 414 956 q 436 967 429 964 q 448 971 444 970 q 468 977 450 972 q 509 989 486 983 q 555 1000 532 995 q 591 1004 578 1004 l 604 1004 q 624 999 614 1004 q 637 979 634 994 q 707 797 670 896 q 779 580 744 699 q 817 459 798 516 q 853 348 835 402 q 890 239 871 294 q 928 127 909 185 q 941 89 935 103 q 953 66 947 75 q 962 55 958 58 q 965 47 965 51 q 952 39 965 43 l 806 -9 q 773 -21 790 -15 q 741 -32 756 -27 q 715 -40 726 -37 q 699 -43 704 -43 l 695 -43 q 682 -37 686 -43 q 676 -26 677 -31 q 663 15 669 -3 q 649 51 656 33 q 636 89 643 68 q 624 137 630 109 q 616 143 623 140 q 602 146 610 145 q 584 148 593 148 q 566 149 574 149 q 525 148 541 149 q 496 148 509 148 q 473 147 484 147 q 446 146 462 146 q 405 147 426 146 q 368 148 385 147 l 329 149 q 294 58 311 100 q 256 -31 276 15 q 249 -39 254 -36 q 239 -43 244 -43 q 234 -42 235 -43 q 123 5 168 -18 q 45 50 79 28 m 503 659 q 470 550 486 599 q 441 463 454 500 q 418 398 428 425 q 405 358 409 372 l 405 352 q 404 347 405 348 l 567 347 q 551 414 559 380 q 534 485 543 448 q 518 565 526 522 q 503 659 510 608 m 155 1059 q 158 1115 157 1098 q 159 1140 159 1133 q 159 1150 159 1147 q 160 1162 159 1153 q 161 1193 160 1172 q 164 1258 162 1214 q 169 1286 165 1278 q 182 1295 172 1294 q 295 1296 235 1295 q 405 1297 354 1297 q 414 1293 412 1297 q 417 1279 417 1289 l 400 1090 q 395 1063 398 1071 q 382 1054 393 1055 q 276 1053 331 1053 q 162 1053 222 1053 q 157 1053 159 1053 q 155 1057 155 1054 l 155 1059 m 580 1058 q 583 1121 582 1101 q 584 1151 584 1142 q 584 1162 585 1160 q 584 1173 584 1165 q 586 1199 585 1181 q 589 1257 587 1217 q 593 1285 591 1277 q 606 1294 596 1293 q 719 1294 660 1294 q 829 1295 778 1295 q 838 1293 834 1295 q 842 1282 842 1290 l 825 1090 q 820 1062 823 1069 q 806 1053 818 1055 q 699 1052 754 1053 q 583 1051 644 1051 q 581 1052 581 1051 q 580 1055 580 1052 l 580 1058 z "},"":{"ha":940,"x_min":29,"x_max":965,"o":"m 45 50 q 64 89 54 67 q 81 137 73 111 l 100 182 q 75 221 87 200 q 52 265 62 243 q 36 310 42 288 q 29 353 29 332 q 40 356 29 355 q 66 357 50 357 q 101 358 82 358 q 135 359 119 359 q 162 360 151 359 q 172 360 172 360 q 203 437 188 401 q 233 511 218 474 q 262 588 248 549 q 292 671 277 627 q 348 819 321 755 q 399 938 375 883 q 408 950 401 945 q 422 960 414 956 q 436 967 429 964 q 448 971 444 970 q 468 977 450 972 q 509 989 486 983 q 555 1000 532 995 q 591 1004 578 1004 l 604 1004 q 624 999 614 1004 q 637 979 634 994 q 707 797 670 896 q 779 580 744 699 q 817 459 798 516 q 853 348 835 402 q 890 239 871 294 q 928 127 909 185 q 941 89 935 103 q 953 66 947 75 q 962 55 958 58 q 965 47 965 51 q 952 39 965 43 l 806 -9 q 773 -21 790 -15 q 741 -32 756 -27 q 715 -40 726 -37 q 699 -43 704 -43 l 695 -43 q 682 -37 686 -43 q 676 -26 677 -31 q 663 15 669 -3 q 649 51 656 33 q 636 89 643 68 q 624 137 630 109 q 616 143 623 140 q 602 146 610 145 q 584 148 593 148 q 566 149 574 149 q 525 148 541 149 q 496 148 509 148 q 473 147 484 147 q 446 146 462 146 q 405 147 426 146 q 368 148 385 147 l 329 149 q 294 58 311 100 q 256 -31 276 15 q 249 -39 254 -36 q 239 -43 244 -43 q 234 -42 235 -43 q 123 5 168 -18 q 45 50 79 28 m 503 659 q 470 550 486 599 q 441 463 454 500 q 418 398 428 425 q 405 358 409 372 l 405 352 q 404 347 405 348 l 567 347 q 551 414 559 380 q 534 485 543 448 q 518 565 526 522 q 503 659 510 608 m 496 1035 q 422 1047 456 1035 q 362 1082 387 1059 q 322 1139 336 1105 q 307 1215 307 1172 q 323 1288 307 1253 q 366 1348 338 1322 q 430 1389 393 1374 q 509 1404 467 1404 q 579 1392 547 1404 q 637 1358 612 1380 q 675 1303 661 1335 q 689 1233 689 1272 q 675 1161 689 1196 q 637 1097 662 1125 q 577 1052 612 1069 q 496 1035 541 1035 m 567 1215 q 568 1222 568 1219 q 568 1229 568 1225 q 565 1255 568 1241 q 555 1281 562 1269 q 538 1300 549 1293 q 511 1308 527 1308 q 472 1299 488 1308 q 445 1277 455 1291 q 429 1247 434 1264 q 424 1214 424 1231 q 427 1187 424 1201 q 436 1162 429 1173 q 454 1142 443 1150 q 484 1134 466 1135 q 519 1141 505 1134 q 544 1160 534 1148 q 559 1186 553 1172 q 567 1215 565 1201 z "},"":{"ha":1179,"x_min":10,"x_max":1197,"o":"m 1063 549 q 1058 522 1061 539 q 1049 484 1054 505 q 1038 437 1044 462 q 1025 387 1031 412 q 1021 373 1023 377 q 1011 366 1018 368 q 991 364 1004 364 q 954 363 978 363 l 860 361 l 882 168 l 1188 189 q 1197 175 1197 189 q 1194 161 1197 167 q 1187 143 1194 160 q 1171 103 1181 126 q 1152 56 1162 80 q 1135 19 1141 33 q 1122 0 1130 7 q 1104 -11 1114 -7 q 1081 -15 1094 -14 q 1052 -16 1067 -16 q 946 -17 1001 -16 q 837 -19 891 -18 q 730 -22 782 -20 q 634 -26 678 -24 q 624 -28 629 -26 q 612 -29 619 -29 q 600 -23 603 -29 q 597 -12 597 -18 q 588 63 592 28 q 578 137 584 97 q 572 143 577 140 q 558 146 566 145 q 541 148 550 148 q 523 149 531 149 q 491 148 503 149 q 469 148 479 148 q 450 147 459 147 q 429 146 441 146 q 389 147 409 146 q 351 148 368 147 l 313 149 q 294 119 303 134 q 275 89 284 104 q 254 54 266 75 q 229 13 241 33 q 203 -22 216 -7 q 183 -36 191 -36 q 178 -35 179 -36 q 79 12 119 -12 q 10 56 39 35 q 37 96 23 74 q 63 137 52 118 l 90 182 q 65 248 77 210 q 54 326 54 285 q 57 353 54 342 q 68 356 57 355 q 95 357 79 357 q 129 358 111 358 q 164 359 148 359 q 191 359 180 359 q 201 360 201 359 q 217 388 201 359 q 259 464 233 417 q 319 570 286 511 q 388 691 352 629 q 457 812 423 753 q 519 916 492 871 q 531 929 524 923 q 547 939 539 935 q 563 945 555 943 q 575 949 570 948 q 596 951 578 949 q 637 956 614 954 q 684 960 661 958 q 722 962 708 962 l 901 972 q 970 977 936 975 q 1035 980 1005 979 q 1086 982 1064 981 q 1116 983 1107 983 q 1121 983 1117 983 q 1129 980 1125 983 q 1137 970 1133 977 q 1140 951 1140 964 q 1139 936 1140 946 q 1135 911 1137 925 q 1131 883 1133 898 q 1125 852 1128 867 l 1112 774 q 1105 756 1109 762 q 1080 749 1101 750 q 967 745 1029 748 q 822 739 904 742 l 838 573 q 905 576 872 574 q 964 578 937 577 q 1011 580 991 579 q 1039 581 1031 581 q 1043 580 1039 581 q 1051 577 1046 580 q 1059 568 1055 574 q 1063 549 1063 561 m 503 508 q 479 458 491 483 q 458 413 468 433 q 442 377 449 392 q 433 358 435 363 q 430 347 433 353 l 566 347 q 565 413 566 378 q 565 486 565 448 q 564 562 564 524 q 564 637 564 600 l 503 508 z "},"":{"ha":879,"x_min":87,"x_max":900,"o":"m 87 458 q 105 602 87 533 q 156 730 123 671 q 236 839 189 790 q 342 923 283 888 q 468 977 400 958 q 612 996 536 996 q 716 988 671 996 q 795 968 762 980 q 851 942 829 956 q 889 915 874 928 q 888 910 888 915 q 890 873 888 900 q 894 812 892 846 q 898 745 897 779 q 900 686 900 711 q 897 676 900 682 q 884 671 895 671 q 869 673 878 671 q 833 692 854 677 q 782 723 811 707 q 718 751 753 739 q 640 764 682 764 q 539 742 585 764 q 462 681 494 720 q 412 589 430 642 q 395 473 395 536 q 407 367 395 417 q 444 278 419 316 q 506 217 469 240 q 591 195 543 195 q 660 197 630 195 q 715 206 690 200 q 766 222 741 212 q 819 248 791 233 q 826 249 821 249 q 832 245 831 249 q 834 230 834 241 l 834 149 q 834 105 834 126 q 833 66 833 83 q 832 39 833 50 q 831 28 832 28 q 765 -4 800 9 q 691 -23 729 -16 q 616 -33 654 -31 q 543 -35 578 -35 q 363 1 447 -35 q 219 102 280 37 q 122 258 157 168 q 87 458 87 349 m 643 -262 q 620 -320 637 -294 q 579 -365 603 -346 q 526 -394 555 -383 q 465 -404 496 -404 q 405 -400 437 -404 q 350 -382 374 -396 l 351 -383 q 351 -378 351 -382 q 352 -357 351 -370 q 354 -330 353 -345 q 358 -302 356 -315 q 363 -279 361 -288 l 367 -279 q 371 -281 371 -279 l 370 -281 q 391 -289 381 -286 q 411 -294 400 -292 q 434 -296 421 -296 q 463 -297 446 -297 q 507 -280 492 -297 q 523 -241 523 -263 q 510 -208 523 -221 q 476 -195 498 -195 q 412 -192 439 -195 q 376 -189 386 -189 q 369 -186 370 -189 q 368 -180 368 -184 q 376 -159 372 -174 q 385 -126 380 -144 q 394 -89 390 -109 q 402 -53 399 -69 q 409 -25 406 -36 q 411 -12 411 -14 l 424 -12 q 454 -12 435 -12 q 490 -12 472 -12 l 532 -12 l 500 -108 q 521 -105 511 -106 q 540 -104 531 -104 q 595 -116 574 -104 q 627 -144 616 -127 q 642 -184 638 -162 q 646 -230 646 -207 q 645 -246 646 -238 q 643 -262 644 -254 z "},"":{"ha":799,"x_min":92,"x_max":856,"o":"m 694 563 q 684 536 691 553 q 666 497 676 519 q 645 451 656 475 q 623 401 634 426 q 616 387 619 391 q 605 380 612 382 q 584 378 597 378 q 547 377 571 378 l 453 375 l 434 168 l 782 168 l 782 141 q 770 123 781 140 q 747 83 760 106 q 718 37 733 60 q 693 -1 703 14 q 677 -20 686 -13 q 658 -31 669 -27 q 635 -35 648 -34 q 608 -35 623 -35 q 480 -33 547 -35 q 349 -26 414 -30 q 220 -17 283 -22 q 104 -6 157 -12 q 95 -1 99 -5 q 92 10 92 4 q 95 22 89 10 q 113 52 102 33 q 139 93 125 70 q 165 140 153 117 l 176 293 q 181 351 179 332 q 182 371 182 370 q 122 375 142 372 q 102 390 102 378 q 112 410 102 395 q 136 445 121 425 q 166 485 150 464 q 194 524 182 506 l 211 754 l 209 754 q 182 753 194 753 q 159 753 170 753 q 113 756 127 753 q 99 770 99 760 q 107 790 99 775 q 127 824 115 805 q 153 865 140 844 q 178 905 167 886 l 218 974 l 502 974 l 836 998 q 840 998 837 998 q 846 996 843 998 q 853 990 850 994 q 856 979 856 986 l 846 943 q 834 912 841 928 q 819 878 827 895 l 789 799 q 779 781 785 787 q 753 774 772 775 q 638 770 701 773 q 492 764 574 767 q 490 749 490 755 q 488 727 490 743 l 485 696 q 481 649 484 674 q 474 587 478 624 q 542 590 509 589 q 602 592 574 591 q 649 594 629 593 q 677 595 669 595 q 689 591 682 595 q 696 575 696 587 q 694 563 696 570 m 411 1194 q 385 1242 395 1223 q 364 1278 374 1261 q 344 1314 355 1295 q 318 1362 333 1333 q 313 1376 314 1369 q 311 1388 312 1383 q 315 1400 311 1396 q 325 1408 318 1404 q 377 1437 350 1422 q 433 1467 405 1451 q 488 1498 460 1482 q 541 1532 515 1514 q 550 1535 547 1535 q 555 1530 554 1535 l 631 1133 q 634 1119 633 1124 q 635 1107 635 1113 q 633 1096 635 1101 q 625 1087 631 1090 q 598 1076 610 1081 q 574 1064 586 1070 q 549 1052 562 1059 q 519 1035 536 1045 q 512 1032 517 1032 q 498 1041 506 1032 q 480 1070 491 1050 q 452 1120 469 1089 q 411 1194 435 1151 z "},"":{"ha":799,"x_min":92,"x_max":856,"o":"m 694 563 q 684 536 691 553 q 666 497 676 519 q 645 451 656 475 q 623 401 634 426 q 616 387 619 391 q 605 380 612 382 q 584 378 597 378 q 547 377 571 378 l 453 375 l 434 168 l 782 168 l 782 141 q 770 123 781 140 q 747 83 760 106 q 718 37 733 60 q 693 -1 703 14 q 677 -20 686 -13 q 658 -31 669 -27 q 635 -35 648 -34 q 608 -35 623 -35 q 480 -33 547 -35 q 349 -26 414 -30 q 220 -17 283 -22 q 104 -6 157 -12 q 95 -1 99 -5 q 92 10 92 4 q 95 22 89 10 q 113 52 102 33 q 139 93 125 70 q 165 140 153 117 l 176 293 q 181 351 179 332 q 182 371 182 370 q 122 375 142 372 q 102 390 102 378 q 112 410 102 395 q 136 445 121 425 q 166 485 150 464 q 194 524 182 506 l 211 754 l 209 754 q 182 753 194 753 q 159 753 170 753 q 113 756 127 753 q 99 770 99 760 q 107 790 99 775 q 127 824 115 805 q 153 865 140 844 q 178 905 167 886 l 218 974 l 502 974 l 836 998 q 840 998 837 998 q 846 996 843 998 q 853 990 850 994 q 856 979 856 986 l 846 943 q 834 912 841 928 q 819 878 827 895 l 789 799 q 779 781 785 787 q 753 774 772 775 q 638 770 701 773 q 492 764 574 767 q 490 749 490 755 q 488 727 490 743 l 485 696 q 481 649 484 674 q 474 587 478 624 q 542 590 509 589 q 602 592 574 591 q 649 594 629 593 q 677 595 669 595 q 689 591 682 595 q 696 575 696 587 q 694 563 696 570 m 504 1171 q 454 1102 474 1129 q 421 1060 434 1076 q 401 1038 408 1044 q 389 1032 393 1032 q 382 1035 385 1032 q 356 1052 368 1044 q 334 1064 345 1059 q 314 1076 324 1070 q 290 1087 303 1081 q 281 1101 281 1093 q 283 1114 281 1107 q 289 1133 285 1122 l 414 1497 q 421 1510 418 1507 q 429 1514 425 1514 q 435 1512 432 1514 q 442 1508 439 1510 q 548 1447 495 1472 q 652 1394 600 1421 q 664 1376 664 1387 q 652 1348 664 1365 q 609 1298 626 1318 q 576 1259 591 1278 q 545 1221 561 1241 q 504 1171 528 1200 z "},"":{"ha":799,"x_min":92,"x_max":856,"o":"m 694 563 q 684 536 691 553 q 666 497 676 519 q 645 451 656 475 q 623 401 634 426 q 616 387 619 391 q 605 380 612 382 q 584 378 597 378 q 547 377 571 378 l 453 375 l 434 168 l 782 168 l 782 141 q 770 123 781 140 q 747 83 760 106 q 718 37 733 60 q 693 -1 703 14 q 677 -20 686 -13 q 658 -31 669 -27 q 635 -35 648 -34 q 608 -35 623 -35 q 480 -33 547 -35 q 349 -26 414 -30 q 220 -17 283 -22 q 104 -6 157 -12 q 95 -1 99 -5 q 92 10 92 4 q 95 22 89 10 q 113 52 102 33 q 139 93 125 70 q 165 140 153 117 l 176 293 q 181 351 179 332 q 182 371 182 370 q 122 375 142 372 q 102 390 102 378 q 112 410 102 395 q 136 445 121 425 q 166 485 150 464 q 194 524 182 506 l 211 754 l 209 754 q 182 753 194 753 q 159 753 170 753 q 113 756 127 753 q 99 770 99 760 q 107 790 99 775 q 127 824 115 805 q 153 865 140 844 q 178 905 167 886 l 218 974 l 502 974 l 836 998 q 840 998 837 998 q 846 996 843 998 q 853 990 850 994 q 856 979 856 986 l 846 943 q 834 912 841 928 q 819 878 827 895 l 789 799 q 779 781 785 787 q 753 774 772 775 q 638 770 701 773 q 492 764 574 767 q 490 749 490 755 q 488 727 490 743 l 485 696 q 481 649 484 674 q 474 587 478 624 q 542 590 509 589 q 602 592 574 591 q 649 594 629 593 q 677 595 669 595 q 689 591 682 595 q 696 575 696 587 q 694 563 696 570 m 670 1354 q 695 1321 685 1335 q 714 1295 706 1307 q 729 1273 722 1284 q 744 1251 736 1263 q 757 1232 748 1244 q 775 1206 766 1220 q 792 1179 785 1192 q 799 1156 799 1165 q 786 1137 799 1147 q 754 1119 772 1128 q 717 1103 736 1110 q 688 1091 699 1095 q 667 1082 678 1088 q 645 1071 656 1076 q 624 1062 633 1065 q 610 1058 615 1058 q 599 1064 605 1058 q 585 1084 593 1069 l 497 1271 q 415 1167 456 1218 q 332 1064 374 1117 q 323 1059 330 1059 q 308 1065 320 1059 q 278 1079 295 1071 q 243 1095 261 1086 q 212 1110 226 1104 q 194 1119 205 1114 q 172 1129 182 1124 q 155 1140 162 1135 q 148 1150 148 1145 q 154 1166 148 1157 q 174 1187 160 1175 l 276 1303 q 351 1386 315 1345 q 425 1470 388 1427 q 443 1480 434 1479 q 460 1481 452 1481 l 563 1481 q 579 1480 571 1481 q 593 1469 587 1478 q 602 1455 593 1468 q 621 1426 610 1443 q 646 1389 633 1409 q 670 1354 659 1369 z "},"":{"ha":799,"x_min":92,"x_max":856,"o":"m 694 563 q 684 536 691 553 q 666 497 676 519 q 645 451 656 475 q 623 401 634 426 q 616 387 619 391 q 605 380 612 382 q 584 378 597 378 q 547 377 571 378 l 453 375 l 434 168 l 782 168 l 782 141 q 770 123 781 140 q 747 83 760 106 q 718 37 733 60 q 693 -1 703 14 q 677 -20 686 -13 q 658 -31 669 -27 q 635 -35 648 -34 q 608 -35 623 -35 q 480 -33 547 -35 q 349 -26 414 -30 q 220 -17 283 -22 q 104 -6 157 -12 q 95 -1 99 -5 q 92 10 92 4 q 95 22 89 10 q 113 52 102 33 q 139 93 125 70 q 165 140 153 117 l 176 293 q 181 351 179 332 q 182 371 182 370 q 122 375 142 372 q 102 390 102 378 q 112 410 102 395 q 136 445 121 425 q 166 485 150 464 q 194 524 182 506 l 211 754 l 209 754 q 182 753 194 753 q 159 753 170 753 q 113 756 127 753 q 99 770 99 760 q 107 790 99 775 q 127 824 115 805 q 153 865 140 844 q 178 905 167 886 l 218 974 l 502 974 l 836 998 q 840 998 837 998 q 846 996 843 998 q 853 990 850 994 q 856 979 856 986 l 846 943 q 834 912 841 928 q 819 878 827 895 l 789 799 q 779 781 785 787 q 753 774 772 775 q 638 770 701 773 q 492 764 574 767 q 490 749 490 755 q 488 727 490 743 l 485 696 q 481 649 484 674 q 474 587 478 624 q 542 590 509 589 q 602 592 574 591 q 649 594 629 593 q 677 595 669 595 q 689 591 682 595 q 696 575 696 587 q 694 563 696 570 m 130 1059 q 132 1115 132 1098 q 133 1140 133 1133 q 134 1150 134 1147 q 134 1162 134 1153 q 135 1193 134 1172 q 138 1258 136 1214 q 143 1286 140 1278 q 157 1295 146 1294 q 269 1296 210 1295 q 379 1297 328 1297 q 389 1293 386 1297 q 391 1279 391 1289 l 374 1090 q 370 1063 372 1071 q 357 1054 367 1055 q 251 1053 305 1053 q 136 1053 196 1053 q 131 1053 133 1053 q 130 1057 130 1054 l 130 1059 m 554 1058 q 557 1121 556 1101 q 558 1151 558 1142 q 558 1162 559 1160 q 558 1173 558 1165 q 560 1199 559 1181 q 564 1257 561 1217 q 568 1285 565 1277 q 581 1294 570 1293 q 693 1294 634 1294 q 803 1295 752 1295 q 812 1293 808 1295 q 816 1282 816 1290 l 800 1090 q 794 1062 797 1069 q 781 1053 792 1055 q 673 1052 728 1053 q 557 1051 618 1051 q 555 1052 555 1051 q 554 1055 554 1052 l 554 1058 z "},"":{"ha":453,"x_min":94,"x_max":450,"o":"m 94 -22 l 128 442 q 153 785 145 675 q 161 893 161 894 q 163 913 162 905 q 165 927 163 922 q 171 935 168 932 q 181 939 174 938 l 416 996 q 434 998 425 998 q 447 992 444 998 q 450 969 450 987 q 443 890 446 927 q 438 821 440 854 q 435 756 437 787 q 432 695 434 726 q 425 629 428 662 q 419 560 422 595 q 413 485 416 524 q 406 398 410 445 l 376 41 q 374 29 376 35 q 365 20 372 23 q 357 17 364 20 q 337 10 349 14 q 309 1 325 5 q 274 -8 292 -4 q 221 -22 243 -15 q 180 -34 198 -28 q 148 -43 163 -40 q 118 -47 133 -47 q 101 -41 108 -47 q 94 -22 94 -36 m 207 1194 q 180 1242 191 1223 q 160 1278 170 1261 q 140 1314 151 1295 q 114 1362 129 1333 q 109 1376 110 1369 q 107 1388 108 1383 q 111 1400 107 1396 q 121 1408 114 1404 q 173 1437 146 1422 q 229 1467 201 1451 q 284 1498 256 1482 q 336 1532 311 1514 q 346 1535 343 1535 q 351 1530 350 1535 l 427 1133 q 430 1119 429 1124 q 431 1107 431 1113 q 429 1096 431 1101 q 420 1087 427 1090 q 394 1076 406 1081 q 370 1064 382 1070 q 345 1052 358 1059 q 315 1035 332 1045 q 308 1032 313 1032 q 294 1041 302 1032 q 276 1070 287 1050 q 248 1120 264 1089 q 207 1194 231 1151 z "},"":{"ha":453,"x_min":77,"x_max":460,"o":"m 94 -22 l 128 442 q 153 785 145 675 q 161 893 161 894 q 163 913 162 905 q 165 927 163 922 q 171 935 168 932 q 181 939 174 938 l 416 996 q 434 998 425 998 q 447 992 444 998 q 450 969 450 987 q 443 890 446 927 q 438 821 440 854 q 435 756 437 787 q 432 695 434 726 q 425 629 428 662 q 419 560 422 595 q 413 485 416 524 q 406 398 410 445 l 376 41 q 374 29 376 35 q 365 20 372 23 q 357 17 364 20 q 337 10 349 14 q 309 1 325 5 q 274 -8 292 -4 q 221 -22 243 -15 q 180 -34 198 -28 q 148 -43 163 -40 q 118 -47 133 -47 q 101 -41 108 -47 q 94 -22 94 -36 m 300 1171 q 250 1102 270 1129 q 217 1060 230 1076 q 197 1038 204 1044 q 184 1032 189 1032 q 178 1035 180 1032 q 152 1052 163 1044 q 130 1064 140 1059 q 110 1076 120 1070 q 86 1087 99 1081 q 77 1101 77 1093 q 79 1114 77 1107 q 85 1133 81 1122 l 210 1497 q 217 1510 214 1507 q 224 1514 220 1514 q 231 1512 228 1514 q 238 1508 235 1510 q 343 1447 291 1472 q 448 1394 396 1421 q 460 1376 460 1387 q 448 1348 460 1365 q 405 1298 422 1318 q 372 1259 387 1278 q 340 1221 357 1241 q 300 1171 324 1200 z "},"":{"ha":453,"x_min":-54,"x_max":597,"o":"m 94 -22 l 128 442 q 153 785 145 675 q 161 893 161 894 q 163 913 162 905 q 165 927 163 922 q 171 935 168 932 q 181 939 174 938 l 416 996 q 434 998 425 998 q 447 992 444 998 q 450 969 450 987 q 443 890 446 927 q 438 821 440 854 q 435 756 437 787 q 432 695 434 726 q 425 629 428 662 q 419 560 422 595 q 413 485 416 524 q 406 398 410 445 l 376 41 q 374 29 376 35 q 365 20 372 23 q 357 17 364 20 q 337 10 349 14 q 309 1 325 5 q 274 -8 292 -4 q 221 -22 243 -15 q 180 -34 198 -28 q 148 -43 163 -40 q 118 -47 133 -47 q 101 -41 108 -47 q 94 -22 94 -36 m 468 1354 q 493 1321 483 1335 q 512 1295 504 1307 q 527 1273 520 1284 q 542 1251 534 1263 q 555 1232 546 1244 q 573 1206 564 1220 q 590 1179 583 1192 q 597 1156 597 1165 q 584 1137 597 1147 q 552 1119 570 1128 q 515 1103 534 1110 q 486 1091 496 1095 q 465 1082 476 1088 q 443 1071 454 1076 q 422 1062 431 1065 q 408 1058 413 1058 q 397 1064 403 1058 q 382 1084 391 1069 l 295 1271 q 213 1167 254 1218 q 130 1064 172 1117 q 121 1059 127 1059 q 105 1065 118 1059 q 76 1079 93 1071 q 41 1095 59 1086 q 10 1110 24 1104 q -8 1119 3 1114 q -30 1129 -20 1124 q -47 1140 -40 1135 q -54 1150 -54 1145 q -48 1166 -54 1157 q -28 1187 -42 1175 l 74 1303 q 149 1386 113 1345 q 222 1470 186 1427 q 241 1480 232 1479 q 258 1481 250 1481 l 361 1481 q 377 1480 369 1481 q 391 1469 385 1478 q 399 1455 391 1468 q 419 1426 408 1443 q 444 1389 431 1409 q 468 1354 457 1369 z "},"":{"ha":453,"x_min":-73,"x_max":614,"o":"m 94 -22 l 128 442 q 153 785 145 675 q 161 893 161 894 q 163 913 162 905 q 165 927 163 922 q 171 935 168 932 q 181 939 174 938 l 416 996 q 434 998 425 998 q 447 992 444 998 q 450 969 450 987 q 443 890 446 927 q 438 821 440 854 q 435 756 437 787 q 432 695 434 726 q 425 629 428 662 q 419 560 422 595 q 413 485 416 524 q 406 398 410 445 l 376 41 q 374 29 376 35 q 365 20 372 23 q 357 17 364 20 q 337 10 349 14 q 309 1 325 5 q 274 -8 292 -4 q 221 -22 243 -15 q 180 -34 198 -28 q 148 -43 163 -40 q 118 -47 133 -47 q 101 -41 108 -47 q 94 -22 94 -36 m -73 1059 q -70 1115 -71 1098 q -69 1140 -69 1133 q -68 1150 -68 1147 q -68 1162 -68 1153 q -67 1193 -68 1172 q -64 1258 -66 1214 q -59 1286 -62 1278 q -45 1295 -56 1294 q 67 1296 7 1295 q 177 1297 126 1297 q 186 1293 184 1297 q 189 1279 189 1289 l 172 1090 q 168 1063 170 1071 q 155 1054 165 1055 q 48 1053 103 1053 q -66 1053 -6 1053 q -71 1053 -69 1053 q -73 1057 -73 1054 l -73 1059 m 352 1058 q 355 1121 354 1101 q 356 1151 356 1142 q 356 1162 357 1160 q 356 1173 356 1165 q 358 1199 357 1181 q 361 1257 359 1217 q 366 1285 363 1277 q 378 1294 368 1293 q 491 1294 432 1294 q 601 1295 550 1295 q 610 1293 606 1295 q 614 1282 614 1290 l 597 1090 q 592 1062 595 1069 q 578 1053 590 1055 q 471 1052 526 1053 q 355 1051 416 1051 q 353 1052 353 1051 q 352 1055 352 1052 l 352 1058 z "},"":{"ha":1050,"x_min":39,"x_max":1058,"o":"m 224 564 l 233 689 q 236 721 235 705 q 238 752 237 736 q 200 745 220 748 q 162 739 180 741 q 126 734 143 736 q 98 732 110 732 q 86 739 90 732 q 83 753 83 746 q 87 766 83 762 l 259 922 q 299 952 279 941 q 347 971 319 964 q 414 980 375 978 q 514 983 454 983 q 640 975 576 983 q 765 949 705 968 q 879 901 825 931 q 972 825 932 871 q 1035 718 1012 780 q 1058 574 1058 656 q 1023 369 1058 458 q 929 214 989 280 q 790 103 869 149 q 620 30 710 58 q 432 -13 529 1 q 243 -31 336 -27 l 119 -35 q 109 -27 112 -33 q 105 -14 105 -21 q 108 -3 105 -7 l 191 156 q 194 178 192 159 q 197 225 195 197 q 202 287 199 253 q 208 355 205 321 q 156 355 178 355 q 119 355 133 355 q 59 358 79 355 q 39 374 39 362 q 47 393 39 377 q 69 429 56 408 q 100 473 83 450 q 134 516 117 496 q 167 549 151 536 q 193 562 182 562 l 224 564 m 513 766 q 505 686 510 736 q 494 574 500 636 q 570 577 537 576 q 614 578 602 578 q 626 574 619 578 q 633 559 633 570 q 626 536 633 553 q 610 497 620 520 q 587 445 600 473 q 560 385 574 416 q 554 370 557 375 q 544 363 551 366 q 521 361 536 361 q 476 360 505 361 l 460 173 q 598 199 542 173 q 690 272 655 226 q 742 380 726 318 q 758 515 758 443 q 743 614 758 566 q 702 698 729 662 q 635 755 675 734 q 547 777 596 777 q 529 773 538 777 q 513 766 519 770 z "},"":{"ha":935,"x_min":102,"x_max":909,"o":"m 672 909 q 682 941 677 931 q 699 955 686 951 l 875 996 q 892 999 883 999 q 905 993 901 999 q 909 970 909 987 q 903 920 905 954 q 899 846 900 886 q 897 766 897 806 q 896 696 896 726 l 896 659 q 895 567 896 616 q 893 467 895 517 q 891 366 892 416 q 888 273 890 317 l 884 157 q 884 151 884 154 q 884 146 884 149 l 884 136 q 884 116 884 124 q 884 102 884 109 q 883 90 884 96 q 878 80 882 85 q 867 69 874 75 q 848 56 860 64 q 825 42 841 51 q 791 21 810 33 q 751 -3 772 9 q 714 -25 731 -15 q 687 -41 697 -35 q 676 -47 676 -47 l 361 437 l 333 41 q 331 29 332 35 q 321 20 329 23 q 300 11 315 17 q 266 -2 286 5 q 223 -17 245 -9 q 182 -32 201 -25 q 147 -42 162 -38 q 126 -46 132 -46 q 109 -41 116 -46 q 102 -21 102 -35 q 118 164 109 64 q 135 369 127 264 q 150 579 143 474 q 162 778 157 684 q 154 796 162 781 q 135 829 145 811 q 116 863 124 847 q 107 883 107 879 q 112 892 107 888 q 129 903 117 896 l 310 1005 q 316 1006 312 1005 q 322 1006 319 1006 q 334 1005 330 1006 q 343 994 338 1003 l 672 401 l 672 909 m 583 1297 q 607 1272 595 1280 q 633 1265 618 1265 q 663 1276 654 1265 q 676 1301 672 1287 q 682 1326 680 1315 q 690 1337 684 1337 q 701 1338 691 1337 q 725 1339 711 1338 q 756 1340 739 1339 q 788 1342 773 1341 q 814 1343 803 1343 q 828 1343 825 1343 q 840 1341 833 1343 q 846 1331 846 1338 q 828 1232 846 1282 q 780 1141 811 1182 q 704 1075 748 1101 q 606 1050 660 1050 q 563 1054 585 1050 q 520 1069 542 1058 q 477 1100 499 1080 q 433 1153 456 1120 q 409 1174 422 1169 q 379 1178 397 1178 q 353 1171 363 1178 q 336 1154 342 1164 q 328 1129 330 1143 q 326 1103 326 1116 q 320 1093 326 1098 q 306 1088 315 1088 q 271 1087 284 1088 q 247 1087 258 1087 q 223 1086 235 1086 q 190 1086 210 1086 q 176 1088 182 1086 q 170 1097 170 1091 q 188 1214 170 1161 q 238 1303 206 1266 q 311 1361 269 1341 q 401 1382 353 1382 q 452 1380 429 1382 q 497 1370 475 1378 q 540 1345 519 1362 q 583 1297 561 1328 z "},"":{"ha":1103,"x_min":85,"x_max":1101,"o":"m 384 463 q 394 365 384 414 q 429 276 405 315 q 494 212 454 237 q 593 188 534 188 q 672 207 638 191 q 731 248 707 222 q 772 306 756 273 q 798 375 789 339 q 811 450 808 412 q 815 523 815 488 q 802 616 815 571 q 764 696 789 661 q 700 751 738 730 q 610 772 661 772 q 538 758 570 772 q 481 718 506 743 q 438 661 456 693 q 408 594 420 629 q 390 526 396 560 q 384 463 385 492 m 516 -35 q 334 3 414 -35 q 199 105 254 41 q 114 255 144 170 q 85 435 85 340 q 115 632 85 542 q 199 791 145 722 q 329 908 254 861 q 493 979 404 956 q 506 992 501 979 q 513 1021 510 1005 q 522 1049 517 1036 q 535 1062 526 1062 q 772 1016 667 1048 q 950 922 877 983 q 1062 767 1023 861 q 1101 540 1101 674 q 1080 378 1101 454 q 1021 238 1059 302 q 930 123 983 174 q 812 37 877 73 q 672 -17 747 2 q 516 -35 597 -35 m 534 1194 q 507 1242 518 1223 q 487 1278 496 1261 q 467 1314 477 1295 q 441 1362 456 1333 q 436 1376 437 1369 q 434 1388 435 1383 q 437 1400 434 1396 q 448 1408 441 1404 q 500 1437 473 1422 q 555 1467 528 1451 q 611 1498 583 1482 q 663 1532 638 1514 q 673 1535 670 1535 q 678 1530 677 1535 l 754 1133 q 757 1119 755 1124 q 758 1107 758 1113 q 756 1096 758 1101 q 747 1087 754 1090 q 721 1076 733 1081 q 697 1064 709 1070 q 672 1052 685 1059 q 642 1035 659 1045 q 635 1032 640 1032 q 621 1041 629 1032 q 603 1070 614 1050 q 575 1120 591 1089 q 534 1194 558 1151 z "},"":{"ha":1103,"x_min":85,"x_max":1101,"o":"m 384 463 q 394 365 384 414 q 429 276 405 315 q 494 212 454 237 q 593 188 534 188 q 672 207 638 191 q 731 248 707 222 q 772 306 756 273 q 798 375 789 339 q 811 450 808 412 q 815 523 815 488 q 802 616 815 571 q 764 696 789 661 q 700 751 738 730 q 610 772 661 772 q 538 758 570 772 q 481 718 506 743 q 438 661 456 693 q 408 594 420 629 q 390 526 396 560 q 384 463 385 492 m 516 -35 q 334 3 414 -35 q 199 105 254 41 q 114 255 144 170 q 85 435 85 340 q 115 632 85 542 q 199 791 145 722 q 329 908 254 861 q 493 979 404 956 q 506 992 501 979 q 513 1021 510 1005 q 522 1049 517 1036 q 535 1062 526 1062 q 772 1016 667 1048 q 950 922 877 983 q 1062 767 1023 861 q 1101 540 1101 674 q 1080 378 1101 454 q 1021 238 1059 302 q 930 123 983 174 q 812 37 877 73 q 672 -17 747 2 q 516 -35 597 -35 m 626 1171 q 576 1102 596 1129 q 543 1060 556 1076 q 523 1038 530 1044 q 511 1032 515 1032 q 504 1035 507 1032 q 478 1052 490 1044 q 456 1064 467 1059 q 436 1076 446 1070 q 412 1087 425 1081 q 403 1101 403 1093 q 405 1114 404 1107 q 411 1133 407 1122 l 536 1497 q 543 1510 540 1507 q 551 1514 547 1514 q 557 1512 554 1514 q 564 1508 561 1510 q 670 1447 617 1472 q 774 1394 722 1421 q 786 1376 786 1387 q 774 1348 786 1365 q 731 1298 748 1318 q 698 1259 713 1278 q 667 1221 683 1241 q 626 1171 650 1200 z "},"":{"ha":1096,"x_min":81,"x_max":1098,"o":"m 380 463 q 391 365 380 414 q 426 276 401 315 q 490 212 450 237 q 589 188 530 188 q 669 207 635 191 q 728 248 703 222 q 769 306 753 273 q 795 375 785 339 q 808 450 804 412 q 812 523 812 488 q 799 616 812 571 q 760 696 786 661 q 696 751 734 730 q 607 772 658 772 q 535 758 567 772 q 477 718 503 743 q 434 661 452 693 q 405 594 416 629 q 387 526 393 560 q 380 463 381 492 m 513 -35 q 331 3 411 -35 q 196 105 251 41 q 111 255 140 170 q 81 435 81 340 q 112 632 81 542 q 196 791 142 722 q 325 908 250 861 q 490 979 400 956 q 502 992 498 979 q 510 1021 507 1005 q 518 1049 513 1036 q 532 1062 523 1062 q 768 1016 663 1048 q 947 922 873 983 q 1059 767 1020 861 q 1098 540 1098 674 q 1077 378 1098 454 q 1018 238 1056 302 q 927 123 980 174 q 808 37 873 73 q 668 -17 743 2 q 513 -35 593 -35 m 789 1354 q 814 1321 804 1335 q 833 1295 825 1307 q 848 1273 841 1284 q 863 1251 854 1263 q 876 1232 867 1244 q 894 1206 885 1220 q 910 1179 903 1192 q 918 1156 918 1165 q 904 1137 918 1147 q 873 1119 891 1128 q 836 1103 854 1110 q 806 1091 817 1095 q 786 1082 797 1088 q 763 1071 774 1076 q 743 1062 752 1065 q 729 1058 734 1058 q 718 1064 724 1058 q 703 1084 712 1069 l 616 1271 q 533 1167 574 1218 q 451 1064 492 1117 q 442 1059 448 1059 q 426 1065 439 1059 q 397 1079 414 1071 q 362 1095 380 1086 q 331 1110 345 1104 q 312 1119 323 1114 q 291 1129 301 1124 q 274 1140 281 1135 q 267 1150 267 1145 q 273 1166 267 1157 q 292 1187 279 1175 l 395 1303 q 470 1386 433 1345 q 543 1470 507 1427 q 562 1480 553 1479 q 578 1481 571 1481 l 682 1481 q 698 1480 690 1481 q 711 1469 706 1478 q 720 1455 712 1468 q 740 1426 728 1443 q 765 1389 751 1409 q 789 1354 778 1369 z "},"":{"ha":1096,"x_min":81,"x_max":1098,"o":"m 380 463 q 391 365 380 414 q 426 276 401 315 q 490 212 450 237 q 589 188 530 188 q 669 207 635 191 q 728 248 703 222 q 769 306 753 273 q 795 375 785 339 q 808 450 804 412 q 812 523 812 488 q 799 616 812 571 q 760 696 786 661 q 696 751 734 730 q 607 772 658 772 q 535 758 567 772 q 477 718 503 743 q 434 661 452 693 q 405 594 416 629 q 387 526 393 560 q 380 463 381 492 m 513 -35 q 331 3 411 -35 q 196 105 251 41 q 111 255 140 170 q 81 435 81 340 q 112 632 81 542 q 196 791 142 722 q 325 908 250 861 q 490 979 400 956 q 502 992 498 979 q 510 1021 507 1005 q 518 1049 513 1036 q 532 1062 523 1062 q 768 1016 663 1048 q 947 922 873 983 q 1059 767 1020 861 q 1098 540 1098 674 q 1077 378 1098 454 q 1018 238 1056 302 q 927 123 980 174 q 808 37 873 73 q 668 -17 743 2 q 513 -35 593 -35 m 667 1297 q 691 1272 680 1280 q 718 1265 703 1265 q 748 1276 739 1265 q 761 1301 757 1287 q 766 1326 764 1315 q 774 1337 768 1337 q 786 1338 776 1337 q 810 1339 795 1338 q 841 1340 824 1339 q 873 1342 858 1341 q 899 1343 888 1343 q 913 1343 910 1343 q 924 1341 918 1343 q 930 1331 930 1338 q 913 1232 930 1282 q 864 1141 896 1182 q 789 1075 833 1101 q 691 1050 745 1050 q 648 1054 669 1050 q 605 1069 627 1058 q 562 1100 584 1080 q 518 1153 541 1120 q 494 1174 507 1169 q 464 1178 481 1178 q 437 1171 448 1178 q 421 1154 427 1164 q 413 1129 415 1143 q 410 1103 410 1116 q 405 1093 410 1098 q 391 1088 399 1088 q 356 1087 369 1088 q 331 1087 342 1087 q 308 1086 320 1086 q 275 1086 295 1086 q 261 1088 267 1086 q 254 1097 254 1091 q 273 1214 254 1161 q 322 1303 291 1266 q 396 1361 354 1341 q 486 1382 438 1382 q 537 1380 513 1382 q 582 1370 560 1378 q 625 1345 604 1362 q 667 1297 646 1328 z "},"":{"ha":1096,"x_min":81,"x_max":1098,"o":"m 380 463 q 391 365 380 414 q 426 276 401 315 q 490 212 450 237 q 589 188 530 188 q 669 207 635 191 q 728 248 703 222 q 769 306 753 273 q 795 375 785 339 q 808 450 804 412 q 812 523 812 488 q 799 616 812 571 q 760 696 786 661 q 696 751 734 730 q 607 772 658 772 q 535 758 567 772 q 477 718 503 743 q 434 661 452 693 q 405 594 416 629 q 387 526 393 560 q 380 463 381 492 m 513 -35 q 331 3 411 -35 q 196 105 251 41 q 111 255 140 170 q 81 435 81 340 q 112 632 81 542 q 196 791 142 722 q 325 908 250 861 q 490 979 400 956 q 502 992 498 979 q 510 1021 507 1005 q 518 1049 513 1036 q 532 1062 523 1062 q 768 1016 663 1048 q 947 922 873 983 q 1059 767 1020 861 q 1098 540 1098 674 q 1077 378 1098 454 q 1018 238 1056 302 q 927 123 980 174 q 808 37 873 73 q 668 -17 743 2 q 513 -35 593 -35 m 249 1059 q 252 1115 251 1098 q 253 1140 252 1133 q 253 1150 253 1147 q 253 1162 253 1153 q 255 1193 254 1172 q 258 1258 256 1214 q 262 1286 259 1278 q 276 1295 266 1294 q 388 1296 329 1295 q 498 1297 448 1297 q 508 1293 505 1297 q 511 1279 511 1289 l 494 1090 q 489 1063 492 1071 q 476 1054 486 1055 q 370 1053 425 1053 q 256 1053 315 1053 q 251 1053 252 1053 q 249 1057 249 1054 l 249 1059 m 673 1058 q 676 1121 675 1101 q 678 1151 677 1142 q 678 1162 678 1160 q 678 1173 677 1165 q 679 1199 678 1181 q 683 1257 680 1217 q 687 1285 684 1277 q 700 1294 690 1293 q 812 1294 753 1294 q 922 1295 871 1295 q 931 1293 928 1295 q 935 1282 935 1290 l 919 1090 q 914 1062 916 1069 q 900 1053 911 1055 q 792 1052 848 1053 q 677 1051 737 1051 q 674 1052 675 1051 q 673 1055 673 1052 l 673 1058 z "},"":{"ha":671,"x_min":106,"x_max":648,"o":"m 372 313 q 306 244 332 272 q 262 198 279 216 q 233 173 244 180 q 213 165 222 165 q 205 168 208 165 q 194 181 202 170 q 176 207 186 192 q 154 240 165 222 q 133 273 142 257 q 117 300 123 288 q 111 316 111 312 q 114 329 111 322 q 123 343 116 336 l 242 465 l 233 476 q 139 584 172 546 q 106 633 106 623 q 109 643 106 637 q 120 657 113 648 q 141 679 127 665 q 175 714 155 692 l 219 761 q 233 766 229 766 q 244 762 239 766 q 257 749 250 758 l 292 711 q 332 668 309 692 q 380 612 354 643 l 388 621 q 485 722 450 685 q 529 758 519 758 q 538 754 534 758 q 549 742 543 751 q 561 727 553 737 q 579 704 569 717 q 601 676 590 690 q 622 651 612 663 q 637 633 631 640 q 643 625 643 625 q 646 616 645 621 q 648 608 648 612 q 632 582 648 598 q 598 547 616 566 l 512 458 l 600 357 q 632 314 622 332 q 644 286 643 296 q 641 278 644 281 q 630 267 639 276 q 608 244 621 257 q 580 217 595 231 q 551 190 565 202 q 527 170 538 178 q 513 162 517 162 q 501 165 507 162 q 489 176 495 168 l 372 313 z "},"":{"ha":1101,"x_min":83,"x_max":1099,"o":"m 528 -35 q 452 -28 489 -35 l 408 -121 q 400 -141 402 -132 q 388 -151 398 -151 q 370 -146 380 -151 l 302 -117 q 286 -112 296 -115 q 263 -103 275 -108 q 244 -91 252 -98 q 235 -75 235 -84 q 240 -57 235 -69 q 253 -29 245 -45 q 269 3 260 -14 q 286 36 278 20 q 200 113 237 68 q 136 212 162 158 q 97 326 111 265 q 83 451 83 387 q 129 669 83 571 q 252 836 174 766 q 431 944 329 906 q 648 982 534 982 q 742 972 694 982 q 759 1008 751 989 q 775 1041 767 1026 q 790 1066 783 1056 q 803 1076 797 1076 l 808 1076 q 880 1043 844 1061 q 951 1019 916 1026 q 959 1016 956 1018 q 962 1010 962 1014 l 962 1008 l 909 901 q 988 829 953 870 q 1048 739 1023 787 q 1085 634 1072 690 q 1099 518 1099 578 q 1078 362 1099 435 q 1021 227 1058 288 q 931 117 983 165 q 816 35 880 68 q 679 -17 752 1 q 528 -35 606 -35 m 382 463 q 390 376 382 419 q 415 295 397 334 q 458 384 439 343 q 495 465 477 425 q 533 546 513 505 q 576 638 552 588 l 646 779 q 623 782 635 781 q 600 783 612 783 q 527 768 559 783 q 470 726 494 752 q 429 667 446 701 q 402 598 412 634 q 387 527 392 562 q 382 463 382 492 m 812 513 q 806 585 812 549 q 786 651 800 620 l 554 178 q 599 174 574 174 q 675 193 642 177 q 731 235 707 210 q 771 294 755 261 q 796 363 787 327 q 809 438 805 400 q 812 513 812 476 z "},"":{"ha":935,"x_min":103,"x_max":937,"o":"m 937 970 q 932 916 935 951 q 924 835 928 880 q 915 741 920 790 q 906 646 910 691 q 898 564 901 601 q 893 509 895 528 q 845 261 879 365 q 755 92 810 158 q 622 -4 699 26 q 442 -35 544 -35 q 311 -10 372 -35 q 203 62 249 16 q 130 173 157 108 q 103 317 103 237 q 105 354 103 327 q 110 419 106 380 q 116 507 113 458 q 124 612 120 556 l 132 724 q 138 827 136 786 q 143 893 140 868 q 150 930 145 918 q 165 945 155 941 l 396 996 q 414 999 405 999 q 429 993 425 999 q 433 970 433 987 l 381 435 q 376 384 380 412 q 373 327 373 356 q 377 288 373 309 q 393 249 382 267 q 425 217 405 230 q 477 205 445 205 q 539 221 515 205 q 577 266 563 238 q 598 328 591 293 q 608 399 604 363 q 616 500 612 442 q 626 623 621 557 l 646 894 q 647 914 647 906 q 649 928 648 922 q 655 936 650 933 q 669 940 659 939 l 900 996 q 918 999 909 999 q 932 993 928 999 q 937 970 937 987 m 452 1194 q 426 1242 437 1223 q 406 1278 415 1261 q 385 1314 396 1295 q 359 1362 374 1333 q 354 1376 355 1369 q 353 1388 353 1383 q 356 1400 353 1396 q 366 1408 359 1404 q 419 1437 391 1422 q 474 1467 446 1451 q 529 1498 502 1482 q 582 1532 557 1514 q 591 1535 589 1535 q 597 1530 595 1535 l 673 1133 q 675 1119 674 1124 q 677 1107 677 1113 q 675 1096 677 1101 q 666 1087 673 1090 q 640 1076 652 1081 q 615 1064 627 1070 q 590 1052 604 1059 q 561 1035 577 1045 q 553 1032 558 1032 q 540 1041 547 1032 q 521 1070 532 1050 q 493 1120 510 1089 q 452 1194 477 1151 z "},"":{"ha":935,"x_min":103,"x_max":937,"o":"m 937 970 q 932 916 935 951 q 924 835 928 880 q 915 741 920 790 q 906 646 910 691 q 898 564 901 601 q 893 509 895 528 q 845 261 879 365 q 755 92 810 158 q 622 -4 699 26 q 442 -35 544 -35 q 311 -10 372 -35 q 203 62 249 16 q 130 173 157 108 q 103 317 103 237 q 105 354 103 327 q 110 419 106 380 q 116 507 113 458 q 124 612 120 556 l 132 724 q 138 827 136 786 q 143 893 140 868 q 150 930 145 918 q 165 945 155 941 l 396 996 q 414 999 405 999 q 429 993 425 999 q 433 970 433 987 l 381 435 q 376 384 380 412 q 373 327 373 356 q 377 288 373 309 q 393 249 382 267 q 425 217 405 230 q 477 205 445 205 q 539 221 515 205 q 577 266 563 238 q 598 328 591 293 q 608 399 604 363 q 616 500 612 442 q 626 623 621 557 l 646 894 q 647 914 647 906 q 649 928 648 922 q 655 936 650 933 q 669 940 659 939 l 900 996 q 918 999 909 999 q 932 993 928 999 q 937 970 937 987 m 545 1171 q 495 1102 515 1129 q 463 1060 475 1076 q 442 1038 450 1044 q 430 1032 435 1032 q 423 1035 426 1032 q 397 1052 409 1044 q 376 1064 386 1059 q 355 1076 366 1070 q 332 1087 345 1081 q 322 1101 322 1093 q 325 1114 323 1107 q 330 1133 326 1122 l 456 1497 q 463 1510 459 1507 q 470 1514 466 1514 q 477 1512 473 1514 q 484 1508 480 1510 q 589 1447 536 1472 q 693 1394 642 1421 q 705 1376 705 1387 q 694 1348 705 1365 q 650 1298 667 1318 q 617 1259 633 1278 q 586 1221 602 1241 q 545 1171 570 1200 z "},"":{"ha":935,"x_min":103,"x_max":937,"o":"m 937 970 q 932 916 935 951 q 924 835 928 880 q 915 741 920 790 q 906 646 910 691 q 898 564 901 601 q 893 509 895 528 q 845 261 879 365 q 755 92 810 158 q 622 -4 699 26 q 442 -35 544 -35 q 311 -10 372 -35 q 203 62 249 16 q 130 173 157 108 q 103 317 103 237 q 105 354 103 327 q 110 419 106 380 q 116 507 113 458 q 124 612 120 556 l 132 724 q 138 827 136 786 q 143 893 140 868 q 150 930 145 918 q 165 945 155 941 l 396 996 q 414 999 405 999 q 429 993 425 999 q 433 970 433 987 l 381 435 q 376 384 380 412 q 373 327 373 356 q 377 288 373 309 q 393 249 382 267 q 425 217 405 230 q 477 205 445 205 q 539 221 515 205 q 577 266 563 238 q 598 328 591 293 q 608 399 604 363 q 616 500 612 442 q 626 623 621 557 l 646 894 q 647 914 647 906 q 649 928 648 922 q 655 936 650 933 q 669 940 659 939 l 900 996 q 918 999 909 999 q 932 993 928 999 q 937 970 937 987 m 711 1354 q 737 1321 726 1335 q 755 1295 747 1307 q 770 1273 764 1284 q 785 1251 777 1263 q 799 1232 789 1244 q 817 1206 808 1220 q 833 1179 826 1192 q 840 1156 840 1165 q 827 1137 840 1147 q 795 1119 814 1128 q 759 1103 777 1110 q 729 1091 740 1095 q 708 1082 720 1088 q 686 1071 697 1076 q 666 1062 675 1065 q 652 1058 656 1058 q 641 1064 646 1058 q 626 1084 635 1069 l 538 1271 q 456 1167 497 1218 q 374 1064 415 1117 q 365 1059 371 1059 q 349 1065 361 1059 q 319 1079 336 1071 q 285 1095 302 1086 q 254 1110 267 1104 q 235 1119 246 1114 q 214 1129 224 1124 q 196 1140 203 1135 q 189 1150 189 1145 q 195 1166 189 1157 q 215 1187 201 1175 l 317 1303 q 393 1386 356 1345 q 466 1470 429 1427 q 485 1480 475 1479 q 501 1481 494 1481 l 604 1481 q 621 1480 612 1481 q 634 1469 629 1478 q 643 1455 635 1468 q 663 1426 651 1443 q 687 1389 674 1409 q 711 1354 701 1369 z "},"":{"ha":935,"x_min":103,"x_max":937,"o":"m 937 970 q 932 916 935 951 q 924 835 928 880 q 915 741 920 790 q 906 646 910 691 q 898 564 901 601 q 893 509 895 528 q 845 261 879 365 q 755 92 810 158 q 622 -4 699 26 q 442 -35 544 -35 q 311 -10 372 -35 q 203 62 249 16 q 130 173 157 108 q 103 317 103 237 q 105 354 103 327 q 110 419 106 380 q 116 507 113 458 q 124 612 120 556 l 132 724 q 138 827 136 786 q 143 893 140 868 q 150 930 145 918 q 165 945 155 941 l 396 996 q 414 999 405 999 q 429 993 425 999 q 433 970 433 987 l 381 435 q 376 384 380 412 q 373 327 373 356 q 377 288 373 309 q 393 249 382 267 q 425 217 405 230 q 477 205 445 205 q 539 221 515 205 q 577 266 563 238 q 598 328 591 293 q 608 399 604 363 q 616 500 612 442 q 626 623 621 557 l 646 894 q 647 914 647 906 q 649 928 648 922 q 655 936 650 933 q 669 940 659 939 l 900 996 q 918 999 909 999 q 932 993 928 999 q 937 970 937 987 m 171 1059 q 174 1115 173 1098 q 175 1140 174 1133 q 175 1150 175 1147 q 175 1162 175 1153 q 177 1193 176 1172 q 180 1258 178 1214 q 184 1286 181 1278 q 198 1295 188 1294 q 310 1296 251 1295 q 420 1297 370 1297 q 430 1293 427 1297 q 433 1279 433 1289 l 416 1090 q 411 1063 414 1071 q 398 1054 408 1055 q 292 1053 347 1053 q 178 1053 237 1053 q 173 1053 174 1053 q 171 1057 171 1054 l 171 1059 m 595 1058 q 598 1121 597 1101 q 600 1151 600 1142 q 600 1162 600 1160 q 600 1173 600 1165 q 601 1199 600 1181 q 605 1257 602 1217 q 609 1285 606 1277 q 622 1294 612 1293 q 734 1294 675 1294 q 844 1295 793 1295 q 853 1293 850 1295 q 857 1282 857 1290 l 841 1090 q 836 1062 838 1069 q 822 1053 833 1055 q 714 1052 770 1053 q 599 1051 659 1051 q 596 1052 597 1051 q 595 1055 595 1052 l 595 1058 z "},"":{"ha":756,"x_min":73,"x_max":861,"o":"m 81 903 q 95 910 85 906 q 118 920 104 915 q 146 932 131 926 q 177 945 161 939 l 256 976 q 272 980 264 980 q 284 977 277 980 q 298 966 290 974 l 455 662 l 459 672 l 526 796 q 552 842 539 819 q 574 882 564 864 q 591 910 584 899 q 599 921 597 921 l 831 979 q 845 981 840 981 q 861 967 861 981 q 859 958 860 964 q 855 945 859 952 l 656 576 q 626 520 641 548 q 596 468 610 492 q 571 422 582 443 q 553 389 559 402 l 548 367 l 510 113 q 507 94 508 101 q 503 81 505 86 q 497 73 500 77 q 486 66 493 70 l 294 -35 q 271 -43 283 -40 q 248 -47 259 -47 q 229 -42 237 -47 q 220 -25 220 -37 l 220 -22 q 230 67 223 16 q 245 168 237 119 l 283 419 q 255 480 273 442 q 217 562 237 518 q 175 653 197 606 q 133 742 153 700 q 99 815 114 783 q 76 862 83 847 q 73 883 73 872 q 74 895 73 889 q 81 903 76 901 m 476 1171 q 426 1102 446 1129 q 393 1060 406 1076 q 373 1038 380 1044 q 361 1032 366 1032 q 354 1035 357 1032 q 328 1052 340 1044 q 307 1064 317 1059 q 286 1076 296 1070 q 262 1087 275 1081 q 253 1101 253 1093 q 255 1114 254 1107 q 261 1133 257 1122 l 387 1497 q 393 1510 390 1507 q 401 1514 397 1514 q 408 1512 404 1514 q 414 1508 411 1510 q 520 1447 467 1472 q 624 1394 572 1421 q 636 1376 636 1387 q 625 1348 636 1365 q 581 1298 598 1318 q 548 1259 564 1278 q 517 1221 533 1241 q 476 1171 500 1200 z "},"":{"ha":872,"x_min":104,"x_max":907,"o":"m 907 630 q 888 515 907 568 q 836 420 869 463 q 758 345 802 378 q 662 291 713 313 q 555 258 610 269 q 447 247 500 247 q 420 248 433 247 q 393 250 407 248 l 375 64 l 363 43 q 352 36 363 41 q 324 26 341 32 q 286 13 307 20 q 244 -2 265 5 q 204 -15 223 -9 q 172 -26 184 -22 q 149 -33 162 -30 q 125 -35 136 -35 q 110 -31 115 -35 q 104 -12 104 -26 q 108 39 106 11 q 112 96 110 66 q 116 157 114 126 q 121 216 119 188 l 132 353 q 146 534 140 456 q 156 674 152 613 q 132 672 136 672 q 117 684 117 672 q 122 703 117 684 q 135 749 127 722 q 150 805 142 776 q 163 854 158 834 q 183 878 164 867 l 198 1016 l 210 1037 q 220 1043 210 1039 q 248 1054 231 1048 q 287 1066 265 1059 q 329 1081 308 1074 q 370 1095 351 1088 q 401 1106 389 1101 q 424 1112 410 1109 q 448 1115 437 1115 q 463 1110 458 1115 q 469 1092 469 1105 q 466 1055 467 1072 q 463 1020 465 1038 q 460 980 462 1002 q 456 928 458 958 q 526 930 495 930 q 672 916 603 930 q 793 868 741 902 q 877 775 846 833 q 907 630 907 718 m 412 451 q 415 438 412 444 q 430 432 418 432 q 465 437 445 432 q 506 453 485 443 q 548 480 528 464 q 584 518 568 496 q 610 567 600 540 q 620 627 620 594 q 587 696 620 674 q 501 719 554 719 q 480 718 492 719 q 460 714 469 717 q 444 708 450 711 q 436 698 437 704 q 435 683 436 698 q 431 646 433 669 q 427 596 429 624 q 421 541 424 568 q 416 490 418 513 q 412 451 414 466 z "},"":{"ha":926,"x_min":83,"x_max":920,"o":"m 91 115 q 102 287 98 203 q 109 449 105 371 q 121 596 113 526 q 146 725 130 665 q 192 831 163 784 q 267 912 221 879 q 378 964 313 946 q 534 982 444 982 q 674 963 609 982 q 786 910 739 943 q 861 833 834 877 q 888 742 888 790 q 855 638 888 691 q 745 538 821 586 q 818 494 786 514 q 873 452 850 474 q 907 404 895 431 q 920 338 920 376 q 902 225 920 279 q 852 125 884 172 q 777 42 821 79 q 680 -21 732 5 q 569 -62 628 -47 q 449 -76 510 -76 q 431 -71 437 -76 q 423 -55 426 -66 q 420 -23 420 -43 q 417 26 419 -3 q 414 63 416 47 q 412 92 412 79 q 418 120 412 110 q 441 133 424 130 q 524 152 484 140 q 593 185 563 163 q 641 238 623 206 q 659 317 659 271 q 646 352 659 337 q 613 377 633 366 q 569 394 593 387 q 522 405 545 401 q 480 412 499 410 q 451 416 460 414 q 439 422 442 417 q 436 435 436 428 q 447 460 436 445 q 477 503 457 475 l 505 543 q 545 559 524 549 q 585 583 566 570 q 615 613 603 596 q 627 649 627 629 q 603 734 627 705 q 534 764 579 764 q 499 759 521 764 q 456 740 477 753 q 417 703 434 726 q 397 642 400 679 q 381 507 387 571 q 373 385 376 443 q 368 274 370 327 q 361 172 366 221 l 349 -8 q 338 -22 348 -18 q 321 -26 329 -26 q 209 -10 265 -18 q 106 9 152 -2 q 88 20 93 12 q 83 35 83 27 q 86 75 83 59 q 91 115 89 92 z "},"":{"ha":846,"x_min":71,"x_max":844,"o":"m 774 136 q 773 131 773 134 q 773 127 773 129 q 779 99 773 110 q 790 80 784 87 q 802 69 797 73 q 808 61 808 64 q 787 43 808 52 l 605 -35 q 600 -35 604 -35 q 589 -26 595 -35 q 579 -2 584 -16 q 569 30 574 13 q 562 60 565 46 q 469 -12 519 11 q 371 -35 420 -35 q 260 -10 314 -35 q 163 61 205 15 q 96 174 121 108 q 71 321 71 239 q 99 498 71 418 q 175 636 127 578 q 287 725 223 694 q 423 757 351 757 q 519 736 474 757 q 606 683 565 715 q 610 715 610 703 q 613 734 611 728 q 623 744 616 741 q 645 747 629 746 q 742 760 694 754 q 844 768 791 766 l 774 136 m 571 392 q 580 465 578 431 q 584 528 583 499 q 561 545 573 536 q 533 561 548 553 q 503 574 519 569 q 469 578 487 578 q 408 555 433 578 q 368 496 383 531 q 346 423 353 462 q 340 355 340 385 q 368 198 340 248 q 446 148 396 148 q 492 159 467 148 q 543 191 517 171 l 571 392 m 395 968 q 368 1015 379 996 q 348 1051 357 1034 q 328 1087 338 1068 q 302 1135 317 1107 q 297 1149 298 1143 q 295 1162 296 1156 q 298 1174 295 1169 q 309 1181 302 1178 q 361 1210 334 1196 q 416 1240 389 1225 q 472 1272 444 1255 q 524 1305 499 1288 q 534 1309 531 1309 q 539 1303 538 1309 l 615 907 q 618 892 616 898 q 619 881 619 886 q 617 869 619 875 q 608 861 615 864 q 582 849 594 854 q 558 838 570 844 q 533 825 546 832 q 503 808 519 819 q 496 806 500 806 q 482 815 490 806 q 464 843 475 824 q 436 893 452 863 q 395 968 419 924 z "},"":{"ha":846,"x_min":71,"x_max":844,"o":"m 774 136 q 773 131 773 134 q 773 127 773 129 q 779 99 773 110 q 790 80 784 87 q 802 69 797 73 q 808 61 808 64 q 787 43 808 52 l 605 -35 q 600 -35 604 -35 q 589 -26 595 -35 q 579 -2 584 -16 q 569 30 574 13 q 562 60 565 46 q 469 -12 519 11 q 371 -35 420 -35 q 260 -10 314 -35 q 163 61 205 15 q 96 174 121 108 q 71 321 71 239 q 99 498 71 418 q 175 636 127 578 q 287 725 223 694 q 423 757 351 757 q 519 736 474 757 q 606 683 565 715 q 610 715 610 703 q 613 734 611 728 q 623 744 616 741 q 645 747 629 746 q 742 760 694 754 q 844 768 791 766 l 774 136 m 571 392 q 580 465 578 431 q 584 528 583 499 q 561 545 573 536 q 533 561 548 553 q 503 574 519 569 q 469 578 487 578 q 408 555 433 578 q 368 496 383 531 q 346 423 353 462 q 340 355 340 385 q 368 198 340 248 q 446 148 396 148 q 492 159 467 148 q 543 191 517 171 l 571 392 m 488 944 q 438 876 458 903 q 405 833 418 849 q 385 812 392 818 q 372 806 377 806 q 366 808 368 806 q 340 825 351 818 q 318 838 328 832 q 297 849 308 844 q 274 861 287 854 q 264 875 264 866 q 267 888 265 880 q 273 907 269 895 l 398 1271 q 405 1284 401 1280 q 412 1287 408 1287 q 419 1285 416 1287 q 426 1282 422 1284 q 531 1220 479 1246 q 635 1168 584 1195 q 648 1149 648 1160 q 636 1122 648 1139 q 592 1071 610 1091 q 560 1033 575 1051 q 528 994 545 1015 q 488 944 512 974 z "},"":{"ha":846,"x_min":71,"x_max":844,"o":"m 774 136 q 773 131 773 134 q 773 127 773 129 q 779 99 773 110 q 790 80 784 87 q 802 69 797 73 q 808 61 808 64 q 787 43 808 52 l 605 -35 q 600 -35 604 -35 q 589 -26 595 -35 q 579 -2 584 -16 q 569 30 574 13 q 562 60 565 46 q 469 -12 519 11 q 371 -35 420 -35 q 260 -10 314 -35 q 163 61 205 15 q 96 174 121 108 q 71 321 71 239 q 99 498 71 418 q 175 636 127 578 q 287 725 223 694 q 423 757 351 757 q 519 736 474 757 q 606 683 565 715 q 610 715 610 703 q 613 734 611 728 q 623 744 616 741 q 645 747 629 746 q 742 760 694 754 q 844 768 791 766 l 774 136 m 571 392 q 580 465 578 431 q 584 528 583 499 q 561 545 573 536 q 533 561 548 553 q 503 574 519 569 q 469 578 487 578 q 408 555 433 578 q 368 496 383 531 q 346 423 353 462 q 340 355 340 385 q 368 198 340 248 q 446 148 396 148 q 492 159 467 148 q 543 191 517 171 l 571 392 m 654 1127 q 679 1095 669 1109 q 698 1069 690 1080 q 713 1047 706 1057 q 728 1024 720 1036 q 741 1006 732 1018 q 759 980 750 994 q 775 952 768 966 q 783 930 783 939 q 769 911 783 920 q 738 892 756 901 q 701 876 720 884 q 671 865 682 869 q 651 856 662 861 q 628 844 640 850 q 608 835 617 839 q 594 831 599 831 q 583 837 589 831 q 568 858 577 843 l 481 1044 q 398 941 439 991 q 316 838 357 890 q 307 833 313 833 q 291 839 304 833 q 262 852 279 844 q 227 869 245 860 q 196 884 210 878 q 177 892 189 887 q 156 903 166 897 q 139 913 146 908 q 132 924 132 919 q 138 939 132 930 q 157 961 144 948 l 260 1076 q 335 1160 298 1119 q 408 1243 372 1200 q 427 1254 418 1253 q 444 1255 436 1255 l 547 1255 q 563 1253 555 1255 q 576 1242 571 1252 q 585 1229 577 1241 q 605 1199 593 1217 q 630 1162 616 1182 q 654 1127 643 1143 z "},"":{"ha":846,"x_min":71,"x_max":844,"o":"m 774 136 q 773 131 773 134 q 773 127 773 129 q 779 99 773 110 q 790 80 784 87 q 802 69 797 73 q 808 61 808 64 q 787 43 808 52 l 605 -35 q 600 -35 604 -35 q 589 -26 595 -35 q 579 -2 584 -16 q 569 30 574 13 q 562 60 565 46 q 469 -12 519 11 q 371 -35 420 -35 q 260 -10 314 -35 q 163 61 205 15 q 96 174 121 108 q 71 321 71 239 q 99 498 71 418 q 175 636 127 578 q 287 725 223 694 q 423 757 351 757 q 519 736 474 757 q 606 683 565 715 q 610 715 610 703 q 613 734 611 728 q 623 744 616 741 q 645 747 629 746 q 742 760 694 754 q 844 768 791 766 l 774 136 m 571 392 q 580 465 578 431 q 584 528 583 499 q 561 545 573 536 q 533 561 548 553 q 503 574 519 569 q 469 578 487 578 q 408 555 433 578 q 368 496 383 531 q 346 423 353 462 q 340 355 340 385 q 368 198 340 248 q 446 148 396 148 q 492 159 467 148 q 543 191 517 171 l 571 392 m 532 1071 q 556 1046 545 1053 q 582 1038 567 1038 q 612 1049 603 1038 q 625 1075 621 1061 q 631 1100 629 1088 q 639 1111 633 1111 q 650 1111 640 1111 q 674 1112 660 1112 q 705 1114 688 1113 q 737 1115 722 1114 q 763 1117 752 1116 q 777 1117 774 1117 q 789 1114 783 1117 q 795 1104 795 1112 q 778 1005 795 1055 q 729 915 760 956 q 653 849 697 874 q 555 823 609 823 q 512 827 534 823 q 470 843 491 831 q 427 874 448 854 q 382 926 405 894 q 358 947 371 943 q 328 951 346 951 q 302 945 312 951 q 286 927 292 938 q 277 903 279 916 q 275 877 275 890 q 269 866 275 871 q 255 861 264 861 q 220 861 233 861 q 196 860 207 861 q 172 860 184 860 q 139 859 159 859 q 125 862 132 859 q 119 871 119 865 q 137 987 119 935 q 187 1077 155 1040 q 260 1135 218 1114 q 351 1156 302 1156 q 401 1154 378 1156 q 447 1143 425 1152 q 489 1118 469 1135 q 532 1071 510 1101 z "},"":{"ha":846,"x_min":71,"x_max":844,"o":"m 774 136 q 773 131 773 134 q 773 127 773 129 q 779 99 773 110 q 790 80 784 87 q 802 69 797 73 q 808 61 808 64 q 787 43 808 52 l 605 -35 q 600 -35 604 -35 q 589 -26 595 -35 q 579 -2 584 -16 q 569 30 574 13 q 562 60 565 46 q 469 -12 519 11 q 371 -35 420 -35 q 260 -10 314 -35 q 163 61 205 15 q 96 174 121 108 q 71 321 71 239 q 99 498 71 418 q 175 636 127 578 q 287 725 223 694 q 423 757 351 757 q 519 736 474 757 q 606 683 565 715 q 610 715 610 703 q 613 734 611 728 q 623 744 616 741 q 645 747 629 746 q 742 760 694 754 q 844 768 791 766 l 774 136 m 571 392 q 580 465 578 431 q 584 528 583 499 q 561 545 573 536 q 533 561 548 553 q 503 574 519 569 q 469 578 487 578 q 408 555 433 578 q 368 496 383 531 q 346 423 353 462 q 340 355 340 385 q 368 198 340 248 q 446 148 396 148 q 492 159 467 148 q 543 191 517 171 l 571 392 m 113 833 q 116 889 115 871 q 117 913 117 906 q 117 924 117 921 q 118 936 117 926 q 119 966 118 945 q 122 1031 120 987 q 127 1060 123 1052 q 140 1069 130 1067 q 253 1069 193 1069 q 363 1070 312 1070 q 372 1066 370 1070 q 375 1053 375 1063 l 358 864 q 353 837 356 844 q 340 827 351 829 q 234 826 289 827 q 120 826 180 826 q 115 827 117 826 q 113 831 113 827 l 113 833 m 538 831 q 541 895 540 874 q 542 924 542 916 q 542 936 543 933 q 542 946 542 939 q 544 972 543 954 q 547 1031 545 991 q 551 1058 549 1050 q 564 1067 554 1066 q 677 1068 618 1067 q 787 1069 736 1068 q 796 1066 792 1069 q 800 1055 800 1063 l 783 863 q 778 836 781 843 q 764 827 776 828 q 657 825 712 826 q 541 825 602 825 q 538 825 539 825 q 538 829 538 825 l 538 831 z "},"":{"ha":846,"x_min":71,"x_max":844,"o":"m 774 136 q 773 131 773 134 q 773 127 773 129 q 779 99 773 110 q 790 80 784 87 q 802 69 797 73 q 808 61 808 64 q 787 43 808 52 l 605 -35 q 600 -35 604 -35 q 589 -26 595 -35 q 579 -2 584 -16 q 569 30 574 13 q 562 60 565 46 q 469 -12 519 11 q 371 -35 420 -35 q 260 -10 314 -35 q 163 61 205 15 q 96 174 121 108 q 71 321 71 239 q 99 498 71 418 q 175 636 127 578 q 287 725 223 694 q 423 757 351 757 q 519 736 474 757 q 606 683 565 715 q 610 715 610 703 q 613 734 611 728 q 623 744 616 741 q 645 747 629 746 q 742 760 694 754 q 844 768 791 766 l 774 136 m 571 392 q 580 465 578 431 q 584 528 583 499 q 561 545 573 536 q 533 561 548 553 q 503 574 519 569 q 469 578 487 578 q 408 555 433 578 q 368 496 383 531 q 346 423 353 462 q 340 355 340 385 q 368 198 340 248 q 446 148 396 148 q 492 159 467 148 q 543 191 517 171 l 571 392 m 455 808 q 380 821 415 808 q 320 856 346 833 q 280 912 295 879 q 266 988 266 945 q 281 1061 266 1027 q 324 1122 297 1096 q 388 1163 351 1147 q 468 1178 425 1178 q 538 1166 505 1178 q 595 1131 571 1154 q 634 1077 620 1109 q 648 1006 648 1045 q 634 934 648 970 q 596 870 621 899 q 535 825 571 842 q 455 808 500 808 m 526 989 q 526 996 526 992 q 526 1002 526 999 q 524 1028 526 1015 q 514 1054 521 1042 q 496 1074 507 1066 q 469 1081 486 1081 q 430 1073 447 1081 q 403 1051 414 1064 q 388 1021 393 1038 q 382 987 382 1004 q 385 961 382 975 q 395 935 388 947 q 413 916 401 924 q 443 907 425 908 q 478 915 463 907 q 502 933 492 922 q 518 960 512 945 q 526 989 524 975 z "},"":{"ha":1300,"x_min":70,"x_max":1299,"o":"m 734 604 q 858 716 787 675 q 1015 758 928 758 q 1080 748 1046 758 q 1145 720 1114 738 q 1205 675 1177 701 q 1254 617 1233 649 q 1286 548 1274 585 q 1299 471 1299 511 q 1295 422 1299 447 q 1284 372 1291 397 q 1275 342 1284 351 q 1243 329 1265 334 q 1186 321 1221 325 q 1099 306 1151 317 q 1033 294 1067 299 q 966 285 1000 290 q 899 275 932 280 q 833 261 865 269 q 851 208 836 231 q 892 171 867 186 q 947 150 916 157 q 1012 143 979 143 q 1075 150 1044 143 q 1133 166 1105 156 q 1186 189 1160 176 q 1235 215 1212 202 q 1245 217 1241 216 q 1254 218 1250 218 q 1254 207 1254 218 q 1253 175 1253 196 q 1253 125 1253 155 q 1252 61 1253 96 q 1255 49 1255 54 q 1252 40 1255 43 q 1244 34 1249 37 q 1190 8 1222 22 q 1120 -16 1158 -5 q 1044 -34 1083 -27 q 970 -41 1005 -41 q 889 -33 929 -41 q 812 -9 849 -25 q 742 29 775 6 q 682 82 709 52 q 606 27 646 50 q 527 -11 567 4 q 447 -34 486 -26 q 370 -41 407 -41 q 259 -16 313 -41 q 163 55 205 9 q 95 168 121 102 q 70 315 70 233 q 98 492 70 412 q 174 630 126 572 q 287 719 222 687 q 422 750 351 750 q 599 731 518 750 q 754 684 680 713 l 734 604 m 562 185 q 578 329 572 269 q 588 430 584 389 q 594 497 592 471 q 597 542 596 524 q 540 562 573 551 q 469 572 507 572 q 407 549 432 572 q 367 490 382 525 q 346 417 352 456 q 339 349 339 378 q 367 192 339 241 q 446 142 395 142 q 500 153 471 142 q 562 185 530 165 m 998 576 q 939 565 966 576 q 891 531 913 553 q 854 478 870 509 q 827 410 838 447 l 1105 465 q 1106 470 1105 467 q 1106 475 1106 473 q 1096 519 1106 500 q 1070 551 1086 538 q 1035 570 1055 564 q 998 576 1016 576 z "},"":{"ha":716,"x_min":69,"x_max":738,"o":"m 69 331 q 102 497 69 420 q 193 633 135 575 q 330 724 251 690 q 502 757 409 757 q 610 747 565 757 q 683 724 654 736 q 725 701 711 711 q 738 690 738 690 q 735 667 738 686 q 728 624 732 648 q 721 573 724 599 q 718 528 718 547 q 716 520 718 524 q 705 516 714 516 q 682 522 697 516 q 643 534 666 528 q 591 547 621 541 q 526 553 562 553 q 445 537 481 553 q 383 493 409 521 q 343 426 357 465 q 330 342 330 387 q 344 263 330 296 q 383 209 359 230 q 439 179 408 189 q 507 170 471 170 q 589 181 547 170 q 667 212 630 192 q 672 213 668 213 q 677 210 675 213 q 679 197 679 206 q 679 144 679 175 q 679 85 679 113 q 677 37 678 57 q 676 18 677 18 q 623 -9 652 1 q 565 -25 595 -19 q 504 -33 534 -31 q 445 -35 473 -35 q 297 -9 366 -35 q 178 66 229 18 q 98 181 127 114 q 69 331 69 249 m 552 -262 q 529 -320 546 -294 q 488 -365 512 -346 q 435 -394 465 -383 q 374 -404 406 -404 q 314 -400 346 -404 q 259 -382 283 -396 l 260 -383 q 260 -378 260 -382 q 261 -357 260 -370 q 263 -330 262 -345 q 268 -302 265 -315 q 273 -279 270 -288 l 276 -279 q 280 -281 280 -279 l 279 -281 q 300 -289 290 -286 q 320 -294 309 -292 q 343 -296 330 -296 q 372 -297 355 -297 q 416 -280 401 -297 q 432 -241 432 -263 q 419 -208 432 -221 q 385 -195 407 -195 q 321 -192 348 -195 q 285 -189 295 -189 q 278 -186 279 -189 q 277 -180 277 -184 q 285 -159 281 -174 q 294 -126 290 -144 q 303 -89 299 -109 q 312 -53 308 -69 q 318 -25 315 -36 q 320 -12 320 -14 l 333 -12 q 363 -12 345 -12 q 399 -12 381 -12 l 441 -12 l 409 -108 q 430 -105 420 -106 q 449 -104 440 -104 q 504 -116 484 -104 q 536 -144 525 -127 q 551 -184 547 -162 q 555 -230 555 -207 q 554 -246 555 -238 q 552 -262 553 -254 z "},"":{"ha":774,"x_min":68,"x_max":771,"o":"m 486 757 q 603 733 550 757 q 693 670 655 709 q 751 585 730 632 q 771 490 771 537 q 745 405 771 448 q 673 329 720 363 q 562 274 627 295 q 418 253 496 253 q 333 261 378 253 q 350 211 336 232 q 386 176 364 190 q 435 156 408 163 q 492 150 463 150 q 554 156 524 150 q 612 171 585 161 q 666 192 640 180 q 715 215 692 203 q 725 217 721 216 q 734 218 730 218 q 733 208 734 218 q 733 177 733 197 q 733 130 733 157 q 732 68 732 102 q 734 61 734 64 q 735 56 735 58 q 720 38 735 47 q 681 18 705 28 q 626 -1 657 8 q 564 -19 595 -11 q 502 -31 532 -26 q 450 -35 472 -35 q 308 -10 376 -35 q 185 63 239 16 q 100 178 132 111 q 68 331 68 246 q 99 497 68 420 q 185 633 130 575 q 317 724 240 690 q 486 757 393 757 m 477 576 q 426 565 450 576 q 384 531 403 553 q 350 478 364 509 q 327 410 336 447 q 443 435 397 422 q 517 463 489 449 q 556 491 545 477 q 568 517 568 505 q 558 541 568 530 q 536 559 549 551 q 506 572 522 568 q 477 576 490 576 m 380 968 q 353 1015 364 996 q 333 1051 342 1034 q 313 1087 323 1068 q 287 1135 302 1107 q 282 1149 283 1143 q 280 1162 281 1156 q 283 1174 280 1169 q 294 1181 287 1178 q 346 1210 319 1196 q 401 1240 374 1225 q 457 1272 429 1255 q 509 1305 484 1288 q 519 1309 516 1309 q 524 1303 523 1309 l 600 907 q 603 892 602 898 q 604 881 604 886 q 602 869 604 875 q 593 861 600 864 q 567 849 579 854 q 543 838 555 844 q 518 825 531 832 q 488 808 505 819 q 481 806 486 806 q 467 815 475 806 q 449 843 460 824 q 421 893 437 863 q 380 968 404 924 z "},"":{"ha":774,"x_min":68,"x_max":771,"o":"m 486 757 q 603 733 550 757 q 693 670 655 709 q 751 585 730 632 q 771 490 771 537 q 745 405 771 448 q 673 329 720 363 q 562 274 627 295 q 418 253 496 253 q 333 261 378 253 q 350 211 336 232 q 386 176 364 190 q 435 156 408 163 q 492 150 463 150 q 554 156 524 150 q 612 171 585 161 q 666 192 640 180 q 715 215 692 203 q 725 217 721 216 q 734 218 730 218 q 733 208 734 218 q 733 177 733 197 q 733 130 733 157 q 732 68 732 102 q 734 61 734 64 q 735 56 735 58 q 720 38 735 47 q 681 18 705 28 q 626 -1 657 8 q 564 -19 595 -11 q 502 -31 532 -26 q 450 -35 472 -35 q 308 -10 376 -35 q 185 63 239 16 q 100 178 132 111 q 68 331 68 246 q 99 497 68 420 q 185 633 130 575 q 317 724 240 690 q 486 757 393 757 m 477 576 q 426 565 450 576 q 384 531 403 553 q 350 478 364 509 q 327 410 336 447 q 443 435 397 422 q 517 463 489 449 q 556 491 545 477 q 568 517 568 505 q 558 541 568 530 q 536 559 549 551 q 506 572 522 568 q 477 576 490 576 m 473 944 q 423 876 443 903 q 390 833 403 849 q 370 812 377 818 q 357 806 362 806 q 351 808 353 806 q 325 825 336 818 q 303 838 313 832 q 282 849 293 844 q 259 861 272 854 q 250 875 250 866 q 252 888 250 880 q 258 907 254 895 l 383 1271 q 390 1284 387 1280 q 397 1287 393 1287 q 404 1285 401 1287 q 411 1282 408 1284 q 516 1220 464 1246 q 621 1168 569 1195 q 633 1149 633 1160 q 621 1122 633 1139 q 577 1071 595 1091 q 545 1033 560 1051 q 513 994 530 1015 q 473 944 497 974 z "},"":{"ha":774,"x_min":68,"x_max":771,"o":"m 486 757 q 603 733 550 757 q 693 670 655 709 q 751 585 730 632 q 771 490 771 537 q 745 405 771 448 q 673 329 720 363 q 562 274 627 295 q 418 253 496 253 q 333 261 378 253 q 350 211 336 232 q 386 176 364 190 q 435 156 408 163 q 492 150 463 150 q 554 156 524 150 q 612 171 585 161 q 666 192 640 180 q 715 215 692 203 q 725 217 721 216 q 734 218 730 218 q 733 208 734 218 q 733 177 733 197 q 733 130 733 157 q 732 68 732 102 q 734 61 734 64 q 735 56 735 58 q 720 38 735 47 q 681 18 705 28 q 626 -1 657 8 q 564 -19 595 -11 q 502 -31 532 -26 q 450 -35 472 -35 q 308 -10 376 -35 q 185 63 239 16 q 100 178 132 111 q 68 331 68 246 q 99 497 68 420 q 185 633 130 575 q 317 724 240 690 q 486 757 393 757 m 477 576 q 426 565 450 576 q 384 531 403 553 q 350 478 364 509 q 327 410 336 447 q 443 435 397 422 q 517 463 489 449 q 556 491 545 477 q 568 517 568 505 q 558 541 568 530 q 536 559 549 551 q 506 572 522 568 q 477 576 490 576 m 633 1127 q 658 1095 648 1109 q 677 1069 669 1080 q 692 1047 685 1057 q 707 1024 699 1036 q 720 1006 711 1018 q 738 980 729 994 q 754 952 747 966 q 762 930 762 939 q 748 911 762 920 q 717 892 735 901 q 680 876 699 884 q 650 865 661 869 q 630 856 641 861 q 607 844 618 850 q 587 835 596 839 q 573 831 578 831 q 562 837 568 831 q 547 858 556 843 l 460 1044 q 377 941 418 991 q 295 838 336 890 q 286 833 292 833 q 270 839 283 833 q 241 852 258 844 q 206 869 224 860 q 175 884 189 878 q 156 892 168 887 q 135 903 145 897 q 118 913 125 908 q 111 924 111 919 q 117 939 111 930 q 136 961 123 948 l 239 1076 q 314 1160 277 1119 q 387 1243 351 1200 q 406 1254 397 1253 q 422 1255 415 1255 l 526 1255 q 542 1253 534 1255 q 555 1242 550 1252 q 564 1229 556 1241 q 584 1199 572 1217 q 609 1162 595 1182 q 633 1127 622 1143 z "},"":{"ha":774,"x_min":68,"x_max":785,"o":"m 486 757 q 603 733 550 757 q 693 670 655 709 q 751 585 730 632 q 771 490 771 537 q 745 405 771 448 q 673 329 720 363 q 562 274 627 295 q 418 253 496 253 q 333 261 378 253 q 350 211 336 232 q 386 176 364 190 q 435 156 408 163 q 492 150 463 150 q 554 156 524 150 q 612 171 585 161 q 666 192 640 180 q 715 215 692 203 q 725 217 721 216 q 734 218 730 218 q 733 208 734 218 q 733 177 733 197 q 733 130 733 157 q 732 68 732 102 q 734 61 734 64 q 735 56 735 58 q 720 38 735 47 q 681 18 705 28 q 626 -1 657 8 q 564 -19 595 -11 q 502 -31 532 -26 q 450 -35 472 -35 q 308 -10 376 -35 q 185 63 239 16 q 100 178 132 111 q 68 331 68 246 q 99 497 68 420 q 185 633 130 575 q 317 724 240 690 q 486 757 393 757 m 477 576 q 426 565 450 576 q 384 531 403 553 q 350 478 364 509 q 327 410 336 447 q 443 435 397 422 q 517 463 489 449 q 556 491 545 477 q 568 517 568 505 q 558 541 568 530 q 536 559 549 551 q 506 572 522 568 q 477 576 490 576 m 98 833 q 101 889 100 871 q 102 913 102 906 q 102 924 102 921 q 103 936 102 926 q 104 966 103 945 q 107 1031 105 987 q 112 1060 109 1052 q 125 1069 115 1067 q 238 1069 178 1069 q 348 1070 297 1070 q 357 1066 355 1070 q 360 1053 360 1063 l 343 864 q 338 837 341 844 q 326 827 336 829 q 219 826 274 827 q 105 826 165 826 q 100 827 102 826 q 98 831 98 827 l 98 833 m 523 831 q 526 895 525 874 q 527 924 527 916 q 527 936 528 933 q 527 946 527 939 q 529 972 528 954 q 532 1031 530 991 q 536 1058 534 1050 q 549 1067 539 1066 q 662 1068 603 1067 q 772 1069 721 1068 q 781 1066 777 1069 q 785 1055 785 1063 l 768 863 q 763 836 766 843 q 749 827 761 828 q 642 825 697 826 q 526 825 587 825 q 524 825 524 825 q 523 829 523 825 l 523 831 z "}}}
